<?xml version="1.0" encoding="UTF-8"?>
<svg id="Layer_1" data-name="Layer 1" xmlns="http://www.w3.org/2000/svg" xmlns:xlink="http://www.w3.org/1999/xlink" viewBox="0 0 2400 1600">
  <defs>
    <clipPath id="clippath">
      <rect x="591.2" y="412.05" width="1261.23" height="815.14" style="fill: none;"/>
    </clipPath>
    <clipPath id="clippath-1">
      <rect x="591.2" y="412.05" width="1261.23" height="815.14" style="fill: none;"/>
    </clipPath>
  </defs>
  <rect width="2400" height="1600" style="fill: #011e41;"/>
  <g style="clip-path: url(#clippath);">
    <path d="M1247.71,966.48c-15.56,37.24-13.34,85.6,2.5,111.16l90.6,145.07,70.31-101.72h114.77l62.81-77.25h-145.62l-43.91,53.91-87.26-72.53c-1.95-1.66-4.17-11.39-.56-20.01l39.74-96.15s8.34,40.85,61.42,40.85h315.7c15,0,60.58,0,78.09-42.25,16.12-38.91-7.78-60.03-7.78-60.03h25.01l28.9-69.19h-154.51c-18.15-.23-36.02,4.47-51.69,13.62l72.81-175.91h-79.48l-80.04,193.14s-14.45-30.85-61.14-30.85h-93.37l151.74-366.28h-79.48l-151.74,366.28h-194.53c-49.72-.07-97.19,20.69-130.89,57.25,0,0-.28-57.25-68.36-57.25h-173.14c-69.48,0-140.62,41.4-162.57,94.21-15.28,37.24,6.39,77.54,55.58,77.54h67.53c28.07,0,58.08-18.9,70.87-27.79,0,0,14.45,27.79,55.86,27.79h95.04l-32.52,78.09h79.76l32.23-78.09h234l-6.67,16.4Z" style="fill: #fff;"/>
    <path d="M921.46,678.85l27.51-20.01,27.51,20.01-10.56-32.24,27.79-20.01h-34.18l-10.56-32.52-10.56,32.52h-33.9l27.51,20.01-10.56,32.24ZM1099.87,678.85l27.51-20.01,27.79,20.01-10.56-32.24,27.51-20.01h-34.18l-10.56-32.52-10.28,32.52h-34.18l27.51,20.01-10.56,32.24ZM1278.56,678.85l27.51-20.01,27.51,20.01-10.56-32.24,27.51-20.01h-33.91l-10.56-32.52-10.56,32.52h-34.19l27.8,20.01-10.56,32.24ZM853.65,721.65h.28l-2.22,32.23h11.12l30.85-40.29h-8.89l-23.63,31.4,2.23-31.4h-11.4l-23.62,31.4,2.23-31.4h-9.73l-2.22,40.29h10.83l24.18-32.23ZM876.72,753.88h9.72l8.06-8.89h23.07l.83,8.89h10.84l-3.89-40.29h-11.39l-37.24,40.29ZM917.01,738.32h-16.67l15.56-17.51,1.11,17.51ZM983.99,725.54c3.06-8.06-1.39-13.06-13.06-13.06-9.45,0-19.45,3.89-23.34,13.06-6.95,16.4,25.57,8.34,21.68,17.22-1.11,3.06-5.28,6.11-12.78,6.11-6.95,0-9.45-2.77-7.78-7.5h-9.17c-3.61,8.61,1.67,13.62,13.34,13.62,13.62,0,22.79-5,26.4-13.34,7.23-17.51-26.13-7.23-21.68-17.51,2.05-3.56,5.9-5.7,10.01-5.56,6.39,0,9.17,1.95,7.23,6.95h9.17ZM992.6,753.88l6.95-17.23h21.95l-7.23,17.23h9.17l16.68-40.29h-8.89l-6.95,16.4h-21.95l6.67-16.4h-8.89l-16.68,40.29h9.17ZM1044.84,753.88l16.68-40.29h-9.17l-16.68,40.29h9.17ZM1065.13,753.88l13.06-31.4h.28l10.28,31.4h12.23l16.68-40.29h-8.34l-12.78,30.85-10.01-30.85h-12.78l-16.68,40.29h8.06ZM1167.96,726.65c3.89-9.45-3.33-14.17-15.56-14.17-14.29-.34-27.36,8.01-33.07,21.12-6.11,14.73,1.39,21.4,16.4,21.4,7.47-.04,14.87-1.26,21.96-3.61l7.78-18.62h-21.68l-2.5,6.11h12.78l-3.06,7.78c-3.91.99-7.92,1.55-11.95,1.67-12.51,0-13.35-7.23-10.29-14.73,3.66-9.15,12.66-15.03,22.52-14.73,4.44,0,9.45,2.22,7.23,7.78h9.45ZM1179.07,753.88h8.89l13.9-33.63h15.56l2.78-6.67h-39.74l-2.78,6.67h15.28l-13.89,33.63ZM1231.59,754.99c14.26.67,27.31-7.99,32.24-21.4,6.11-13.89.28-21.12-14.73-21.12-14.16-.59-27.12,7.9-32.23,21.12-5.84,14.17,0,21.4,14.73,21.4ZM1226.32,733.59c2.99-8.65,11.13-14.44,20.29-14.45,8.61,0,11.95,5,8.06,14.45-2.87,8.78-11.06,14.72-20.29,14.73-8.62,0-11.95-5-8.06-14.73M1304.96,744.43l-10.01-30.85h-12.78l-16.4,40.29h8.06l13.06-31.4,10.28,31.4h12.23l16.68-40.29h-8.06l-13.06,30.85Z" style="fill: #cf0a2c;"/>
  </g>
  <polygon points="1548.4 1062.91 1452.26 1062.91 1420.85 1101.81 1516.72 1101.81 1548.4 1062.91" style="fill: #cf0a2c;"/>
  <g style="clip-path: url(#clippath-1);">
    <path d="M747.21,828.36h50.58l12.5-30.85h-51.69c-61.14,0-125.89,36.97-144.79,82.26-11.39,27.51,5.28,50.86,37.79,50.86h67.53c29.46,0,65.03-28.07,65.03-28.07l-31.4-13.34c-8.79,6.35-19.19,10.11-30.02,10.84h-64.47c-8.06,0-11.67-8.06-7.23-18.34,12.23-29.46,55.3-53.36,96.15-53.36ZM945.64,930.63l31.12-75.04c13.34-31.96-6.95-58.08-45.02-58.08h-98.93l-12.78,30.85h107.27c22.79,0,15.84,16.95,15.84,16.95h-77.25c-30.57,0-53.08,13.9-60.31,31.4-12.5,30.01,5.56,53.91,40.3,53.91h39.18c9.26-.39,18.26-3.17,26.13-8.06l-3.62,8.06h38.08ZM1386.66,797.51l-12.78,30.85h120.06c22.79,0,15.84,16.95,15.84,16.95h-77.26c-30.57,0-53.08,13.9-60.3,31.4-12.5,30.01,5.56,53.91,40.3,53.91h39.18c9.26-.39,18.26-3.17,26.13-8.06l-3.34,8.06h37.79l31.4-75.04c13.06-31.96-6.95-58.08-45.3-58.08h-111.72ZM1567.86,930.63l122.56-295.41h-38.07l-122.28,295.41h37.79ZM1278.84,797.51h-37.79l-12.79,30.85h37.79l12.79-30.85ZM1223.81,930.63l35.3-85.32h-37.79l-35.57,85.32h38.07ZM1637.61,828.36c-11.67,28.34,3.62,51.13,34.19,51.13h77.25c5.56,0,8.34,4.72,5.84,10.28-2.52,5.86-8.09,9.82-14.45,10.28h-141.17l-12.79,30.57h141.73c26.4,0,50.3-5.84,60.58-30.57,11.68-28.07-3.61-51.13-34.18-51.13h-77.26c-5.56,0-8.34-4.73-6.11-10.28,2.65-5.75,8.15-9.67,14.45-10.28h125.06l12.78-30.85h-125.61c-26.12,0-52.24,11.4-60.3,30.85M1179.91,896.17l40.85-98.66h-89.76c-64.47-.24-122.64,38.68-147.01,98.38l-46.69,112.83h38.08l44.19-106.44c16.95-40.85,53.91-73.92,112.83-73.92h37.79l-23.9,57.8c-3.59,7.85-11.13,13.16-19.73,13.9h-87.82l-12.79,30.57h105.32c18.9,0,38.08-8.62,48.64-34.46" style="fill: #041e41;"/>
    <path d="M1265.5,973.7c-12.5,30.57-12.23,72.53,1.11,93.66l75.04,120.33,49.46-71.7-91.43-76.14c-9.72-7.78-12.5-26.96-6.11-41.96l234.55-566.37h-38.07l-151.74,366.28h-45.02l-12.78,30.85h45.3l-60.3,145.07Z" style="fill: #041e41;"/>
    <path d="M1422.52,876.16c-7.35.52-13.84,4.99-16.95,11.67-2.78,6.67.56,12.23,6.95,12.23h58.08c9.28-.32,17.73-5.48,22.23-13.62l6.11-15.01c-7.34,2.97-15.16,4.57-23.07,4.73h-53.36ZM855.87,876.16c-7.35.52-13.84,4.99-16.95,11.67-2.77,6.67.28,12.23,6.95,12.23h58.08c9.21-.32,17.57-5.5,21.96-13.62l6.39-15.01c-7.34,2.97-15.15,4.57-23.07,4.73h-53.36Z" style="fill: #fff;"/>
  </g>
</svg>