<?xml version="1.0" encoding="UTF-8"?>
<svg id="Layer_1" data-name="Layer 1" xmlns="http://www.w3.org/2000/svg" xmlns:xlink="http://www.w3.org/1999/xlink" viewBox="0 0 2400 1600">
  <defs>
    <clipPath id="clippath">
      <rect x="589.46" y="330.16" width="1262.97" height="947.23" style="fill: none;"/>
    </clipPath>
  </defs>
  <rect width="2400" height="1600" style="fill: #011e41;"/>
  <g>
    <path d="M1220.96,922.32s25.61,142.63,26.4,148.66c8.87,6.38,12.27,14.76,13.34,20.34,58.8,19.2,90.61,93.39,97.68,139.68,6.03,3.74,17.36,12.82,22.84,31.12,0,0,68.06-119.58,121.39-157.63,16.6-11.85,38.12-29.39,65.18-47.16,58.63-38.46,190.41-125.06,192.35-253.2.14-9.08-.49-18.5-1.7-28.03,42.9-61.02,60.71-105.62,62.06-160.33.66-27.58-5.16-63.66-5.16-63.66-2.32,6.03-4.61,11.57-7.66,18.16-10.15,22.21-45.77,62.23-115.35,111.27,63.9-56.48,141.27-145.61,143.32-245.37.69-34.3-7.73-56.76-17.12-90.68,0,0-20.34,118.96-229.15,227.28-67.57,35.03-129.01,71.35-168.24,110.51-36.11,36.14-61.16,93.91-87.63,196.54-16.53-39.19-45.19-107.91-49.79-118.96,1.94-.97,3.4-1.7,4.44-2.29,1.94-.45,9.91-5.86,29.04,12.75,8.32-10.6,16.91-33.09,17.08-47.2.07-9.46-2.95-39.81-41.13-45.43-6-8.42-22.32-23.36-74.74-23.56-6.24,0-60.81-.87-67.23,40.26-.45,3.12-44.49,177.18-44.49,177.18-36.49-102.6-49.72-153.09-85.83-189.23-39.23-39.16-100.7-75.51-168.24-110.51-208.95-108.43-229.26-227.39-229.26-227.39-9.39,33.92-17.81,56.38-17.12,90.69,2.04,99.76,79.42,188.89,143.32,245.37-69.58-49.03-105.2-89.05-115.39-111.27-2.98-6.55-5.3-12.13-7.62-18.16,0,0-5.86,36.07-5.16,63.65,1.32,54.72,19.16,99.28,62.06,160.34-1.21,9.56-1.84,18.95-1.7,28.03,1.94,128.14,133.69,214.74,192.35,253.2,27.06,17.78,48.58,35.35,65.18,47.16,53.33,38.05,121.38,157.63,121.38,157.63,5.48-18.3,16.81-27.38,22.8-31.12,7.1-46.29,38.91-120.48,97.68-139.68,1.14-5.58,4.51-13.97,13.38-20.34.76-6.03,26.4-148.66,26.4-148.66" style="fill: #011e41; stroke: #fff; stroke-miterlimit: 10; stroke-width: 35.28px;"/>
    <g style="clip-path: url(#clippath);">
      <path d="M1223.07,926.96s25.61,142.63,26.4,148.66c8.87,6.38,12.27,14.76,13.34,20.34,58.8,19.2,90.61,93.39,97.68,139.68,6.03,3.74,17.36,12.82,22.84,31.12,0,0,68.06-119.58,121.39-157.63,16.6-11.85,38.12-29.39,65.18-47.16,58.63-38.46,190.41-125.06,192.35-253.2.14-9.08-.49-18.5-1.7-28.03,42.9-61.02,60.71-105.62,62.06-160.33.66-27.58-5.16-63.66-5.16-63.66-2.32,6.03-4.61,11.57-7.66,18.16-10.15,22.21-45.77,62.23-115.35,111.27,63.9-56.48,141.27-145.61,143.32-245.37.69-34.3-7.73-56.76-17.12-90.68,0,0-20.34,118.96-229.15,227.28-67.57,35.03-129.01,71.35-168.24,110.51-36.11,36.14-61.16,93.91-87.63,196.54-16.53-39.19-45.19-107.91-49.79-118.96,1.94-.97,3.4-1.7,4.44-2.29,1.94-.45,9.91-5.86,29.04,12.75,8.32-10.6,16.91-33.09,17.08-47.2.07-9.46-2.95-39.81-41.13-45.43-6-8.42-22.32-23.36-74.74-23.56-6.24,0-60.81-.87-67.23,40.26-.45,3.12-44.49,177.18-44.49,177.18-36.49-102.6-49.72-153.09-85.83-189.23-39.23-39.16-100.7-75.51-168.24-110.51-208.95-108.43-229.26-227.39-229.26-227.39-9.39,33.92-17.81,56.38-17.12,90.69,2.04,99.76,79.42,188.89,143.32,245.37-69.58-49.03-105.2-89.05-115.39-111.27-2.98-6.55-5.3-12.13-7.62-18.16,0,0-5.86,36.07-5.16,63.65,1.32,54.72,19.16,99.28,62.06,160.34-1.21,9.56-1.84,18.95-1.7,28.03,1.94,128.14,133.69,214.74,192.35,253.2,27.06,17.78,48.58,35.35,65.18,47.16,53.33,38.05,121.38,157.63,121.38,157.63,5.48-18.3,16.81-27.38,22.8-31.12,7.1-46.29,38.91-120.48,97.68-139.68,1.14-5.58,4.51-13.97,13.38-20.34.76-6.03,26.4-148.66,26.4-148.66" style="fill: #011e41;"/>
      <path d="M1111.14,948.34l107.14-159.88,120.24,156.35-76.03-188.33,22.9-11.44c5.79-1.25,12.65-3.71,29,8.56,9.88-35.41,1.73-52.12-31.36-52.98-.31-14.94-29.32-19.27-31.33-19.82-8.32-1.87-29-2.46-31.74-2.49,0,0-44.84-1.52-49,24.67l-59.84,245.44v-.07Z" style="fill: #fff;"/>
      <path d="M1234.5,707.82s2.01,6.13,9.91,7.87c9.01,2.08,16.08-5.68,16.08-5.68-26.37-12.65-51.84-7.86-51.84-7.86,7.35.73,25.85,5.68,25.85,5.68" style="fill: #011e41;"/>
      <path d="M796.67,692.67l-71.42-175.13c-47.54-32.33-84.41-66.57-99.45-104.16,3.88,126,84.59,212.62,170.8,279.29M781.74,692.47l18.61,45.67c-72.8-42.1-139.58-86.73-160.19-138.05,4.99,161.82,148.24,254,249.53,323.82l-61.05-149.8c108.25,60.92,217.3,118.85,258.68,180.61-19.79-30.74-42-60.4-68.33-87.01-50.9-50.35-145.74-104.58-237.19-175.24M899.66,948.37c-79.56-44.08-175.82-88.6-198.94-143.8,2.91,85.17,56.69,142.66,114.66,188.37,58.77,46.3,122.5,79.25,144.64,103.71l-42.45-104.27c50.77,29.97,97.09,59.71,130.26,89.92-10.67-12.68-79.77-96.09-148.14-133.93" style="fill: #ce0e2d;"/>
      <path d="M1820.33,413.41c-15.04,37.6-51.94,71.8-99.42,104.13l-71.42,175.17c86.25-66.64,166.95-153.3,170.84-279.3M1427.23,867.7c-26.34,26.61-48.58,56.24-68.37,87.01,41.37-61.78,150.42-119.69,258.68-180.64l-61.06,149.8c101.29-69.79,244.54-161.96,249.53-323.79-20.58,51.28-87.39,95.95-160.2,138.05l18.61-45.71c-91.41,70.66-186.32,124.92-237.16,175.27M1398.27,1082.3c33.16-30.25,79.46-59.95,130.26-89.92l-42.45,104.23c22.14-24.43,85.83-57.38,144.64-103.68,57.97-45.71,111.75-103.19,114.7-188.37-23.15,55.17-119.41,99.73-198.97,143.81-68.37,37.84-137.46,121.25-148.14,133.93" style="fill: #ce0e2d;"/>
    </g>
  </g>
</svg>