<?xml version="1.0" encoding="UTF-8"?>
<svg id="Layer_1" data-name="Layer 1" xmlns="http://www.w3.org/2000/svg" viewBox="0 0 2400 1600">
  <rect width="2400" height="1600"/>
  <path d="M664.34,1126.69c-19.43-.94-36.95-7.15-53.12-16.37-11.3-6.45-15.75-18.59-13.09-30.72,3.84-17.54,13.69-32.45,24.75-46.85,3.47-4.53,5.35-8.33,2.38-14.34-6.61-13.36-1.61-26.85,2.44-39.92,14.37-46.41,48.32-79.88,89.58-108.38,6.92-4.78,14.11-9.25,23.15-15.16-35.18-1.1-60.6-15.89-79.7-38.41-28.1-33.13-24.42-69.78-7.96-105.75,16.9-36.94,49.26-60.78,88.76-77.18,43.43-18.04,89.86-27.92,135.81-38.81,98.45-23.33,198.17-42.23,295.78-68.53,191.7-51.65,377.18-117.08,553.43-202.74,41.51-20.17,80.29-44.56,119.77-67.81,3.46-2.04,6.99-3.97,12.31-6.98-3.73,24.79-13.97,44.83-30.55,62.55-13.07,13.97-27.15,27.03-42.99,38.4-5.91,4.24-9.54,9.06-11.73,15.49-13.65,40.1-28.08,79.96-47.84,121.72,14.75-8.18,26.52-14.71,39.95-22.16-2.82,23.74-10.61,43.71-26.39,60.82-9.17,9.94-19.11,19.53-30.99,26.67-16.98,10.2-28.3,23.9-38.36,39.59-24.2,37.72-49.53,74.87-81.19,109.43,11.69-1.25,18.95-10.3,32.43-12.91-10.65,23.56-25,41.97-44.31,57.47-31.8,25.55-65.87,48.49-100.67,70.55-50.97,32.33-102.29,64.18-158.54,88.92-3.42,1.5-6.65,3.01-8.53,6.37-17,30.28-45.49,50.6-76.28,68.02-25.95,14.68-48.94,31.63-68.36,52.98-40.57,44.6-96.48,68.84-153.28,91.59-19.6,7.85-39.36,15.61-59.67,21.77-41.72,12.66-72.74,37.27-98.67,68.14-3.3,3.93-6.62,7.87-10.24,11.55-9.02,9.18-12.9,19.07-11.72,31.96,1.84,20.08-7.43,36.74-25.37,49.42-5.57,3.93-9.92,9.23-15.06,13.69-20.29,17.61-68.4,24.77-84.86-9.15-2.61-5.39-3.64-8.82,5.43-10.69,16.43-3.38,24.67-24.18,15.14-36.95-8.01-10.75-19.54-17.64-33.62-20.78-8.58-1.91-14.6.71-15.06,8.98-.44,7.8-5.12,7.16-11.04,6.06-27.74-5.12-45.43-23.53-45.32-47.29.11-25.28,18.48-44.87,47.62-49.69,9.67-1.6,18.16-4.1,26.38-9.32,10.89-6.91,23.69-9.44,37.28-7.7,3.68.47,7.68.66,11.22-.14,8.65-1.97,18.38-1.89,24.53,2.33,16.38,11.23,23.09.23,31.51-8.74,27.04-28.81,47.52-61.57,69.75-93.28.59-.84.53-2.04.87-3.49-15.89.53-29.68,5.79-43.23,12.02-7.56,3.48-6.44,10.27-7.91,15.79-8.18,30.83-28.73,49.83-63.85,55.35-2.46.39-5.02.24-7.53.34-7.5-1.48-15.01-1.35-22.52-.06-9.34.81-18.68,1.63-28.02,2.44-10.9-1.27-21.81-1.43-32.73-.12" style="fill: #256192;"/>
  <path d="M664.34,1126.69c10.92-3.21,21.83-3.38,32.73.12-10.92,1.7-21.83,1.43-32.73-.12" style="fill: #256394;"/>
  <path d="M725.09,1124.36c7.52-3.02,15.02-3.11,22.52.06-7.51.98-15.01,1.09-22.52-.06" style="fill: #24679a;"/>
  <path d="M759.93,1156.82c4.58,2.56,10.74,3.38,13.62,7.77,8.42,12.82,14.34,6.31,21.24-1.39,35.98-40.12,69.38-81.89,100.15-125.38,5.34-7.55,5.16-10.42-5.72-11.91-27.87-3.83-52.14,4.5-75.73,16.15-3.73,1.84-4.54,4.98-5.53,8.42-1.98,6.95-4.32,13.85-7.08,20.58-12.01,29.3-34.33,41.9-70.36,39.29,5.54-15.92,1.82-30.87-5.21-45.72-3.34-7.05-6.09-6.33-11.48-2.03-16.05,12.81-19.81,26.35-9.01,43.04,5.38,8.32-.65,8.05-5.8,9.67-9.64,2.25-19.27,2.41-28.89-.11-14.65-3.19-29.58-5.33-42.9-12.51-13.34-7.19-16.22-12.64-11.99-26.2,5-16.01,16.14-29.04,25.76-42.79,3.35-4.79,5.19-8.38,1.86-15.05-5.82-11.63-3.13-24.5.65-36.75,12.56-40.79,43.69-69.36,78.3-95.39,27.28-20.52,58.61-35.33,91.57-49.26-9.24-6.11-18.24-7.03-28.09-5.01-16.5,3.38-33.22,4.91-50.17,4.01-40.93-2.17-71.07-29.87-73.44-66.89-3.6-56.1,27.7-93.51,79.57-119.21,39.91-19.77,84.39-27.89,128.17-37.25,111.33-23.79,223.3-45.29,332.54-76.44,137.05-39.07,270.24-87.05,400.95-140.71,76.37-31.35,150.85-65.8,219.17-110.14,1.33-.86,2.9-1.43,5.07-2.48.82,5.74-3.67,8.54-6.55,11.83-14.39,16.48-31.18,30.86-49.5,43.71-5.21,3.65-8.69,7.71-10.83,13.36-22.1,58.44-45.7,116.36-73.28,172.92-.29.6-.04,1.42-.04,3.32,18.2-9.15,34.35-19.94,51.11-30.23-2.84,7.79-7.43,14.37-13.51,20.06-5.84,5.46-11.2,11.67-18.05,15.88-28.94,17.8-47.08,43.15-65.21,69.39-35.82,51.84-75.69,101.22-119.84,148.8,17.99-9.41,35.98-18.83,53.97-28.24-9.54,13.63-22.92,23.18-36.24,32.59-73.33,51.85-150.12,99.06-232.29,138.97-6.89,3.35-12.11,7.24-15.6,13.93-8.82,16.88-23.71,29.24-39.95,40.36-5.36,3.67-10.47,7.78-16.27,10.79-36.92,19.12-67.12,45.06-95.15,73.58-43.54,44.29-100.57,70.36-161.52,87.64-55.53,15.74-101.95,40.66-137.35,82.13-3.85,4.51-8.07,8.76-12.17,13.08-10.3,10.86-17.61,21.42-13.45,37.67,4.7,18.38-1.94,35.1-20.33,46.88-5.71,3.66-9.74,9.39-14.89,13.84-17.28,14.93-45.02,15.58-59.26,1.71-5.37-5.23-7.59-8.83,2.81-11.31,11.92-2.85,19.08-8.29,17.24-21.87-1.19-8.81,3.27-18.27-4.45-26.27-9.33-9.67-16.79-21.53-32.83-23.62-5.17-.68-9.67-2.52-13.73-5.36-10.1-7.07-16.56-5.34-20.47,5.53-4.43,12.29-8.03,13.43-20.19,6.03-12.47-7.59-16.78-18.57-15.35-31.59,1.62-14.72,9.38-27.02,24.8-31.73,17.77-5.43,36.57-7.57,52.77-17.53,5.82-3.58,14.43-3.62,22.05-.81,4.11,1.52,8.3.73,11.87-1.89,4.85-1.93,9.67-2.14,14.47.13" style="fill: #030303;"/>
  <path d="M670.13,1115.19c9.63.04,19.26.07,28.89.11,1.64.21,3.29.43,4.93.64.03.57.05,1.15.08,1.72-12.21,0-24.42.13-36.6-.29-.84-.03,1.46-1.65,2.7-2.18" style="fill: #266598;"/>
  <path d="M730.25,838.62h26.93c-8.94,2.3-17.92,1.86-26.93,0" style="fill: #266598;"/>
  <path d="M759.93,1156.82c-4.82-.04-9.65-.09-14.47-.13,4.25-5.36,9.85-1.47,14.85-1.71.07,0,.29.62.23.92-.07.33-.39.61-.6.92" style="fill: #29679b;"/>
  <path d="M1491.42,646.77c-65.39,28.45-133.05,52.03-200.89,75.17-94.15,32.11-189.34,61.52-285.12,89.48-46.42,13.55-85.35,37.31-109.96,76.86-1.02,1.65-1.99,3.32-2.92,5.01-.09.17.25.53.85,1.71,19.8-10.42,40.76-18.26,63.98-22.1-25.73,21.2-49.67,43.44-64.6,75.37,21.17-7,38-18.86,60.45-20.98-17.54,19.26-34.26,37.83-46.86,59.81,9.24,1.8,14.33-7.33,24.23-5.17-5.14,8.56-9.99,16.61-14.82,24.68-1.47,2.45-2.99,4.34-6.82,3.58-35.13-6.97-68.34-2.27-100.99,15.21,3.86-12.45-13.24-28.49,13.47-33.34-23.54-3.26-44.35,1.98-65.2,6.54-16.01,3.51-30.87,9.74-45.32,16.75-4.55,2.2-8.45,3.68-13.97.97-8.72-4.27-18.72-5.09-28.28-2.95-7.92,1.77-9.75-1.25-9.95-7.14-.3-8.84,2.14-17.21,5.23-25.5,9.24-24.84,24.95-45.63,47.5-62.95,2.15,5.48-1.41,10.42,2.09,16.59,16.42-31.2,41.84-53,76.35-67.15.36,7.44-5.66,13.2-3.77,20.37,52.99-50.2,124.23-67.24,193.98-85.67,145.79-38.52,290.56-79.6,431.9-129.96,24.93-8.89,49.69-18.17,74.52-27.27,2.81-1.56,5-1.91,4.92,2.08" style="fill: #fff;"/>
  <path d="M844.11,732.43c2.89-4.56,8.16-4.18,12.22-5.35,34.88-10.01,69.8-19.9,104.86-29.37,8.03-2.17,14.39-5.55,19.74-11.32,9.99-10.76,20.74-20.96,30.57-31.83,5.63-6.24,8.04-5.17,11.96,1.42,13.57,22.82,13.8,22.67,41.16,14.83,17.23-4.94,34.51-9.77,51.79-14.58.67-.18,1.57.33,4.47,1.02-19.06,14.05-37.05,27.5-55.26,40.7-21.78,15.78-21.84,15.68-10.41,38.38,3.76,7.46,7.35,14.99,11.71,23.92-22.1-3.43-42.42-6.12-62.48-9.88-9.79-1.84-17.68-.5-26.13,4.27-25.93,14.66-52.32,28.66-80.67,41.08,13.83-17.87,27.67-35.75,42.54-54.96-33.36-2.89-64.51-5.6-96.05-8.33" style="fill: #ad7d5a;"/>
  <path d="M1058.41,955.14c14.38-22.1,28.24-43.38,43.25-66.44-27.21-1.56-52.82-3.03-78.44-4.51-.1-.7-.21-1.41-.31-2.11,33.78-10.76,67.49-21.75,101.41-32.14,8.41-2.58,14.54-6.22,19.25-13.23,10.17-15.14,21.3-29.75,33-45.9,4.96,9.94,9.7,17.98,12.98,26.48,2.68,6.97,6.26,7.38,13.02,4.63,21.36-8.66,42.94-16.89,65.14-25.55,1.11,4.78-2.12,6.35-4.2,8.3-14.89,13.92-29.56,28.06-44.93,41.54-6.16,5.4-6.94,9.91-3.39,16.85,5.76,11.28,10.19,23.11,15.81,36.17-22.88-1.57-44.52-2.51-65.98-4.77-9.84-1.03-16.62,1.91-23.89,7.13-23.05,16.53-46.52,32.57-69.99,48.61-3.09,2.11-5.73,5.58-12.74,4.94" style="fill: #ad7d5a;"/>
  <path d="M1187.24,637.54c30.31-10.08,60.54-20.39,90.99-30.1,7.98-2.55,13.77-6.47,18.6-12.6,11.33-14.39,23.17-28.46,35.63-43.66,5.65,8.94,10.73,16.26,14.98,23.95,3.39,6.15,7.22,6.74,14.02,4.02,19.19-7.69,38.7-14.75,58.14-21.91,2.78-1.02,5.53-3.78,9.91-.67-17.36,14.39-34.17,28.94-51.78,42.67-8.25,6.43-8.93,12.23-3.89,20.52,5.4,8.86,9.34,18.44,14.78,29.43-17.67-.21-33.69.99-49.66-1.91,5.77-2.73,11.51-1.4,17.27-1.18-11.4.03-22.77-1.37-34.21.75-12.09-1.42-21.6,3.17-31.17,9.35-27.32,17.63-55.15,34.62-85.14,50.18,14.8-20.07,29.61-40.13,44.64-60.49-7.66-3.79-15.76.14-22.52-3.28,4.15-2.71,8.96-.56,12.89-1.43-12.91.08-26.27.05-39.63.01-4.98-.01-10.17.43-13.85-3.65" style="fill: #ad7d5a;"/>
  <path d="M1536.94,453.31c-57.13,25.68-116.91,45.76-175.94,67.42-127.58,46.81-257.38,87.58-391.67,116.12-44.12,9.37-88.96,15.87-132.45,27.78-44.1,12.09-86.6,26.73-122.63,57.18,1.73-9.16,6.99-14.28,11.59-19.59,20.38-23.54,49.99-33.63,79.5-43.88,50.44-17.52,103.95-24.17,156.11-35.47,192.61-41.72,379.48-98.72,561.57-168.67,3.45-1.33,7.1-2.24,10.65-3.34,2.76-.98,3.51.2,3.26,2.45" style="fill: #fff;"/>
  <path d="M1472.3,536.41c25.16-11.28,50.17-22.82,75.55-33.7,9.49-4.07,16.74-9.14,21.55-17.88,6.31-11.47,14.02-22.32,21.55-34.11,2.91,2.96,5.25,5.08,7.27,7.43q14.98,17.37,36.93,6.64c12.16-5.93,24.39-11.76,37.07-17.86,1.57,4.36-2.11,5.84-4.07,7.75-12.88,12.5-25.69,25.08-39.05,37.16-4.96,4.49-5.75,8.14-2.65,13.83,4.96,9.12,8.87,18.7,13.72,29.18-15.94,1.73-30.74-.26-45.47-1.47-10.28-.85-18.04,1.47-25.97,8.04-23.82,19.72-48.63,38.47-75.22,56.33,11.07-17.85,22.14-35.69,34.1-54.99-19.33-1.37-37.01-2.63-54.7-3.89-.2-.82-.4-1.64-.6-2.46" style="fill: #ad7d5a;"/>
  <path d="M1414.64,704.38c1.45,1.46,2.04,2,2.57,2.58,6.06,6.69,9.59,18.35,17.89,19.36,7.99.97,17.17-6.66,25.98-10.2,8.14-3.27,15.33-8.78,28.12-9.97-14.25,13.81-26.08,25.92-38.76,37.26-5.39,4.82-6.29,8.82-3.01,14.76,3.55,6.41,5.78,13.41,9.24,19.87,3.9,7.27.55,8.52-6.71,7.78-12.12-1.24-24.35-1.77-36.36-3.58-6.62-1-11.03.57-15.84,4.36-23.61,18.6-47.49,36.91-72.95,54.17,9.03-14.76,17.86-29.62,27.2-44.23,3.87-6.05,3.35-8.28-5.06-8.89-13.71-.99-27.33-3.03-42.76-4.83,8.7-6.39,17.95-8.82,26.38-12.5,17.39-7.62,36.1-13.33,52.18-22.71,16.6-9.68,19.07-29.6,31.88-43.24" style="fill: #ad7d5a;"/>
  <path d="M816.03,1168.04v18.5c9.9-.23,16.5-8.05,27.8-7.8-12.2,16.65-25.46,30.63-38.77,44.47-5.98,6.22-7,12.17-5.51,19.73,2.56,12.97,5.9,26.17-2.75,38.54-3.8,5.44-7.38,10.62-14.79,2.76-5.06-5.37-12.51-6.27-19.8-4.53-10.77,2.57-8.31-3.79-6.08-7.84,6.2-11.22,17.41-9.7,29.56-7.75-8.27-9.07-11.77-19.93-17.39-29.28-6.51-10.82-3.49-21.14-4.74-34.07-8.99,10.55-17.19,16.29-29.23,9.89-3.82-2.03-6.46-3.99-.42-6.92,9.18-4.44,11.22-12.65,12.85-21.03,1.98-10.17,7.9-12.12,16.91-5.78,4.97,3.5,6.27,8.67,8.32,13.66,4.48,10.93,7.87,11.41,16.02,2.89,8.43-8.81,16.87-17.61,25.3-26.41.9.32,1.8.65,2.71.97" style="fill: #ad7d5a;"/>
  <path d="M1230.81,928.86c-61.64,33.45-126.31,60.77-195.41,79.51-44.53,12.07-89.51,23.56-127.09,50.08-.5.35-1.58.04-2.39.03,4.73-13.06,19.28-28.02,35.96-36.64,17.52-9.06,36.01-16.28,55.46-21.13,77.7-19.39,153.03-44.64,226.98-73.37,1.14-.44,2.43-.57,3.65-.84,2.82-1.03,3.24.28,2.84,2.37" style="fill: #fff;"/>
  <path d="M720.63,1036.26c-11.7,9.69-24.55,18.28-32.7,31.13-6.25,9.85-11.06,19.59-5.58,32.55-16.48-.62-30.75-3.91-43.74-11.27-7.29-4.13-5.85-10.35-3.4-16.21,6.94-16.62,18.79-30.3,32.65-42.64,6.48-5.78,15.19-4.76,21-.95,10.83,7.12,19.48,4.46,28.63-1.57,5.75,1.64,3.01,5.71,3.15,8.95" style="fill: #ad7d5a;"/>
  <path d="M720.63,1036.26c-3.87-2.18.54-6.72-3.15-8.95,19.65-11.4,41.58-17.65,63.96-22.91,6.09-1.43,9.07-.1,10.05,6.12,4.01,25.22-.72,48.79-14.77,70.91-2.81,4.42-6.97,7.78-11.51,10.21-4.75,2.54-10.06,7.69-15.45,4.86-2.53-1.33-1.3-8.11-2.2-12.34-1.47-6.94-3.29-13.82-4.96-20.73-1.39-2.55-2.23-4.86,2.55-4.7,2.72,7.79,6.27,15.43,7.93,23.39,1.96,9.42,6,6.26,10.28,2.08,10.7-10.47,14.47-23.73,16.68-37.19,1.46-8.9.97-18.07,1.38-27.11.24-5.32-2.01-8.1-8.22-6.07-18.31,5.98-37.43,10.46-52.58,22.44" style="fill: #ad7d5a;"/>
  <path d="M697.46,1213.51c-8.25-8.74-8.36-18.45-.33-28.26,7.78-9.51,23.1-15.39,31.74-12.09,3.27,1.25,6.03,3.18,4.92,6.87-1.6,5.31-2.09,11.02-9.79,13.13-18.67,5.13-19.73,6.21-26.54,20.35" style="fill: #fbf9f9;"/>
  <path d="M761.56,1075.63c-2.19-12.52-5.68-22.29-11.9-30.8-4.67-6.39-4.07-9.86,3.92-12.42,5.79-1.85,12.14-7.79,17.11-4.77,5.57,3.38,2.59,11.2,1.84,16.89-1.31,9.96-3.69,19.85-10.97,31.1" style="fill: #c72030;"/>
  <path d="M656.17,1228.16c-9.42-7.91-10.69-15.96-6.55-24.71,4.32-9.12,12.9-13.54,23.35-15.4,2.02-.36,5.12-.7,4.35,1.99-1.34,4.7,3.18,11.14-4.26,14.05-10.89,4.26-15.29,12.27-16.89,24.07" style="fill: #f7f5f5;"/>
  <path d="M737.45,1312.67c10.18-4.4,16.91-9.41,20.1-18,2.61-7.04,9.92-5.03,14.69-2.95,4.86,2.12,8.08,6.12,3.3,11.97-8.93,10.92-21.87,14.74-38.08,8.98" style="fill: #f7f8f9;"/>
  <path d="M1187.24,637.54c20.02,5.32,40.72.92,61.03,5.07h-20.43c-18.31,0-36.61,0-54.92,0-.16-.65-.32-1.3-.48-1.95,4.94-1.04,9.87-2.08,14.81-3.12" style="fill: #b1805c;"/>
  <path d="M1491.42,646.77c-1.64-.69-3.28-1.39-4.92-2.08,12.66-5.19,25.32-10.39,37.98-15.58,1.2.31,2.06.96,2.6,1.98-11.22,6.46-23.2,11.52-35.66,15.69" style="fill: #d5d5d5;"/>
  <path d="M1536.94,453.31c-1.09-.82-2.17-1.64-3.26-2.45,8.12-4.78,17.21-7.62,26.24-10.57,1.12.47,2.52.62,2.75,2.05-7.94,4.87-16.72,8.13-25.73,10.97" style="fill: #d5d5d3;"/>
  <path d="M745.16,1058.73c-2.01,1.06-2.44,2.81-2.55,4.7-3.46-6.14-6.91-12.29-10.37-18.43,8.58,2.13,10.62,8.01,12.92,13.73" style="fill: #ae7c5a;"/>
  <path d="M1322.03,646.85c11.55-4.62,23.44-1.08,35.24-.44-6.1.29-12.2.57-18.29.86-5.65-.14-11.3-.28-16.94-.42" style="fill: #b4815e;"/>
  <path d="M1640.83,408.45c-6.7,4.15-13.28,8.54-24.69,9.04,9.12-5.78,16.66-9.02,24.55-11.68.71.56.96,1.14.77,1.74-.2.61-.41.91-.63.91" style="fill: #e0e0e1;"/>
  <path d="M1571.11,438.31c3.87-7.23,11.83-7.6,19.06-9.22l-.26,1.1c-5.31,4.67-11.8,7.07-19.06,7.99l.26.13Z" style="fill: #ddddde;"/>
  <path d="M1597.95,424.51c4.59-1.98,9.17-3.95,13.76-5.93-1.86,5.61-6.72,6.41-11.13,7.86-2.63,1.29-2.87-.05-2.63-1.93" style="fill: #f4f4f4;"/>
  <path d="M1230.81,928.86l-2.84-2.37c3.66-2.89,7.84-4.56,15.04-5.7-4.27,5.09-8.17,6.66-12.2,8.08" style="fill: #bbb8b8;"/>
  <path d="M1544.8,620.14c4.56-1.99,9.12-3.97,13.69-5.96-2.19,5.04-6.6,6.49-11.03,7.91-2.66,1.3-2.88-.07-2.65-1.95" style="fill: #ecedeb;"/>
  <path d="M1597.95,424.51c.88.64,1.75,1.29,2.63,1.93-2.9,2.77-6.42,4.08-10.67,3.74-.27-.43-.18-.8.26-1.1,1.04-3.67,4.88-3.48,7.78-4.57" style="fill: #c1bfbf;"/>
  <path d="M1562.67,442.35c-.92-.68-1.83-1.37-2.75-2.05,3.45-1.84,6.87-3.83,11.17-2,.02.01-.31-.18-.27-.15-2.25,2.12-4.57,4.15-8.15,4.2" style="fill: #fff;"/>
  <path d="M1574.64,610.28c-.65-1.12-1.62-2.5-1.49-2.59,1.5-1.03,3.06-2.15,4.82-2.67,2.48-.74,2.69,1.74,2.07,2.36-1.24,1.24-3.27,1.83-5.4,2.91" style="fill: #9d9c9c;"/>
  <path d="M1544.8,620.14c.89.65,1.77,1.3,2.65,1.95-1.99,2.51-5.14,3.07-8.11,3.91-1.2-.27-2.03-.94-2.54-1.94,2.67-1.31,5.33-2.62,8-3.92" style="fill: #c1bfbf;"/>
  <path d="M1661.21,397.67c-4.26,4.04-6.24,6.24-10.18,4.18,1.34-3.78,4.24-4.18,10.18-4.18" style="fill: #b2b2b3;"/>
  <path d="M1536.8,624.06c.85.65,1.69,1.29,2.54,1.94-2.46.91-4.92,1.82-7.38,2.73-.66-.51-.88-1.03-.67-1.54.21-.52.43-.78.64-.78,1.03-1.77,2.88-2.18,4.87-2.34" style="fill: #fbf9f9;"/>
  <path d="M1531.93,626.41c0,.78.02,1.55.02,2.32-1.62.79-3.25,1.57-4.87,2.36-.87-.66-1.73-1.32-2.6-1.98,2.48-.9,4.96-1.8,7.44-2.7" style="fill: #fff;"/>
  <path d="M1640.89,408.45c-.05-.88-.09-1.76-.14-2.65,1.78-1.65,3.7-2.94,6.53-1.93-.22,3.69-3.56,3.86-6.39,4.58" style="fill: #f4f4f4;"/>
  <path d="M781.19,957.78c-6.14.81-8.56,1.15-10.99,1.44-7.87.93-14.91,1.5-10.27,12.07,2.87,6.54-.44,13.46-5.82,18.84-8.71,8.7-43.85,13.89-57.01,7.82,24.16-2.43,24.61-21.16,30.13-35.1,3.82-9.63,8.52-12.23,18.76-11.06,10.68,1.22,21.42,1.87,35.19,5.99" style="fill: #0b0a09;"/>
  <path d="M673.24,1065.11c-4.15-9.11-.48-22.22,6.49-27.28,4.19-3.04,7.02-.43,9.82,1.53,3.71,2.6.72,4.5-1.44,6.14-6.72,5.12-11.6,11.44-14.88,19.6" style="fill: #20170e;"/>
  <path d="M747.94,969.66c5.2,13.22-.92,19.39-18.94,16.9,7.94-3.72,19.69-3.08,16.59-14.42.55-1,.75-2.28,2.35-2.47" style="fill: #9e7252;"/>
  <path d="M747.94,969.66c-.78.82-1.56,1.65-2.35,2.47-2.32-1.89-4.64-3.78-7.3-5.96,5.44-2.1,7.79.23,9.65,3.48" style="fill: #b1805c;"/>
  <rect x="597.39" y="248.76" width="1261.23" height="1086.78" style="fill: none;"/>
</svg>