<?xml version="1.0" encoding="UTF-8"?>
<svg id="Layer_1" data-name="Layer 1" xmlns="http://www.w3.org/2000/svg" viewBox="0 0 2400 1600">
  <rect width="2400" height="1600"/>
  <polygon points="0 1600 2400 330.54 2400 702.09 685.45 1600 0 1600" style="fill: #ad7d5a;"/>
  <polygon points="77.8 1600 2400 371.69 2400 664.26 613.22 1600 77.8 1600" style="fill: #256192;"/>
  <path d="M1048.25,1253.35c-2.1.16-4.23.24-5.48,2.35-3.08,8.82,1.34,18.26-2.24,27.04-21.38,9.2-39.72,24.74-63.03,30.07-3.04.69-5.45,4.16-8.12,6.39-16.01,13.36-33.92,22.69-54.85,25.35-28.85,3.66-49.98-19.3-40-46.21,15.68-42.3,43.51-73.64,88.91-86.33,11.54-3.22,18.47-15.4,32.69-17.28,0,13.3,0,26.51,0,39.71,0,7.69-7.24,7.7-11.58,10.65-8.1,5.51-9.37-5.33-14.76-6.45-5.16-.23-10.33-.13-15.5-.05-17.27,4.26-25.25,15.91-25.76,33.06-.38,12.62-.17,25.25-.32,37.88-.1,8.13,3.36,8.41,9.69,5.17,14.45-7.41,26.74-17.52,32.22-32.79,4.95-13.78,15.6-18.54,28.09-24,.32,5.99.59,11.05.99,18.79,2.36-4.59,3.91-7.12,5.03-9.83,12.79-30.95,25.72-61.85,38.12-92.96,2.77-6.94,6.83-11.3,13.32-14.96,6.55-3.7,9.66-2.29,13.62,3.35,12.01,17.1,24.45,33.91,36.95,50.65,2.04,2.73,3.05,7.92,8.67,5.75,4.98-1.92,7.43-4.95,7.32-10.77-.35-18.26-.13-36.53-.13-54.62-5.34-2.41-8.21,3.67-12.68,2.28-3.67-14.6-.23-24.55,15.33-31.41,22.25-9.81,43.23-22.49,64.88-33.7,8.9-4.61,18.12-8.6,28.35-9.32,7.66-.54,18.26,3.54,16.65-11.22-.15-1.36,3.46-3.53,5.66-4.69,68.08-36.08,136.21-72.07,204.34-108.04.68-.36,1.64-.2,3.57-.38,1.19,15.45,2.37,30.86,3.82,49.69,9.18-22.14,17.22-41.55,25.29-60.94,1.33-3.2,2.25-6.82,4.38-9.4,8.4-10.16,17.15-9.47,25.27,1.46,12.45,16.74,24.99,33.42,37.5,50.13,4.79,1.48,4.97-1.85,4.99-4.98.09-15.11-.07-30.21.1-45.31.05-4.76-1.53-7.42-6.54-7.39-7.38-6.26-7.47-21.05.45-25.36,24.4-13.28,49.06-26.09,73.66-39.11,7.31,16.5-.22,26-13.62,32.97,1.94,15.73.29,31.53.93,47.28.18,4.41-1.88,9.68,3.82,12.47,13.48-4.91,23.32-14.67,27.87-27.44,5-14.05,14.09-21.94,27.02-27.3,5.55-2.3,10.64-5.7,16.14-8.71-17.42-13.09-20.35-26.36-9.88-45.16,7.32-13.13,17.24-24.57,30.36-31.54,20.25-10.75,41.49-19.65,62.3-29.33,3.25,13.59,2.88,27.2.14,40.81-1.48,2.33-7.16,3.92-1.71,7.56,5.44,3.62,6.84,9.66,9.71,14.83,2.41,4.76,2.69,9.49-.16,14.19-12.09,35.52-37.39,56.58-73.04,65.75-8.1,2.08-10.57,10-17.04,13.43-63.78,33.76-127.55,67.53-191.35,101.24-.63.33-1.65-.08-3.3-.22v-21.71c-9.51-.48-9.42,5.36-8.35,11.12,2.49,13.29-3.69,19.89-15.35,25.75-36.12,18.14-71.5,37.76-107.38,56.39-3.79,1.96-10.13,9.25-12.45,2.88-2.29-6.3-5.48-16.23,3.67-22.31,3.16-2.1,7.45-2.64,9.34-6.57-.61-15.63.04-31.27-.38-46.9-.1-3.67,1.99-9.74-5.85-8.42-6.99,5.23-9.22,13.25-12.14,20.84-1.53,3.98-1.97,8.68-6.44,10.69-5.79,2.6-13.07,10.38-16.75,7.23-5.57-4.76.62-14.33-1.38-21.89-4.36-1.06-7.15,1.68-10.03,4.22-2.13,17.45-.37,34.97-1,52.45-.17,4.73,1.71,7.27,6.51,7.48,2.41.67,5.48-4.43,7.37.9,3.44,9.72-.88,20.76-10.31,25.77-22.91,12.17-45.85,24.27-70.1,37.1.3-12.19-5.46-24.28,9.95-29.72,4.09-1.45,3.49-5.55,3.44-9.01-.16-9.98-.36-19.96-.55-29.94-2.36-4.41-.57-9.16-1.19-13.58-.26,1.76.46,3.95-1.47,5.39-7.46,23.62-26.07,37.06-45.36,50.04-8.18,5.51-17.98,8.41-24.98,15.75,2.3,4.51-1.23,14.94,10.27,10.09,9.3,5.94,8.06,21.41-2.41,27.03-30.26,16.24-60.64,32.26-90.91,48.46-13,6.96-25.87,14.15-38.8,21.24-6.27-7.12.61-16.45-4.03-23.85" style="fill: #fff;"/>
  <path d="M1244.48,1104.58c-.14-2.12-.54-4.27-.36-6.36.3-3.57-5.74-9.31,1.2-10.17,4.32-.53,2.06,6.1,2.28,9.44.34,5.06-.26,10.19-.46,15.29-2.95-2.06-2.37-5.27-2.66-8.19" style="fill: #266092;"/>
  <path d="M1184.41,1180.47c-3.39,1.26-5.97,7.39-9.15,4.81-4.43-3.6-2.17-9.75-1.12-14.9,2.6,4.2,3.85,9.77,10.27,10.09" style="fill: #235e8f;"/>
  <path d="M992.06,1290.38c8.78-2.4,13.3-8.71,16.56-16.8,12.45-30.93,25.2-61.74,37.86-92.59,2.76-6.73,4.45-15.51,13.21-15.94,7.43-.36,9.12,8.27,12.91,13.12,9.87,12.63,19.62,25.43,28.35,38.85,5.95,9.15,11.68,12.95,21.22,5.27,1.59-1.28,3.93-1.64,5.92-2.42,1.04-.6,2.52-.71,2.51-2.44-.2-25.29,1.71-50.62-1.05-75.88-5.29-1.74-8.46,4.04-13.49,3.83-3.21-5.71-.11-8.87,4.55-11.3,26.61-13.88,53.24-27.75,79.89-41.56,2.3-1.19,4.8-2.16,7.31-2.79,9.24-2.29,19.74-6.7,26.63,2.73,7.47,10.24,1.02,20.16-5.47,28.45-14.02,17.89-33.4,28.91-52.99,39.53-7.95,4.31-14.09,26.54-9.23,34.07,3,4.65,5.88,0,8.79-.65,2.62-.59,5.42-4.88,7.78-.82,2,3.46-.13,6.64-3.67,8.5-2.31,1.21-4.63,2.41-6.94,3.64-34.96,18.6-69.87,37.3-104.98,55.61-3.06,1.6-7.14,7.85-10.61,2.16-2.74-4.51,1.85-7.64,6.15-9.59,4.12-1.87,7.69-3.54,3.9-9.53-3.44-5.44-6.55-6.05-11.45-2.63-12.63,8.81-31.67,10.09-34.82,30.18.81.26,2.07.38,3,1,3.76,2.53,8.43-6.59,10.87.08,2.5,6.82-4.43,8.62-8.95,10.58-16.93,7.33-31.05,20.72-50.39,23.07-2.88.35-5.3,4.27-7.97,6.49-17.08,14.19-35.65,25.22-58.68,25.43-22.36.2-35.67-16.31-28.05-37.43,14.63-40.58,41.08-70.73,84.3-81.81,8.23-2.11,10.96-9.52,18.14-11.22,7.68,8.76,2.34,18.95,3.15,28.46-2.29,2.7-4.53,3.14-7.86,1.12-18.75-11.4-45.65-3.68-52.42,16.26-7.1,20.94-5.83,42.91-3.02,64.59.94,7.27,5.99,7.37,11.76,5.05,19.02-7.64,32.92-20.73,42.14-38.96,1.9-3.76,2.09-8.56,6.31-11.01,4.91,0,6.21,2.73,6.42,7.26.15,3.37-2.26,7.67,2.41,10.05" style="fill: #ad7d5a;"/>
  <path d="M1544.22,1000c10.98-3.4,15.27-9.96,14.49-22.19-1.3-20.36-.35-40.86-.35-60.44-4.83-4.69-9.72,6.24-12.6-.71-2.8-6.75,4.45-8.33,8.78-10.67,16.86-9.09,33.81-18.04,50.8-26.88,2.25-1.17,5.19-4.97,7.41-.45,1.39,2.83.47,6.79-2.9,7.71-17.58,4.79-14.45,18.72-14.41,31.41.05,15.24.31,30.49-.11,45.73-.23,8.16,2.16,8.45,8.85,5.24,19.25-9.22,34.18-22.31,41.6-42.86,1.97-5.46,4.51-10.37,12.6-10.45-.44,9.61-1.05,19.02-1.25,28.44-.13,6.34-4.31,8.91-9.1,11.44-49.28,26.04-98.5,52.19-147.84,78.09-2.29,1.2-5.67,6.46-8.31.7-1.63-3.55.59-6.72,4.36-8.25,6.88-2.8,10.2-6.58,4.01-13.34-1.53-1.67-3.07-3.58-5.38-2.01-14.7,10.02-37.15,11.23-39.86,36.23,4.76-1.93,9.21-3.73,13.67-5.53-7.17,19.46-27.8,20.26-41.29,31.6-3.83-6.44-1.84-9.97,3.21-12.32,7.81-3.63,10.93-10.61,13.94-18.05,12.88-31.86,25.92-63.66,39.1-95.4,4.71-11.33,9.57-13.03,16.83-6.61-.88,3.48,1.7,6.47,1.41,9.85-1.18,2.55-.62,4.83,1.21,6.89,2.78,3.34,5.22,6.92,7.79,10.39,2.08,2.62,4.24,5.18,6.09,7.99,3.01,4.46,5.83,9.03,9.41,13.04,2.42,3.89,6.21,5.92,10.33,7.52,2.4,1.52,4.47,3.66,7.53,3.91" style="fill: #ad7d5a;"/>
  <path d="M1666.84,943.39c.57-10.19,1.32-20.12,1.59-30.07.15-5.46,3.85-7.35,7.8-9.32,4.67-2.34,6.02,1.79,8.13,4.25,3.66,4.25,8.21,6.16,13.81,6.13,14.59-.07,40.4-18.17,45.25-31.9.88-2.47,1.96-5.16.37-7.52-2.18-3.25-5.4-1.9-8.28-1.01-12.88,3.99-25.7,8.19-38.62,12.03-8.21,2.44-16.91,3.63-22.91-4.01-5.98-7.61-4.67-16.62-.83-24.79,10.39-22.13,28.16-36.33,50.88-44.07,7.83-2.67,15.98-3.62,21.69-10.63,1.42-1.74,4.83-3.25,6.87-2.8,4.13.9,2.03,5.01,2.24,7.71.34,4.33-.13,8.72.15,13.06.31,4.9-1.23,8.13-5.93,10.35-5.33,2.51-5.49-2.52-7.59-4.55-5.07-4.88-11.27-4.84-17.18-3.31-13.1,3.39-23.44,11.25-31.6,21.91-1.76,2.3-4.17,5.37-1.93,8.23,2.18,2.79,5.77,1.38,8.58.46,11.17-3.67,22.14-8.01,33.42-11.25,8.69-2.5,18.58-5.83,25.82,2.18,7.57,8.37,5.72,19,1.94,28.46-10.23,25.58-30.39,41.18-55.43,50.09-10,3.56-19.47,6.17-26.33,15-2.46,3.17-6.66,5.57-11.93,5.37" style="fill: #ad7d5a;"/>
  <path d="M1318.32,1064.85c.66-9.95,1.5-19.9,1.88-29.86.19-4.91,3.48-6.55,6.98-8.41,35.8-18.97,71.66-37.82,107.31-57.07,7.44-4.02,8.87-1.58,8.83,5.49-.03,6.96.52,13.93.86,20.89.18,3.59-1.71,5.7-4.85,6.87-3.29,1.22-4.86-1.13-6.09-3.4-5.07-9.43-12.03-10.53-21.97-7.3-10.5,3.41-10.95,10.32-10.78,19.18.38,20.87.12,41.75.12,62.38,1.62.48,2.41.92,3.19.92,4.23-.04,8.68-8.05,11.81-2.17,3.27,6.15-4.31,8.31-8.68,10.67-16.86,9.11-33.78,18.12-50.83,26.89-2.57,1.32-5.92,5.88-8.74,1.19-1.98-3.3.03-7.25,3.87-8.34,11.56-3.26,11.68-11.76,11.45-21.49-.49-20.4-.15-40.81-.15-61.62-25.37,5.61-26.37,32.52-40.94,46.95-1.09-.59-2.19-1.18-3.29-1.77" style="fill: #ad7d5a;"/>
  <path d="M1306.46,1037.28c3.59,8.84-1.63,11.02-6.38,13.26-5.02,2.36-8.39,5.07-8.28,11.62.39,23.02.15,46.06.15,68.99,5.96,1.77,9.13-3.62,14.21-3.93,4.47,6,.36,8.81-4.46,11.37-18.05,9.6-36.08,19.25-54.19,28.72-2,1.04-4.68,4.13-6.7,1.12-2.2-3.27-1.03-7.54,2.73-8.66,12.52-3.74,11.16-13.49,11.08-23.06-.15-17.84-.04-35.68-.05-53.52,0-4.18.38-8.43-6.24-5.24-2.34,1.12-5.88,5.84-8.07.09-1.45-3.81,1.32-6.37,4.73-8.18,20.36-10.73,40.68-21.54,61.49-32.57" style="fill: #ad7d5a;"/>
  <path d="M1737.72,880.26c-9.3,14.64-20.59,21.98-33.95,26.74-5.4,1.93-10.38,1.76-14.23-2.72-1.89-2.2-4-5.34-3.84-7.92.26-4.27,4.7-2.55,7.35-2.92,14.6-2.04,27.72-9.13,44.68-13.18" style="fill: #2b6494;"/>
  <path d="M1544.22,1000c-3.44.62-6.34-.93-9.29-2.28-4.28-2.12-6.75-6.02-9.49-9.65-3.78-3.66-5.88-8.57-9.29-12.5-1.83-2.86-4.62-4.97-6.28-7.96-2.12-3.91-5.25-7.11-7.66-10.82-1.11-1.89-2.66-3.7-1.14-6.08-3.71-3.22-5.02-6.59-.62-10.31,14.59,19.87,29.18,39.73,43.77,59.6" style="fill: #ac7c59;"/>
  <path d="M1706.7,843.88c5.43-10.58,14.07-14.59,24.23-15.49,2.57-.23,5.52.84,5.76,3.85.2,2.53-2.5,2.96-4.58,3.6-8.49,2.62-16.94,5.35-25.4,8.04" style="fill: #376999;"/>
  <path d="M1129.55,1141.56c5.15,8,2.1,16.87,2.43,25.31.56,13.89.25,27.82.09,41.73-.05,4.09,1.5,8.99-3.98,11.27,2.89-26.06.2-52.22,1.46-78.31" style="fill: #aa7651;"/>
  <path d="M986.32,1236.04c-3.47-9.22,2.6-19.5-3.15-28.46,1.72-.89,4.9-3.36,5.02-.36.39,9.6,3.45,19.55-1.86,28.82" style="fill: #aa7653;"/>
  <path d="M992.06,1290.38c-7.48-3.46-.3-14.38-8.83-17.31,4.35-3.18,8.57-6.14,8.52,3.07-.03,4.74.2,9.49.31,14.23" style="fill: #aa7854;"/>
  <path d="M1197.34,1130.79c-6.16,12.55-17.26,18.59-29.71,23.58-5.12-32.94,2.18-44.49,28.78-46.63,4.29,7.52,2.78,15.28.93,23.05" style="fill: #efeeed;"/>
  <path d="M1031.76,1243.44c4.72-11.62,8.41-20.7,12.16-29.93,17.34,14.84,16.6,16.95-12.16,29.93" style="fill: #f2ece9;"/>
  <path d="M912.83,1277.65v36.97c-8.75-12.86-5.41-26.16-2.88-39.43,2.44-.92,3.38-.08,2.88,2.45" style="fill: #efe6e0;"/>
  <path d="M1079.92,1206.72c3.42,4.44,6.85,8.88,10.27,13.31-.23,1.67-1.13,2.74-2.79,3.14-3.33-4.57-6.66-9.15-9.99-13.72.68-1.05.89-2.54,2.51-2.74" style="fill: #e8dbd1;"/>
  <path d="M1197.34,1130.79c-.31-7.68-.62-15.37-.93-23.05,7.29,6.88,2.83,15.33,3.05,23.15,0,.14-.66.42-.99.4-.39-.03-.76-.32-1.14-.49" style="fill: #a9744f;"/>
  <path d="M1087.4,1223.17c.93-1.05,1.86-2.09,2.79-3.14,2.7,2.86,5.69,5.54,6.58,9.95-6.36,1.23-7.2-3.64-9.36-6.81" style="fill: #eadfd6;"/>
  <path d="M1071.9,1201.83c-2.63-3.47-5.27-6.94-7.9-10.41-1.17-2.82.23-3.22,2.57-2.73,2.55,3.5,5.09,7,7.63,10.5-.37,1.23-1.13,2.11-2.3,2.64" style="fill: #efe5de;"/>
  <path d="M1071.9,1201.83c.77-.88,1.54-1.76,2.3-2.64,1.91,2.51,3.81,5.02,5.72,7.53-.84.91-1.68,1.82-2.51,2.74-1.84-2.54-3.67-5.08-5.51-7.62" style="fill: #f7f1ee;"/>
  <path d="M1066.57,1188.69c-.86.91-1.71,1.82-2.57,2.73-2.11-1.95-5.8-4.8-3.25-6.94,3.52-2.95,4.28,2.06,5.82,4.21" style="fill: #e3d3c8;"/>
  <path d="M1218.65,1126.65c-1.58-7.73,1.97-8.44,3.3-11.97,2.93,5.64-.95,6.64-3.3,11.97" style="fill: #e8dbd2;"/>
  <path d="M912.84,1277.65c-.96-.82-1.92-1.63-2.88-2.45.04-1.99.07-5.14,2.57-4.26,3.86,1.36,2.12,4.34.3,6.71" style="fill: #c4a188;"/>
  <path d="M1479.65,983.21c2.81,3.72,4.46,5.23,5.28,7.12,1.74,4.03,8.66,7.46,4.78,11.84-3.72,4.21-10.01,6.64-15.61,8.56-4.25,1.46-4.91-1.85-3.49-5.36,2.71-6.68,5.44-13.36,9.03-22.16" style="fill: #f4f2f1;"/>
  <path d="M1582.59,904.02c.66-.32,1.34-.36,2.04-.12,4.39,5.32,2.93,11.72,2.64,17.59-.84,16.83,2.75,33.85-2.1,50.5-.83.59-1.65,1.17-2.48,1.76-3.05-2.52-3.04-6.05-3.06-9.52-.09-16.88-.08-33.76,0-50.64.02-3.48.05-6.99,2.97-9.58" style="fill: #fffffb;"/>
  <path d="M1587.45,903.63c4.16,22.67,4.45,45.34-.03,68.01-2.11-22.67-2.14-45.34.03-68.01" style="fill: #aa7852;"/>
  <path d="M1582.59,904.02c.03,23.25.06,46.49.1,69.74-1.01.16-2.02.32-3.03.48-1.96-23.53-2.89-47.04.48-70.53.82.05,1.64.16,2.45.32" style="fill: #c7a68e;"/>
  <path d="M1580.14,903.7c-.16,23.51-.32,47.02-.48,70.53-5.89-15.85-1.79-32.27-2.42-48.4-.29-7.27-3.47-15.52,2.91-22.14" style="fill: #ac7955;"/>
  <path d="M1587.45,903.63c0,22.67-.02,45.34-.03,68.01-.74.2-1.49.31-2.26.35-.18-22.7-.36-45.4-.54-68.09.94-.09,1.88-.18,2.82-.27" style="fill: #d6bdac;"/>
  <path d="M1516.89,974.02c3.42,4.44,6.83,8.89,10.25,13.33-.22,1.64-1.11,2.69-2.74,3.07-3.34-4.55-6.68-9.1-10.02-13.65.68-1.06.89-2.55,2.51-2.75" style="fill: #e8dbd1;"/>
  <path d="M1524.4,990.41c.92-1.02,1.83-2.04,2.74-3.07,2.6,3.46,5.19,6.91,7.78,10.37-6.33,1.62-8.27-3.08-10.53-7.31" style="fill: #eadfd6;"/>
  <path d="M1503.66,955.95c2.54,3.51,5.08,7.02,7.63,10.53-.43,1.22-1.24,2.1-2.41,2.63-2.65-3.44-5.29-6.89-7.94-10.33-1.06-2.84.25-3.4,2.73-2.83" style="fill: #eaddd5;"/>
  <path d="M1508.87,969.11c.81-.88,1.61-1.76,2.41-2.63,1.87,2.51,3.74,5.03,5.61,7.54-.84.91-1.68,1.83-2.51,2.74-1.84-2.55-3.67-5.1-5.51-7.65" style="fill: #f7f1ee;"/>
  <path d="M1503.66,955.95c-.91.94-1.82,1.89-2.73,2.83-1.37-2.71-9.12-5.53.14-8.07.86,1.75,1.73,3.49,2.59,5.24" style="fill: #e3d3c7;"/>
  <path d="M1715.48,863.98c-8.9,6.63-19.15,7.74-30.39,5.22,10.2-2.31,20.4-4.61,30.6-6.91-.07.56-.14,1.13-.21,1.69" style="fill: #eaddd5;"/>
  <path d="M1738.5,853.44c2.32-.67,4.61-1.7,6.97-1.92,2.3-.21,5.98-.22,5.23,3.13-.56,2.49-4.17,1.62-6.58,1.44-1.61-1.44-4.6.05-5.62-2.65" style="fill: #d6bdac;"/>
  <path d="M1738.5,853.44c1.87.88,3.75,1.76,5.62,2.65-4.47.77-8.94,1.54-13.86,2.39.46-6.66,5.48-3.82,8.24-5.03" style="fill: #e3d3c8;"/>
  <path d="M1715.48,863.98c.04-.57.11-1.13.21-1.69,2.16-3.72,5.8-4.16,10.62-4.68-2.12,5.94-6.42,6.24-10.83,6.38" style="fill: #e5d8ce;"/>
  <path d="M1397.11,1073.18v-71.84c.31,0,.61-.01.92-.02v71.84c-.31,0-.61.01-.92.02" style="fill: #aa7651;"/>
  <path d="M1383.33,1078.82c-5.84-16.68-1.57-33.89-2.38-50.83-.31-6.47-2.9-13.78,2.62-19.69,2.79,3.08,3.38,6.86,3.42,10.8.17,16.33.19,32.66-.01,49-.05,3.97-.82,7.69-3.64,10.72" style="fill: #ac7955;"/>
  <path d="M1383.33,1078.82c.08-23.51.15-47.01.23-70.51.96.08,1.93.16,2.89.24,6.39,12.76,2.69,26.4,2.98,39.6.22,10.12,3.06,20.85-3.11,30.44-1,.08-1.99.16-2.99.23" style="fill: #bc9376;"/>
  <path d="M1386.32,1078.58c.04-23.34.08-46.69.13-70.04.62-.13,1.23-.11,1.83.09,6.07,12.73,2.3,26.23,2.6,39.33.23,10.01,3.16,20.6-2.72,30.18-.55.42-1.16.56-1.84.44" style="fill: #fff;"/>
  <path d="M1388.17,1078.15c.04-23.17.08-46.34.12-69.51.95-.14,1.91-.27,2.86-.41,1.5,23.53,3.43,47.06-.97,70.51-.68-.14-1.35-.33-2-.59" style="fill: #d4bba8;"/>
  <path d="M1390.17,1078.73c2.28-23.48.44-47.01.97-70.51,6.02,17.24,1.45,35.01,2.4,52.5.32,5.91,3.25,13.09-3.38,18.01" style="fill: #a9744f;"/>
  <path d="M1285.53,1133.6c-1.79-.18-4.2.56-4-2.64,1.9-21.66,1.56-43.32.2-64.99.38-2.82,2.55-2.73,4.61-2.82,1.92,23.51,3.46,47.01-.8,70.45" style="fill: #e8d9ce;"/>
  <path d="M1285.53,1133.6c2.14-23.46.64-46.97.8-70.45,6.08,15.43,1.97,31.48,2.5,47.22.26,7.64,3.76,16.39-3.3,23.23" style="fill: #a9744f;"/>
  <path d="M1281.72,1065.97c3.39,21.67,3.89,43.34-.2,64.99.06-21.66.13-43.33.2-64.99" style="fill: #f7f5f2;"/>
  <path d="M1449.19,1007.1c-2.17-1.67-4.31,0-5.81,1.18-8.08,6.36-12.72,4.05-15.67-5.27-1.97-6.23-6.94-6.78-12.68-5.25-5.78,1.54-8.47,4.49-8.32,10.97.41,18.15.14,36.32.14,56.94,11.22-6.59,23.37-8.3,28.8-19.3,5.15-10.44,9.05-21.5,13.4-32.33.9-2.23,3.02-4.72.14-6.94" style="fill: #256192;"/>
  <path d="M1174.35,1142.65c-3.59-13.02-1.63-23.1,13.81-26.02,3.3,16.62,1.84,19.38-13.81,26.02" style="fill: #246193;"/>
</svg>