<svg width="366" height="221" viewBox="0 0 366 221" fill="none" xmlns="http://www.w3.org/2000/svg">
<rect width="366" height="220" transform="translate(0 0.678711)" fill="#2D71F6"/>
<path d="M32.1833 144.679L32.4713 143.143L34.1033 143.047C36.8873 142.855 37.9433 142.567 37.9433 141.415V115.687C37.9433 109.735 37.2713 108.871 33.9113 108.007L31.8953 107.527L31.9913 106.375L49.0793 101.671L48.8873 109.639H49.1753C53.6873 105.895 59.2553 101.575 65.4953 101.575C68.5673 101.575 71.1593 102.631 73.1753 104.647C75.4793 106.951 76.4393 110.983 76.4393 115.399V141.415C76.4393 142.087 76.7273 142.567 81.0473 143.047L82.3913 143.143L82.6793 144.679H60.0233L60.3113 143.143L62.0393 143.047C65.2073 142.855 65.4953 142.183 65.4953 141.415V118.183C65.4953 111.079 62.5193 108.871 57.4313 108.871C53.8793 108.871 50.9993 110.311 48.9833 111.751V141.511C48.9833 142.375 49.4633 142.759 53.0153 143.047L54.8393 143.143L55.0313 144.679H32.1833Z" fill="white"/>
<path d="M112.683 95.1431C108.363 95.1431 105.867 91.5911 105.867 88.3271C105.867 84.9671 108.363 81.5111 112.683 81.5111C117.195 81.5111 119.595 84.9671 119.595 88.3271C119.595 91.5911 117.195 95.1431 112.683 95.1431ZM102.123 144.679L102.411 143.143L104.043 143.047C106.827 142.855 107.883 142.567 107.883 141.415V115.591C107.883 109.735 107.211 108.871 103.851 108.007L101.835 107.527L101.931 106.375L118.923 101.671V141.511C118.923 142.375 119.499 142.663 123.435 143.047L124.779 143.143L125.067 144.679H102.123Z" fill="white"/>
<path d="M145.431 144.679L145.719 143.143L147.351 143.047C150.135 142.855 150.903 142.567 150.903 141.415V92.4551C150.903 87.8471 150.327 86.9831 147.735 86.2151L144.855 85.1591L144.951 84.0071L162.039 79.4951V141.511C162.039 142.375 162.711 142.663 166.167 143.047L167.703 143.143L167.991 144.679H145.431Z" fill="white"/>
<path d="M187.507 144.679L187.795 143.143L189.427 143.047C192.211 142.855 193.171 142.567 193.171 141.415V91.3031C193.171 87.8471 192.595 86.9831 190.099 86.2151L187.027 85.1591L187.219 84.0071L204.307 79.4951V109.543L204.499 109.639C209.011 105.895 214.579 101.575 220.723 101.575C223.795 101.575 226.387 102.631 228.499 104.647C230.803 107.047 231.667 110.983 231.667 115.399V141.415C231.667 142.087 232.051 142.567 236.371 143.047L237.715 143.143L238.003 144.679H215.251L215.539 143.143L217.363 143.047C220.531 142.855 220.723 142.183 220.723 141.415V117.991C220.723 111.079 217.843 108.871 212.755 108.871C209.203 108.871 206.227 110.311 204.211 111.751V141.511C204.211 142.375 204.787 142.759 208.339 143.047L210.067 143.143L210.355 144.679H187.507Z" fill="white"/>
<path d="M257.277 144.679L257.565 143.143L259.197 143.047C261.981 142.855 263.037 142.567 263.037 141.415V115.687C263.037 109.735 262.365 108.871 259.005 108.007L256.989 107.527L257.085 106.375L274.173 101.671L273.981 109.639H274.269C278.397 105.799 283.485 101.575 289.629 101.575C292.797 101.575 295.389 102.727 297.405 104.647C298.653 105.991 299.517 107.719 299.997 109.831L300.285 109.927C304.701 105.607 309.981 101.575 316.125 101.575C319.293 101.575 321.789 102.631 323.901 104.647C326.109 106.951 327.069 111.079 327.069 116.839V141.415C327.069 142.087 327.261 142.567 331.677 143.047L333.021 143.143L333.309 144.679H310.557L310.845 143.143L312.669 143.047C315.837 142.855 316.125 142.183 316.125 141.415V118.183C316.125 111.175 313.341 108.871 308.157 108.871C305.085 108.871 301.725 110.407 300.669 112.231C300.669 112.327 300.573 115.687 300.573 115.879V141.511C300.573 142.279 300.861 142.567 304.797 143.047L306.333 143.143L306.621 144.679H284.157L284.445 143.143L286.173 143.047C289.149 142.855 289.629 142.183 289.629 141.415V118.183C289.629 111.175 286.845 108.871 281.757 108.871C278.589 108.871 276.093 110.215 274.077 111.655V141.511C274.077 142.375 274.461 142.759 278.205 143.047L279.837 143.143L280.125 144.679H257.277Z" fill="white"/>
</svg>
