<svg width="256" height="57" viewBox="0 0 256 57" fill="none" xmlns="http://www.w3.org/2000/svg">
<g clip-path="url(#clip0_1631_6078)">
<path d="M26.0887 12.1883V55.352H11.7692V12.1883H0V0H37.858V12.1883H26.0887V12.1883Z" fill="white"/>
<path d="M61.1681 17.6937H74.4675V55.352H61.1681V51.1694C58.3438 54.7403 54.5146 56.5295 49.6957 56.5295C46.9628 56.5295 44.4582 56.0248 42.1668 55.0232C39.8753 54.0215 37.8808 52.6146 36.1756 50.8024C34.4703 48.9902 33.1457 46.8645 32.1941 44.4177C31.2425 41.9708 30.7706 39.3023 30.7706 36.4196C30.7706 33.7281 31.2349 31.1742 32.1561 28.7503C33.0772 26.3264 34.3714 24.2084 36.0309 22.4038C37.6829 20.5916 39.6622 19.1618 41.9536 18.1066C44.245 17.0514 46.7801 16.5314 49.5511 16.5314C54.2253 16.5314 58.1002 18.1754 61.1681 21.448V17.7013V17.6937ZM44.5039 36.4119C44.5039 37.6354 44.7246 38.7747 45.1586 39.8222C45.6001 40.8774 46.1939 41.795 46.9475 42.5749C47.7012 43.3548 48.5995 43.9665 49.6501 44.41C50.7006 44.8535 51.8273 45.0676 53.0453 45.0676C54.2634 45.0676 55.3215 44.8459 56.3721 44.41C57.4226 43.9665 58.3209 43.3548 59.0746 42.5749C59.8282 41.795 60.4373 40.8851 60.9016 39.8605C61.366 38.8358 61.5944 37.7348 61.5944 36.5572C61.5944 35.3797 61.366 34.271 60.9016 33.2158C60.4373 32.1606 59.8282 31.243 59.0746 30.4631C58.3209 29.6832 57.415 29.0714 56.3721 28.628C55.3215 28.1845 54.2177 27.9704 53.0453 27.9704C51.873 27.9704 50.693 28.1921 49.6501 28.628C48.5995 29.0714 47.7012 29.6832 46.9475 30.4631C46.1939 31.243 45.5925 32.1376 45.1586 33.1393C44.717 34.141 44.5039 35.2344 44.5039 36.4043V36.4119Z" fill="white"/>
<path d="M95.882 28.7732V55.3443H82.6511V28.7732H78.2662V17.686H82.6511V6.38471H95.882V17.686H103.411V28.7732H95.882V28.7732Z" fill="white"/>
<path d="M124.239 28.7732V55.3443H111.008V28.7732H106.624V17.686H111.008V6.38471H124.239V17.686H131.768V28.7732H124.239V28.7732Z" fill="white"/>
<path d="M127.893 48.302C127.893 47.1245 128.114 46.0158 128.548 44.9606C128.99 43.9054 129.599 42.9878 130.375 42.2079C131.152 41.428 132.065 40.8162 133.116 40.3728C134.166 39.9293 135.27 39.7152 136.442 39.7152C137.615 39.7152 138.719 39.9369 139.769 40.3728C140.82 40.8162 141.733 41.428 142.51 42.2079C143.286 42.9878 143.895 43.9054 144.337 44.9606C144.778 46.0158 144.992 47.1245 144.992 48.302C144.992 49.4796 144.771 50.5883 144.337 51.6435C143.895 52.6987 143.286 53.6162 142.51 54.3962C141.733 55.1761 140.82 55.7878 139.769 56.2313C138.719 56.6748 137.615 56.8889 136.442 56.8889C135.27 56.8889 134.166 56.6671 133.116 56.2313C132.065 55.7878 131.152 55.1761 130.375 54.3962C129.599 53.6162 128.99 52.6987 128.548 51.6435C128.107 50.5883 127.893 49.4796 127.893 48.302V48.302Z" fill="white"/>
<path d="M146.674 36.1902C146.674 33.3993 147.23 30.7919 148.356 28.3756C149.475 25.9517 151.036 23.849 153.031 22.0597C155.025 20.2705 157.4 18.8636 160.156 17.8389C162.912 16.8143 165.919 16.2944 169.185 16.2944C172.451 16.2944 175.381 16.799 178.137 17.8007C180.885 18.8024 183.276 20.2017 185.301 21.9833C187.326 23.7725 188.894 25.8982 190.013 28.368C191.132 30.8378 191.695 33.5675 191.695 36.5496C191.695 39.5317 191.125 42.2614 189.975 44.7312C188.833 47.201 187.257 49.3343 185.263 51.1159C183.268 52.9051 180.863 54.2815 178.061 55.2602C175.26 56.2389 172.222 56.7283 168.964 56.7283C165.706 56.7283 162.775 56.2389 160.049 55.2602C157.324 54.2815 154.972 52.8898 153 51.0777C151.028 49.2655 149.483 47.1015 148.356 44.5783C147.237 42.055 146.674 39.2564 146.674 36.1749V36.1902ZM160.636 36.3355C160.636 37.6048 160.864 38.767 161.328 39.8222C161.793 40.8774 162.402 41.795 163.155 42.5749C163.909 43.3548 164.815 43.9665 165.858 44.41C166.909 44.8535 168.012 45.0676 169.185 45.0676C170.357 45.0676 171.461 44.8459 172.511 44.41C173.562 43.9665 174.46 43.3548 175.214 42.5749C175.968 41.795 176.577 40.8774 177.041 39.8222C177.505 38.767 177.734 37.6354 177.734 36.4119C177.734 35.1885 177.505 34.1257 177.041 33.0705C176.577 32.0153 175.968 31.0977 175.214 30.3178C174.46 29.5379 173.554 28.9262 172.511 28.4827C171.461 28.0392 170.357 27.8251 169.185 27.8251C168.012 27.8251 166.909 28.0468 165.858 28.4827C164.807 28.9262 163.909 29.5379 163.155 30.3178C162.402 31.0977 161.793 32.0076 161.328 33.0323C160.864 34.0569 160.636 35.1579 160.636 36.3355Z" fill="white"/>
<path d="M178.83 36.1902C178.83 33.3993 179.386 30.7919 180.512 28.3756C181.632 25.9517 183.192 23.849 185.187 22.0597C187.181 20.2705 189.556 18.8636 192.312 17.8389C195.068 16.8143 198.075 16.2944 201.341 16.2944C204.607 16.2944 207.538 16.799 210.293 17.8007C213.042 18.8024 215.432 20.2017 217.457 21.9833C219.482 23.7725 221.05 25.8982 222.169 28.368C223.288 30.8378 223.852 33.5675 223.852 36.5496C223.852 39.5317 223.281 42.2614 222.131 44.7312C220.989 47.201 219.413 49.3343 217.419 51.1159C215.424 52.9051 213.019 54.2815 210.217 55.2602C207.416 56.2389 204.378 56.7283 201.12 56.7283C197.862 56.7283 194.931 56.2389 192.206 55.2602C189.48 54.2815 187.128 52.8898 185.156 51.0777C183.184 49.2655 181.639 47.1015 180.512 44.5783C179.393 42.055 178.83 39.2564 178.83 36.1749V36.1902ZM192.792 36.3355C192.792 37.6048 193.02 38.767 193.484 39.8222C193.949 40.8774 194.558 41.795 195.312 42.5749C196.065 43.3548 196.971 43.9665 198.014 44.41C199.065 44.8535 200.168 45.0676 201.341 45.0676C202.513 45.0676 203.617 44.8459 204.668 44.41C205.718 43.9665 206.616 43.3548 207.37 42.5749C208.124 41.795 208.733 40.8774 209.197 39.8222C209.661 38.767 209.89 37.6354 209.89 36.4119C209.89 35.1885 209.661 34.1257 209.197 33.0705C208.733 32.0153 208.124 31.0977 207.37 30.3178C206.616 29.5379 205.71 28.9262 204.668 28.4827C203.617 28.0392 202.513 27.8251 201.341 27.8251C200.168 27.8251 199.065 28.0468 198.014 28.4827C196.963 28.9262 196.065 29.5379 195.312 30.3178C194.558 31.0977 193.949 32.0076 193.484 33.0323C193.02 34.0569 192.792 35.1579 192.792 36.3355Z" fill="white"/>
<path d="M210.986 36.1902C210.986 33.3993 211.542 30.7919 212.668 28.3756C213.788 25.9517 215.348 23.849 217.343 22.0597C219.337 20.2705 221.712 18.8636 224.468 17.8389C227.224 16.8143 230.231 16.2944 233.497 16.2944C236.763 16.2944 239.694 16.799 242.449 17.8007C245.198 18.8024 247.588 20.2017 249.613 21.9833C251.638 23.7725 253.206 25.8982 254.325 28.368C255.444 30.8378 256.008 33.5675 256.008 36.5496C256.008 39.5317 255.437 42.2614 254.287 44.7312C253.145 47.201 251.569 49.3343 249.575 51.1159C247.58 52.9051 245.175 54.2815 242.373 55.2602C239.572 56.2389 236.534 56.7283 233.276 56.7283C230.018 56.7283 227.087 56.2389 224.362 55.2602C221.636 54.2815 219.284 52.8898 217.312 51.0777C215.341 49.2655 213.795 47.1015 212.668 44.5783C211.549 42.055 210.986 39.2564 210.986 36.1749V36.1902ZM224.948 36.3355C224.948 37.6048 225.176 38.767 225.641 39.8222C226.105 40.8774 226.714 41.795 227.468 42.5749C228.221 43.3548 229.127 43.9665 230.17 44.41C231.221 44.8535 232.324 45.0676 233.497 45.0676C234.669 45.0676 235.773 44.8459 236.824 44.41C237.874 43.9665 238.772 43.3548 239.526 42.5749C240.28 41.795 240.889 40.8774 241.353 39.8222C241.818 38.767 242.046 37.6354 242.046 36.4119C242.046 35.1885 241.818 34.1257 241.353 33.0705C240.889 32.0153 240.28 31.0977 239.526 30.3178C238.772 29.5379 237.867 28.9262 236.824 28.4827C235.773 28.0392 234.669 27.8251 233.497 27.8251C232.324 27.8251 231.221 28.0468 230.17 28.4827C229.12 28.9262 228.221 29.5379 227.468 30.3178C226.714 31.0977 226.105 32.0076 225.641 33.0323C225.176 34.0569 224.948 35.1579 224.948 36.3355Z" fill="white"/>
</g>
<defs>
<clipPath id="clip0_1631_6078">
<rect width="256" height="56.8889" fill="white"/>
</clipPath>
</defs>
</svg>
