<svg width="400" height="544" viewBox="0 0 400 544" fill="none" xmlns="http://www.w3.org/2000/svg">
<rect width="240" height="240" rx="32" fill="#B787F3"/>
<rect y="304" width="240" height="240" rx="32" fill="#6416C7"/>
<path d="M102.767 215.85L102.903 215.171H101.8L102.171 213.335H101.473L101.097 215.171H99.5732L99.9492 213.335H99.2412L98.8701 215.171H97.8301L97.6982 215.85H98.7334L98.4111 217.432H97.3613L97.2246 218.11H98.2646L97.8838 220H98.5869L98.9727 218.11H100.496L100.11 220H100.813L101.194 218.11H102.293L102.425 217.432H101.331L101.658 215.85H102.767ZM99.4268 215.825H100.975L100.643 217.451H99.0898L99.4268 215.825ZM105.031 220H107.473C107.948 220 108.36 219.925 108.708 219.775C109.056 219.626 109.325 219.412 109.514 219.136C109.702 218.856 109.797 218.521 109.797 218.13C109.797 217.817 109.737 217.546 109.616 217.314C109.499 217.08 109.331 216.893 109.113 216.753C108.898 216.613 108.643 216.523 108.347 216.484V216.445C108.575 216.377 108.768 216.276 108.928 216.143C109.087 216.009 109.209 215.845 109.294 215.649C109.379 215.451 109.421 215.226 109.421 214.976C109.421 214.468 109.253 214.067 108.918 213.774C108.583 213.481 108.13 213.335 107.561 213.335H105.031V220ZM105.925 214.106H107.404C107.756 214.106 108.029 214.196 108.225 214.375C108.42 214.554 108.518 214.805 108.518 215.127C108.518 215.371 108.461 215.573 108.347 215.732C108.236 215.889 108.063 216.006 107.829 216.084C107.598 216.159 107.299 216.196 106.931 216.196H105.925V214.106ZM105.925 216.948H107.497C107.79 216.948 108.039 216.995 108.244 217.09C108.452 217.181 108.61 217.314 108.718 217.49C108.825 217.666 108.879 217.879 108.879 218.13C108.879 218.514 108.737 218.794 108.454 218.97C108.174 219.142 107.712 219.229 107.067 219.229H105.925V216.948ZM111.842 213.335V214.116H115.196V214.17L112.438 220H113.38L116.104 214.146V213.335H111.842ZM120.62 219.399C120.337 219.399 120.081 219.347 119.854 219.243C119.629 219.136 119.45 218.988 119.316 218.799C119.186 218.61 119.121 218.392 119.121 218.145C119.121 217.894 119.186 217.674 119.316 217.485C119.45 217.293 119.629 217.145 119.854 217.041C120.081 216.934 120.337 216.88 120.62 216.88C120.903 216.88 121.157 216.934 121.382 217.041C121.606 217.145 121.784 217.293 121.914 217.485C122.044 217.674 122.109 217.894 122.109 218.145C122.109 218.392 122.044 218.61 121.914 218.799C121.784 218.988 121.606 219.136 121.382 219.243C121.157 219.347 120.903 219.399 120.62 219.399ZM120.62 216.162C120.379 216.162 120.164 216.115 119.976 216.021C119.787 215.923 119.639 215.791 119.531 215.625C119.424 215.456 119.37 215.262 119.37 215.044C119.37 214.823 119.424 214.631 119.531 214.468C119.639 214.302 119.787 214.173 119.976 214.082C120.164 213.991 120.379 213.945 120.62 213.945C120.861 213.945 121.074 213.991 121.26 214.082C121.449 214.173 121.595 214.302 121.699 214.468C121.807 214.631 121.86 214.823 121.86 215.044C121.86 215.262 121.807 215.456 121.699 215.625C121.595 215.791 121.449 215.923 121.26 216.021C121.074 216.115 120.861 216.162 120.62 216.162ZM120.596 220.137C121.058 220.137 121.47 220.054 121.831 219.888C122.192 219.722 122.476 219.492 122.681 219.199C122.886 218.903 122.988 218.561 122.988 218.174C122.988 217.917 122.946 217.692 122.861 217.5C122.777 217.305 122.664 217.139 122.524 217.002C122.388 216.865 122.241 216.756 122.085 216.675C121.929 216.593 121.781 216.536 121.641 216.504V216.46C121.79 216.411 121.95 216.328 122.119 216.211C122.288 216.09 122.433 215.929 122.554 215.728C122.674 215.522 122.734 215.272 122.734 214.976C122.734 214.631 122.643 214.325 122.461 214.058C122.279 213.791 122.028 213.581 121.709 213.428C121.393 213.275 121.03 213.198 120.62 213.198C120.21 213.198 119.845 213.275 119.526 213.428C119.211 213.581 118.962 213.791 118.779 214.058C118.597 214.325 118.506 214.631 118.506 214.976C118.506 215.265 118.563 215.511 118.677 215.713C118.794 215.915 118.937 216.077 119.106 216.201C119.276 216.322 119.437 216.408 119.59 216.46V216.504C119.45 216.536 119.302 216.593 119.146 216.675C118.989 216.756 118.843 216.865 118.706 217.002C118.569 217.135 118.457 217.3 118.369 217.495C118.285 217.69 118.242 217.92 118.242 218.184C118.242 218.571 118.341 218.911 118.54 219.204C118.742 219.497 119.02 219.727 119.375 219.893C119.73 220.055 120.137 220.137 120.596 220.137ZM125.16 213.335V214.116H128.515V214.17L125.756 220H126.698L129.423 214.146V213.335H125.16ZM132.771 220V217.144H135.584V216.357H132.771V214.131H135.843V213.335H131.873V220H132.771ZM139.328 216.948H140.056C140.329 216.948 140.568 216.999 140.773 217.1C140.982 217.197 141.145 217.336 141.262 217.515C141.382 217.694 141.444 217.904 141.447 218.145C141.451 218.382 141.394 218.595 141.276 218.784C141.159 218.97 140.992 219.116 140.773 219.224C140.559 219.328 140.305 219.38 140.012 219.38C139.755 219.377 139.525 219.334 139.323 219.253C139.125 219.168 138.965 219.056 138.845 218.916C138.724 218.773 138.653 218.613 138.63 218.438H137.79C137.806 218.753 137.904 219.041 138.083 219.302C138.265 219.559 138.518 219.764 138.84 219.917C139.165 220.067 139.549 220.142 139.992 220.142C140.337 220.142 140.655 220.094 140.944 220C141.234 219.902 141.485 219.764 141.696 219.585C141.911 219.406 142.076 219.194 142.189 218.95C142.307 218.706 142.362 218.439 142.355 218.149C142.349 217.791 142.263 217.498 142.097 217.271C141.934 217.039 141.74 216.865 141.516 216.748C141.294 216.631 141.089 216.562 140.9 216.543V216.494C141.07 216.465 141.252 216.385 141.447 216.255C141.643 216.121 141.807 215.941 141.94 215.713C142.077 215.485 142.141 215.215 142.131 214.902C142.124 214.577 142.033 214.285 141.857 214.028C141.682 213.771 141.438 213.568 141.125 213.418C140.812 213.268 140.445 213.195 140.021 213.198C139.686 213.201 139.392 213.25 139.138 213.345C138.884 213.439 138.669 213.566 138.493 213.726C138.321 213.882 138.189 214.061 138.098 214.263C138.007 214.461 137.958 214.668 137.951 214.883H138.806C138.815 214.759 138.85 214.642 138.908 214.531C138.97 214.421 139.055 214.323 139.162 214.238C139.27 214.15 139.393 214.082 139.533 214.033C139.676 213.981 139.838 213.955 140.017 213.955C140.375 213.955 140.666 214.056 140.891 214.258C141.115 214.46 141.228 214.722 141.228 215.044C141.231 215.262 141.18 215.457 141.076 215.63C140.972 215.802 140.827 215.938 140.642 216.035C140.459 216.133 140.251 216.182 140.017 216.182H139.328V216.948Z" fill="white"/>
<path d="M102.645 519.85L102.781 519.171H101.678L102.049 517.335H101.351L100.975 519.171H99.4512L99.8271 517.335H99.1191L98.748 519.171H97.708L97.5762 519.85H98.6113L98.2891 521.432H97.2393L97.1025 522.11H98.1426L97.7617 524H98.4648L98.8506 522.11H100.374L99.9883 524H100.691L101.072 522.11H102.171L102.303 521.432H101.209L101.536 519.85H102.645ZM99.3047 519.825H100.853L100.521 521.451H98.9678L99.3047 519.825ZM109.221 518.717C109.208 518.531 109.152 518.351 109.055 518.175C108.957 517.996 108.82 517.835 108.645 517.691C108.472 517.545 108.26 517.428 108.01 517.34C107.762 517.252 107.482 517.208 107.17 517.208C106.874 517.208 106.597 517.255 106.34 517.35C106.083 517.444 105.85 517.587 105.642 517.779C105.437 517.968 105.259 518.211 105.109 518.507C104.963 518.8 104.849 519.148 104.768 519.552C104.689 519.955 104.65 520.414 104.65 520.929C104.65 521.43 104.694 521.861 104.782 522.223C104.87 522.581 104.991 522.883 105.144 523.131C105.3 523.382 105.48 523.582 105.686 523.731C105.894 523.878 106.115 523.982 106.35 524.044C106.584 524.106 106.822 524.137 107.062 524.137C107.502 524.137 107.894 524.047 108.239 523.868C108.588 523.689 108.861 523.429 109.06 523.087C109.261 522.742 109.362 522.325 109.362 521.837C109.362 521.375 109.26 520.986 109.055 520.67C108.85 520.354 108.588 520.115 108.269 519.952C107.953 519.789 107.621 519.708 107.272 519.708C106.95 519.708 106.674 519.76 106.442 519.864C106.211 519.965 106.026 520.092 105.886 520.245C105.746 520.398 105.643 520.553 105.578 520.709C105.578 520.709 105.57 520.709 105.554 520.709C105.537 520.709 105.529 520.709 105.529 520.709C105.529 520.338 105.555 520.006 105.607 519.713C105.66 519.417 105.734 519.161 105.832 518.946C105.93 518.728 106.044 518.548 106.174 518.404C106.307 518.258 106.455 518.15 106.618 518.082C106.781 518.01 106.955 517.975 107.141 517.975C107.391 517.975 107.6 518.015 107.766 518.097C107.932 518.178 108.06 518.276 108.151 518.39C108.243 518.504 108.299 518.613 108.322 518.717H109.221ZM105.651 521.881C105.651 521.604 105.712 521.36 105.832 521.148C105.956 520.934 106.125 520.766 106.34 520.646C106.555 520.522 106.799 520.46 107.072 520.46C107.313 520.46 107.539 520.512 107.751 520.616C107.963 520.717 108.137 520.873 108.273 521.085C108.41 521.297 108.479 521.565 108.479 521.891C108.479 522.226 108.415 522.504 108.288 522.726C108.161 522.944 107.99 523.106 107.775 523.214C107.564 523.318 107.328 523.37 107.067 523.37C106.813 523.37 106.579 523.312 106.364 523.194C106.149 523.077 105.977 522.908 105.847 522.687C105.716 522.465 105.651 522.197 105.651 521.881ZM114.254 517.335C113.782 518.087 113.307 518.839 112.828 519.591C112.35 520.34 111.902 521.091 111.485 521.847V522.633H114.723V524H115.582V522.633H116.446V521.852H115.582V517.335H114.254ZM112.374 521.852V521.808C112.722 521.196 113.095 520.571 113.492 519.933C113.893 519.295 114.286 518.686 114.674 518.106H114.723V521.852H112.374ZM121.113 524V517.335H120.225C119.961 517.53 119.696 517.726 119.429 517.921C119.165 518.116 118.901 518.313 118.638 518.512V519.415C118.81 519.288 118.981 519.163 119.15 519.039C119.323 518.915 119.494 518.792 119.663 518.668C119.836 518.544 120.008 518.421 120.181 518.297H120.225V524H121.113ZM128.656 518.717C128.643 518.531 128.588 518.351 128.49 518.175C128.393 517.996 128.256 517.835 128.08 517.691C127.908 517.545 127.696 517.428 127.445 517.34C127.198 517.252 126.918 517.208 126.605 517.208C126.309 517.208 126.033 517.255 125.775 517.35C125.518 517.444 125.285 517.587 125.077 517.779C124.872 517.968 124.695 518.211 124.545 518.507C124.398 518.8 124.285 519.148 124.203 519.552C124.125 519.955 124.086 520.414 124.086 520.929C124.086 521.43 124.13 521.861 124.218 522.223C124.306 522.581 124.426 522.883 124.579 523.131C124.735 523.382 124.916 523.582 125.121 523.731C125.329 523.878 125.551 523.982 125.785 524.044C126.02 524.106 126.257 524.137 126.498 524.137C126.938 524.137 127.33 524.047 127.675 523.868C128.023 523.689 128.297 523.429 128.495 523.087C128.697 522.742 128.798 522.325 128.798 521.837C128.798 521.375 128.695 520.986 128.49 520.67C128.285 520.354 128.023 520.115 127.704 519.952C127.388 519.789 127.056 519.708 126.708 519.708C126.386 519.708 126.109 519.76 125.878 519.864C125.647 519.965 125.461 520.092 125.321 520.245C125.181 520.398 125.079 520.553 125.014 520.709C125.014 520.709 125.006 520.709 124.989 520.709C124.973 520.709 124.965 520.709 124.965 520.709C124.965 520.338 124.991 520.006 125.043 519.713C125.095 519.417 125.17 519.161 125.268 518.946C125.365 518.728 125.479 518.548 125.609 518.404C125.743 518.258 125.891 518.15 126.054 518.082C126.216 518.01 126.391 517.975 126.576 517.975C126.827 517.975 127.035 518.015 127.201 518.097C127.367 518.178 127.496 518.276 127.587 518.39C127.678 518.504 127.735 518.613 127.758 518.717H128.656ZM125.087 521.881C125.087 521.604 125.147 521.36 125.268 521.148C125.391 520.934 125.561 520.766 125.775 520.646C125.99 520.522 126.234 520.46 126.508 520.46C126.749 520.46 126.975 520.512 127.187 520.616C127.398 520.717 127.572 520.873 127.709 521.085C127.846 521.297 127.914 521.565 127.914 521.891C127.914 522.226 127.851 522.504 127.724 522.726C127.597 522.944 127.426 523.106 127.211 523.214C126.999 523.318 126.763 523.37 126.503 523.37C126.249 523.37 126.015 523.312 125.8 523.194C125.585 523.077 125.412 522.908 125.282 522.687C125.152 522.465 125.087 522.197 125.087 521.881ZM131.98 520.216C131.98 519.75 132.05 519.353 132.19 519.024C132.33 518.692 132.531 518.438 132.791 518.263C133.051 518.084 133.364 517.994 133.729 517.994C134.008 517.994 134.259 518.051 134.48 518.165C134.705 518.276 134.887 518.429 135.027 518.624C135.167 518.816 135.252 519.039 135.281 519.293H136.17C136.17 519.286 136.17 519.282 136.17 519.278C136.17 519.272 136.17 519.267 136.17 519.264C136.147 518.961 136.069 518.684 135.936 518.434C135.805 518.183 135.631 517.965 135.413 517.779C135.195 517.594 134.943 517.451 134.656 517.35C134.37 517.249 134.059 517.198 133.724 517.198C133.17 517.198 132.695 517.319 132.298 517.56C131.901 517.797 131.598 518.141 131.39 518.59C131.181 519.039 131.077 519.578 131.077 520.206V521.168C131.077 521.796 131.18 522.332 131.385 522.774C131.59 523.217 131.889 523.556 132.283 523.79C132.68 524.021 133.16 524.137 133.724 524.137C134.17 524.137 134.57 524.052 134.925 523.883C135.283 523.714 135.571 523.481 135.789 523.185C136.01 522.888 136.137 522.551 136.17 522.174C136.17 522.171 136.17 522.167 136.17 522.164C136.17 522.158 136.17 522.151 136.17 522.145H135.281C135.252 522.379 135.167 522.587 135.027 522.77C134.891 522.949 134.712 523.089 134.49 523.189C134.269 523.29 134.015 523.341 133.729 523.341C133.357 523.341 133.042 523.256 132.781 523.087C132.521 522.914 132.322 522.665 132.186 522.34C132.049 522.014 131.98 521.62 131.98 521.158V520.216ZM138.317 517.335V518.116H141.672V518.17L138.913 524H139.855L142.58 518.146V517.335H138.317Z" fill="white"/>
<path d="M276.59 21.234C279.488 21.234 281.216 19.866 281.216 17.598C281.216 15.546 279.92 14.538 277.544 13.656C275.564 12.936 274.88 12.324 274.88 11.406C274.88 10.416 275.87 9.804 277.346 9.804C278.516 9.804 279.758 10.164 280.496 10.578V8.454C279.722 8.13 278.48 7.806 277.184 7.806C274.556 7.806 272.666 9.174 272.666 11.442C272.666 13.548 273.926 14.556 276.302 15.402C278.282 16.104 279.02 16.662 279.02 17.688C279.02 18.39 278.462 18.858 277.544 19.074C277.166 19.182 276.716 19.218 276.248 19.218C274.952 19.182 273.71 18.75 272.792 18.282V20.496C273.692 20.874 275.096 21.234 276.59 21.234ZM286.993 11.766C284.455 11.766 282.493 13.782 282.493 16.5C282.493 19.272 284.419 21.234 287.407 21.234C288.919 21.234 290.125 20.874 290.755 20.532V18.606C290.143 18.984 288.829 19.362 287.569 19.362C285.913 19.362 284.833 18.462 284.779 16.95H291.061C291.061 16.788 291.115 16.392 291.115 15.978C291.115 13.746 289.693 11.766 286.993 11.766ZM288.991 15.672H284.779C284.887 14.538 285.661 13.53 286.957 13.53C288.307 13.53 289.009 14.538 288.991 15.672ZM294.833 16.5C294.833 14.826 295.967 13.692 297.587 13.692C298.631 13.692 299.531 14.088 300.089 14.466V12.45C299.639 12.216 298.775 11.766 297.353 11.766C294.527 11.766 292.601 13.782 292.601 16.5C292.601 19.218 294.527 21.234 297.353 21.234C298.775 21.234 299.693 20.766 300.143 20.532V18.534C299.693 18.822 298.739 19.308 297.587 19.308C295.949 19.308 294.833 18.174 294.833 16.5ZM306.264 11.766C303.546 11.766 301.548 13.782 301.548 16.5C301.548 19.218 303.546 21.234 306.264 21.234C309 21.234 310.98 19.218 310.98 16.5C310.98 13.782 309 11.766 306.264 11.766ZM306.264 19.362C304.77 19.362 303.636 18.192 303.636 16.5C303.636 14.808 304.77 13.638 306.264 13.638C307.776 13.638 308.892 14.808 308.892 16.5C308.892 18.192 307.776 19.362 306.264 19.362ZM313.131 12V21H315.327V16.536C315.327 14.952 316.389 13.764 317.883 13.764C319.107 13.764 319.359 14.7 319.359 15.744V21H321.555V15.366C321.555 13.044 320.565 11.766 318.441 11.766C316.731 11.766 315.543 12.972 315.183 13.8H315.147C315.147 13.728 315.219 13.494 315.219 13.152L315.165 12H313.131ZM332.774 8.04H330.578V12.504C330.578 12.99 330.632 13.242 330.632 13.242H330.596C330.11 12.468 329.012 11.766 327.626 11.766C325.322 11.766 323.486 13.602 323.486 16.5C323.486 19.362 325.322 21.234 327.68 21.234C329.066 21.234 330.29 20.388 330.722 19.434H330.758C330.758 19.434 330.704 19.686 330.722 20.064L330.758 21H332.774V8.04ZM328.04 13.638C329.246 13.638 330.524 14.556 330.524 16.5C330.524 18.444 329.246 19.362 328.04 19.362C326.582 19.362 325.574 18.174 325.574 16.5C325.574 14.808 326.582 13.638 328.04 13.638ZM335.505 14.394C336.081 14.034 337.215 13.638 338.403 13.638C339.717 13.638 340.545 14.088 340.545 15.402V15.744C337.053 15.258 334.875 16.338 334.875 18.552C334.875 20.28 336.135 21.234 337.737 21.234C339.573 21.234 340.527 19.776 340.689 19.38H340.725C340.725 19.38 340.671 19.65 340.689 20.064L340.725 21H342.723V15.294C342.723 13.044 341.409 11.766 338.745 11.766C337.215 11.766 336.009 12.144 335.505 12.414V14.394ZM338.223 19.524C337.467 19.524 336.981 19.056 336.981 18.372C336.981 17.346 338.025 16.644 340.491 17.04C340.491 18.3 339.519 19.524 338.223 19.524ZM345.209 21H347.405V17.13C347.405 15.438 348.467 13.872 350.015 13.872C350.303 13.872 350.501 13.944 350.555 13.944V11.82C350.501 11.802 350.267 11.766 349.997 11.766C348.755 11.766 347.819 12.594 347.261 13.692C347.243 13.62 347.261 13.368 347.261 13.062C347.261 12.72 347.243 12.36 347.225 12H345.209V21ZM351.737 25.014C351.917 25.086 352.313 25.158 352.745 25.158C353.105 25.176 353.465 25.158 353.843 25.104C355.607 24.762 356.723 23.322 357.749 20.766L361.259 12H358.865L357.731 15.186C357.389 16.086 356.759 18.066 356.435 18.822C356.039 17.616 355.589 16.392 355.139 15.186L353.987 12H351.593L355.319 20.946C354.725 22.278 354.059 23.268 352.763 23.268C352.277 23.268 351.917 23.178 351.737 23.124V25.014ZM280.55 41.196C281.504 40.764 282.188 39.81 282.188 38.64C282.188 36.318 280.298 35.04 277.652 35.04H273.548V48H278.066C280.82 48 282.692 46.614 282.692 44.274C282.692 42.834 281.756 41.61 280.55 41.196ZM275.726 40.548V36.858H277.796C279.074 36.858 279.884 37.596 279.884 38.802C279.884 39.684 279.452 40.278 278.786 40.494C278.444 40.53 278.066 40.548 277.688 40.548H275.726ZM275.726 42.168H278.408C279.542 42.168 280.37 42.888 280.37 44.166C280.37 45.408 279.452 46.182 278.156 46.182H275.726V42.168ZM284.811 48H287.007V44.13C287.007 42.438 288.069 40.872 289.617 40.872C289.905 40.872 290.103 40.944 290.157 40.944V38.82C290.103 38.802 289.869 38.766 289.599 38.766C288.357 38.766 287.421 39.594 286.863 40.692C286.845 40.62 286.863 40.368 286.863 40.062C286.863 39.72 286.845 39.36 286.827 39H284.811V48ZM291.612 41.394C292.188 41.034 293.322 40.638 294.51 40.638C295.824 40.638 296.652 41.088 296.652 42.402V42.744C293.16 42.258 290.982 43.338 290.982 45.552C290.982 47.28 292.242 48.234 293.844 48.234C295.68 48.234 296.634 46.776 296.796 46.38H296.832C296.832 46.38 296.778 46.65 296.796 47.064L296.832 48H298.83V42.294C298.83 40.044 297.516 38.766 294.852 38.766C293.322 38.766 292.116 39.144 291.612 39.414V41.394ZM294.33 46.524C293.574 46.524 293.088 46.056 293.088 45.372C293.088 44.346 294.132 43.644 296.598 44.04C296.598 45.3 295.626 46.524 294.33 46.524ZM301.407 39V48H303.603V43.536C303.603 41.952 304.665 40.764 306.159 40.764C307.383 40.764 307.635 41.7 307.635 42.744V48H309.831V42.366C309.831 40.044 308.841 38.766 306.717 38.766C305.007 38.766 303.819 39.972 303.459 40.8H303.423C303.423 40.728 303.495 40.494 303.495 40.152L303.441 39H301.407ZM321.049 35.04H318.853V39.504C318.853 39.99 318.907 40.242 318.907 40.242H318.871C318.385 39.468 317.287 38.766 315.901 38.766C313.597 38.766 311.761 40.602 311.761 43.5C311.761 46.362 313.597 48.234 315.955 48.234C317.341 48.234 318.565 47.388 318.997 46.434H319.033C319.033 46.434 318.979 46.686 318.997 47.064L319.033 48H321.049V35.04ZM316.315 40.638C317.521 40.638 318.799 41.556 318.799 43.5C318.799 45.444 317.521 46.362 316.315 46.362C314.857 46.362 313.849 45.174 313.849 43.5C313.849 41.808 314.857 40.638 316.315 40.638ZM338.482 35.724C337.942 35.418 336.556 34.806 334.684 34.806C330.724 34.806 327.826 37.704 327.826 41.52C327.826 45.354 330.724 48.234 334.63 48.234C336.556 48.234 338.032 47.64 338.572 47.334V45.228C337.762 45.642 336.448 46.146 334.72 46.146C331.984 46.146 330.112 44.13 330.112 41.52C330.112 38.91 331.984 36.894 334.774 36.894C336.394 36.894 337.672 37.416 338.482 37.83V35.724ZM344.567 38.766C341.849 38.766 339.851 40.782 339.851 43.5C339.851 46.218 341.849 48.234 344.567 48.234C347.303 48.234 349.283 46.218 349.283 43.5C349.283 40.782 347.303 38.766 344.567 38.766ZM344.567 46.362C343.073 46.362 341.939 45.192 341.939 43.5C341.939 41.808 343.073 40.638 344.567 40.638C346.079 40.638 347.195 41.808 347.195 43.5C347.195 45.192 346.079 46.362 344.567 46.362ZM351.24 45.552C351.24 47.496 352.356 48.234 353.796 48.234C354.534 48.234 355.074 48.09 355.254 48.018V46.182C355.11 46.236 354.768 46.326 354.408 46.326C353.76 46.326 353.436 45.984 353.436 45.084V35.04H351.24V45.552ZM361.055 38.766C358.337 38.766 356.339 40.782 356.339 43.5C356.339 46.218 358.337 48.234 361.055 48.234C363.791 48.234 365.771 46.218 365.771 43.5C365.771 40.782 363.791 38.766 361.055 38.766ZM361.055 46.362C359.561 46.362 358.427 45.192 358.427 43.5C358.427 41.808 359.561 40.638 361.055 40.638C362.567 40.638 363.683 41.808 363.683 43.5C363.683 45.192 362.567 46.362 361.055 46.362ZM367.832 48H370.028V44.13C370.028 42.438 371.09 40.872 372.638 40.872C372.926 40.872 373.124 40.944 373.178 40.944V38.82C373.124 38.802 372.89 38.766 372.62 38.766C371.378 38.766 370.442 39.594 369.884 40.692C369.866 40.62 369.884 40.368 369.884 40.062C369.884 39.72 369.866 39.36 369.848 39H367.832V48ZM273.258 84H274.488V79.5088H279.902V84H281.133V74.1357H279.902V78.4014H274.488V74.1357H273.258V84ZM286.526 84.1299C287.228 84.1299 287.832 83.9772 288.338 83.6719C288.844 83.362 289.233 82.9222 289.507 82.3525C289.785 81.7829 289.924 81.1061 289.924 80.3223V80.3086C289.924 79.5202 289.785 78.8411 289.507 78.2715C289.233 77.7018 288.844 77.2643 288.338 76.959C287.832 76.6536 287.228 76.501 286.526 76.501C285.829 76.501 285.225 76.6536 284.715 76.959C284.209 77.2643 283.817 77.7018 283.539 78.2715C283.266 78.8411 283.129 79.5202 283.129 80.3086V80.3223C283.129 81.1061 283.266 81.7829 283.539 82.3525C283.817 82.9222 284.209 83.362 284.715 83.6719C285.225 83.9772 285.829 84.1299 286.526 84.1299ZM286.526 83.0771C286.062 83.0771 285.667 82.9678 285.344 82.749C285.02 82.5303 284.772 82.2158 284.599 81.8057C284.43 81.3955 284.346 80.901 284.346 80.3223V80.3086C284.346 79.7253 284.43 79.2285 284.599 78.8184C284.772 78.4082 285.02 78.096 285.344 77.8818C285.667 77.6631 286.062 77.5537 286.526 77.5537C286.991 77.5537 287.385 77.6631 287.709 77.8818C288.033 78.096 288.279 78.4082 288.447 78.8184C288.62 79.2285 288.707 79.7253 288.707 80.3086V80.3223C288.707 80.901 288.62 81.3955 288.447 81.8057C288.279 82.2158 288.033 82.5303 287.709 82.749C287.385 82.9678 286.991 83.0771 286.526 83.0771ZM293.581 84H294.784L297.512 76.6309H296.254L294.237 82.7012H294.128L292.111 76.6309H290.854L293.581 84ZM301.818 84.1299C302.251 84.1299 302.641 84.0752 302.987 83.9658C303.338 83.8519 303.641 83.7015 303.896 83.5146C304.152 83.3232 304.359 83.1113 304.519 82.8789C304.683 82.6419 304.797 82.3981 304.86 82.1475L304.874 82.0928H303.685L303.657 82.1543C303.593 82.3001 303.482 82.4437 303.322 82.585C303.163 82.7262 302.96 82.8424 302.714 82.9336C302.468 83.0247 302.178 83.0703 301.846 83.0703C301.399 83.0703 301.012 82.9723 300.684 82.7764C300.355 82.5758 300.103 82.291 299.925 81.9219C299.747 81.5482 299.658 81.0993 299.658 80.5752V80.1035C299.658 79.5521 299.749 79.0872 299.932 78.709C300.114 78.3307 300.36 78.0459 300.67 77.8545C300.984 77.6585 301.34 77.5605 301.736 77.5605C302.133 77.5605 302.484 77.654 302.789 77.8408C303.094 78.0231 303.334 78.3011 303.507 78.6748C303.68 79.0485 303.767 79.5247 303.767 80.1035V80.5752L304.354 79.707H299.057V80.6572H304.963V80.1924C304.963 79.4587 304.833 78.8161 304.573 78.2646C304.318 77.7087 303.949 77.2757 303.466 76.9658C302.987 76.6559 302.413 76.501 301.743 76.501C301.078 76.501 300.497 76.6628 300 76.9863C299.503 77.3099 299.118 77.7588 298.845 78.333C298.576 78.9072 298.441 79.5749 298.441 80.3359V80.3428C298.441 81.113 298.576 81.7829 298.845 82.3525C299.118 82.9176 299.506 83.3551 300.007 83.665C300.513 83.9749 301.117 84.1299 301.818 84.1299ZM306.809 84H307.998V79.4336C307.998 79.0736 308.08 78.7591 308.244 78.4902C308.413 78.2214 308.643 78.0117 308.935 77.8613C309.226 77.7109 309.561 77.6357 309.939 77.6357C310.072 77.6357 310.195 77.6426 310.309 77.6562C310.427 77.6654 310.548 77.6813 310.671 77.7041V76.5488C310.612 76.5397 310.525 76.5306 310.411 76.5215C310.302 76.5078 310.19 76.501 310.076 76.501C309.579 76.501 309.162 76.6081 308.825 76.8223C308.488 77.0365 308.249 77.3372 308.107 77.7246H307.998V76.6309H306.809V84ZM318.102 84.1299C318.434 84.1299 318.74 84.0843 319.018 83.9932C319.296 83.8975 319.544 83.7585 319.763 83.5762C319.986 83.3939 320.175 83.1729 320.33 82.9131H320.439V84H321.629V78.9551C321.629 78.4447 321.52 78.0072 321.301 77.6426C321.087 77.2734 320.77 76.9909 320.351 76.7949C319.936 76.599 319.428 76.501 318.826 76.501C318.302 76.501 317.835 76.583 317.425 76.7471C317.015 76.9066 316.68 77.1322 316.42 77.4238C316.165 77.7109 316.005 78.0482 315.941 78.4355L315.935 78.4766H317.124L317.131 78.4561C317.227 78.1689 317.416 77.9479 317.698 77.793C317.981 77.6335 318.343 77.5537 318.785 77.5537C319.337 77.5537 319.749 77.6745 320.022 77.916C320.3 78.153 320.439 78.4993 320.439 78.9551V81.252C320.439 81.6029 320.348 81.9173 320.166 82.1953C319.988 82.4733 319.742 82.6943 319.428 82.8584C319.113 83.0179 318.753 83.0977 318.348 83.0977C317.919 83.0977 317.564 82.9951 317.281 82.79C316.999 82.5804 316.857 82.2887 316.857 81.915V81.9014C316.857 81.5368 316.985 81.2542 317.24 81.0537C317.5 80.8532 317.91 80.737 318.471 80.7051L321.034 80.541V79.5908L318.327 79.7549C317.757 79.7868 317.272 79.8916 316.871 80.0693C316.47 80.2471 316.165 80.4932 315.955 80.8076C315.745 81.1175 315.641 81.4912 315.641 81.9287V81.9424C315.641 82.389 315.748 82.7764 315.962 83.1045C316.181 83.4326 316.475 83.6855 316.844 83.8633C317.217 84.041 317.637 84.1299 318.102 84.1299ZM323.803 84H324.992V79.6387C324.992 79.2057 325.07 78.8343 325.225 78.5244C325.384 78.2145 325.607 77.9753 325.895 77.8066C326.182 77.638 326.521 77.5537 326.913 77.5537C327.501 77.5537 327.934 77.7155 328.212 78.0391C328.494 78.3581 328.636 78.8503 328.636 79.5156V84H329.825V79.2285C329.825 78.3535 329.602 77.6813 329.155 77.2119C328.713 76.738 328.077 76.501 327.248 76.501C326.706 76.501 326.259 76.6104 325.908 76.8291C325.557 77.0433 325.288 77.3464 325.102 77.7383H324.992V76.6309H323.803V84ZM334.699 84.1299C335.041 84.1299 335.358 84.0775 335.649 83.9727C335.941 83.8678 336.201 83.7197 336.429 83.5283C336.657 83.3324 336.846 83.0977 336.996 82.8242H337.105V84H338.295V73.7051H337.105V77.793H336.996C336.864 77.5286 336.682 77.3008 336.449 77.1094C336.217 76.918 335.95 76.7699 335.649 76.665C335.353 76.5557 335.036 76.501 334.699 76.501C334.075 76.501 333.53 76.6582 333.065 76.9727C332.605 77.2871 332.247 77.7292 331.992 78.2988C331.737 78.8685 331.609 79.5384 331.609 80.3086V80.3223C331.609 81.0879 331.737 81.7578 331.992 82.332C332.247 82.9017 332.607 83.3438 333.072 83.6582C333.537 83.9727 334.079 84.1299 334.699 84.1299ZM334.973 83.0771C334.526 83.0771 334.141 82.9678 333.817 82.749C333.498 82.5257 333.252 82.209 333.079 81.7988C332.91 81.3841 332.826 80.8919 332.826 80.3223V80.3086C332.826 79.7344 332.91 79.2422 333.079 78.832C333.252 78.4219 333.498 78.1074 333.817 77.8887C334.141 77.6654 334.526 77.5537 334.973 77.5537C335.419 77.5537 335.804 77.6654 336.128 77.8887C336.451 78.112 336.7 78.4287 336.873 78.8389C337.046 79.249 337.133 79.7389 337.133 80.3086V80.3223C337.133 80.8874 337.046 81.3773 336.873 81.792C336.7 82.2021 336.451 82.5189 336.128 82.7422C335.804 82.9655 335.419 83.0771 334.973 83.0771ZM347.53 84.1299C348.123 84.1299 348.629 84.0319 349.048 83.8359C349.467 83.64 349.804 83.3711 350.06 83.0293C350.315 82.6829 350.493 82.2887 350.593 81.8467L350.606 81.7715L349.431 81.7783L349.417 81.8193C349.28 82.2295 349.055 82.5417 348.74 82.7559C348.426 82.9701 348.02 83.0771 347.523 83.0771C347.086 83.0771 346.705 82.9632 346.382 82.7354C346.058 82.5075 345.808 82.1862 345.63 81.7715C345.452 81.3522 345.363 80.86 345.363 80.2949V80.2812C345.363 79.7253 345.45 79.2445 345.623 78.8389C345.801 78.4287 346.051 78.112 346.375 77.8887C346.699 77.6654 347.081 77.5537 347.523 77.5537C348.052 77.5537 348.478 77.6813 348.802 77.9365C349.125 78.1917 349.333 78.5016 349.424 78.8662L349.431 78.8867H350.613L350.606 78.8457C350.534 78.4082 350.367 78.014 350.107 77.6631C349.848 77.3076 349.501 77.0251 349.068 76.8154C348.635 76.6058 348.12 76.501 347.523 76.501C346.835 76.501 346.238 76.6582 345.732 76.9727C345.227 77.2826 344.835 77.7201 344.557 78.2852C344.283 78.8503 344.146 79.5156 344.146 80.2812V80.2949C344.146 81.0742 344.285 81.751 344.563 82.3252C344.841 82.8994 345.233 83.3438 345.739 83.6582C346.245 83.9727 346.842 84.1299 347.53 84.1299ZM352.418 84H353.607V73.7051H352.418V84ZM355.918 84H357.107V76.6309H355.918V84ZM356.52 75.209C356.747 75.209 356.941 75.1292 357.101 74.9697C357.26 74.8057 357.34 74.612 357.34 74.3887C357.34 74.1608 357.26 73.9671 357.101 73.8076C356.941 73.6481 356.747 73.5684 356.52 73.5684C356.296 73.5684 356.103 73.6481 355.938 73.8076C355.779 73.9671 355.699 74.1608 355.699 74.3887C355.699 74.612 355.779 74.8057 355.938 74.9697C356.103 75.1292 356.296 75.209 356.52 75.209ZM362.364 84.1299C362.957 84.1299 363.463 84.0319 363.882 83.8359C364.301 83.64 364.638 83.3711 364.894 83.0293C365.149 82.6829 365.326 82.2887 365.427 81.8467L365.44 81.7715L364.265 81.7783L364.251 81.8193C364.114 82.2295 363.889 82.5417 363.574 82.7559C363.26 82.9701 362.854 83.0771 362.357 83.0771C361.92 83.0771 361.539 82.9632 361.216 82.7354C360.892 82.5075 360.642 82.1862 360.464 81.7715C360.286 81.3522 360.197 80.86 360.197 80.2949V80.2812C360.197 79.7253 360.284 79.2445 360.457 78.8389C360.635 78.4287 360.885 78.112 361.209 77.8887C361.533 77.6654 361.915 77.5537 362.357 77.5537C362.886 77.5537 363.312 77.6813 363.636 77.9365C363.959 78.1917 364.167 78.5016 364.258 78.8662L364.265 78.8867H365.447L365.44 78.8457C365.368 78.4082 365.201 78.014 364.941 77.6631C364.682 77.3076 364.335 77.0251 363.902 76.8154C363.469 76.6058 362.954 76.501 362.357 76.501C361.669 76.501 361.072 76.6582 360.566 76.9727C360.061 77.2826 359.669 77.7201 359.391 78.2852C359.117 78.8503 358.98 79.5156 358.98 80.2812V80.2949C358.98 81.0742 359.119 81.751 359.397 82.3252C359.675 82.8994 360.067 83.3438 360.573 83.6582C361.079 83.9727 361.676 84.1299 362.364 84.1299ZM367.252 84H368.441V73.7051H367.252V84ZM371.894 84H373.391L369.891 79.6318L369.016 80.3906L371.894 84ZM368.291 81.3477L369.392 80.2881L369.679 80.0078L373.179 76.6309H371.736L368.551 79.8506H368.236L368.291 81.3477Z" fill="white"/>
<path d="M276.59 325.234C279.488 325.234 281.216 323.866 281.216 321.598C281.216 319.546 279.92 318.538 277.544 317.656C275.564 316.936 274.88 316.324 274.88 315.406C274.88 314.416 275.87 313.804 277.346 313.804C278.516 313.804 279.758 314.164 280.496 314.578V312.454C279.722 312.13 278.48 311.806 277.184 311.806C274.556 311.806 272.666 313.174 272.666 315.442C272.666 317.548 273.926 318.556 276.302 319.402C278.282 320.104 279.02 320.662 279.02 321.688C279.02 322.39 278.462 322.858 277.544 323.074C277.166 323.182 276.716 323.218 276.248 323.218C274.952 323.182 273.71 322.75 272.792 322.282V324.496C273.692 324.874 275.096 325.234 276.59 325.234ZM286.993 315.766C284.455 315.766 282.493 317.782 282.493 320.5C282.493 323.272 284.419 325.234 287.407 325.234C288.919 325.234 290.125 324.874 290.755 324.532V322.606C290.143 322.984 288.829 323.362 287.569 323.362C285.913 323.362 284.833 322.462 284.779 320.95H291.061C291.061 320.788 291.115 320.392 291.115 319.978C291.115 317.746 289.693 315.766 286.993 315.766ZM288.991 319.672H284.779C284.887 318.538 285.661 317.53 286.957 317.53C288.307 317.53 289.009 318.538 288.991 319.672ZM294.833 320.5C294.833 318.826 295.967 317.692 297.587 317.692C298.631 317.692 299.531 318.088 300.089 318.466V316.45C299.639 316.216 298.775 315.766 297.353 315.766C294.527 315.766 292.601 317.782 292.601 320.5C292.601 323.218 294.527 325.234 297.353 325.234C298.775 325.234 299.693 324.766 300.143 324.532V322.534C299.693 322.822 298.739 323.308 297.587 323.308C295.949 323.308 294.833 322.174 294.833 320.5ZM306.264 315.766C303.546 315.766 301.548 317.782 301.548 320.5C301.548 323.218 303.546 325.234 306.264 325.234C309 325.234 310.98 323.218 310.98 320.5C310.98 317.782 309 315.766 306.264 315.766ZM306.264 323.362C304.77 323.362 303.636 322.192 303.636 320.5C303.636 318.808 304.77 317.638 306.264 317.638C307.776 317.638 308.892 318.808 308.892 320.5C308.892 322.192 307.776 323.362 306.264 323.362ZM313.131 316V325H315.327V320.536C315.327 318.952 316.389 317.764 317.883 317.764C319.107 317.764 319.359 318.7 319.359 319.744V325H321.555V319.366C321.555 317.044 320.565 315.766 318.441 315.766C316.731 315.766 315.543 316.972 315.183 317.8H315.147C315.147 317.728 315.219 317.494 315.219 317.152L315.165 316H313.131ZM332.774 312.04H330.578V316.504C330.578 316.99 330.632 317.242 330.632 317.242H330.596C330.11 316.468 329.012 315.766 327.626 315.766C325.322 315.766 323.486 317.602 323.486 320.5C323.486 323.362 325.322 325.234 327.68 325.234C329.066 325.234 330.29 324.388 330.722 323.434H330.758C330.758 323.434 330.704 323.686 330.722 324.064L330.758 325H332.774V312.04ZM328.04 317.638C329.246 317.638 330.524 318.556 330.524 320.5C330.524 322.444 329.246 323.362 328.04 323.362C326.582 323.362 325.574 322.174 325.574 320.5C325.574 318.808 326.582 317.638 328.04 317.638ZM335.505 318.394C336.081 318.034 337.215 317.638 338.403 317.638C339.717 317.638 340.545 318.088 340.545 319.402V319.744C337.053 319.258 334.875 320.338 334.875 322.552C334.875 324.28 336.135 325.234 337.737 325.234C339.573 325.234 340.527 323.776 340.689 323.38H340.725C340.725 323.38 340.671 323.65 340.689 324.064L340.725 325H342.723V319.294C342.723 317.044 341.409 315.766 338.745 315.766C337.215 315.766 336.009 316.144 335.505 316.414V318.394ZM338.223 323.524C337.467 323.524 336.981 323.056 336.981 322.372C336.981 321.346 338.025 320.644 340.491 321.04C340.491 322.3 339.519 323.524 338.223 323.524ZM345.209 325H347.405V321.13C347.405 319.438 348.467 317.872 350.015 317.872C350.303 317.872 350.501 317.944 350.555 317.944V315.82C350.501 315.802 350.267 315.766 349.997 315.766C348.755 315.766 347.819 316.594 347.261 317.692C347.243 317.62 347.261 317.368 347.261 317.062C347.261 316.72 347.243 316.36 347.225 316H345.209V325ZM351.737 329.014C351.917 329.086 352.313 329.158 352.745 329.158C353.105 329.176 353.465 329.158 353.843 329.104C355.607 328.762 356.723 327.322 357.749 324.766L361.259 316H358.865L357.731 319.186C357.389 320.086 356.759 322.066 356.435 322.822C356.039 321.616 355.589 320.392 355.139 319.186L353.987 316H351.593L355.319 324.946C354.725 326.278 354.059 327.268 352.763 327.268C352.277 327.268 351.917 327.178 351.737 327.124V329.014ZM280.55 345.196C281.504 344.764 282.188 343.81 282.188 342.64C282.188 340.318 280.298 339.04 277.652 339.04H273.548V352H278.066C280.82 352 282.692 350.614 282.692 348.274C282.692 346.834 281.756 345.61 280.55 345.196ZM275.726 344.548V340.858H277.796C279.074 340.858 279.884 341.596 279.884 342.802C279.884 343.684 279.452 344.278 278.786 344.494C278.444 344.53 278.066 344.548 277.688 344.548H275.726ZM275.726 346.168H278.408C279.542 346.168 280.37 346.888 280.37 348.166C280.37 349.408 279.452 350.182 278.156 350.182H275.726V346.168ZM284.811 352H287.007V348.13C287.007 346.438 288.069 344.872 289.617 344.872C289.905 344.872 290.103 344.944 290.157 344.944V342.82C290.103 342.802 289.869 342.766 289.599 342.766C288.357 342.766 287.421 343.594 286.863 344.692C286.845 344.62 286.863 344.368 286.863 344.062C286.863 343.72 286.845 343.36 286.827 343H284.811V352ZM291.612 345.394C292.188 345.034 293.322 344.638 294.51 344.638C295.824 344.638 296.652 345.088 296.652 346.402V346.744C293.16 346.258 290.982 347.338 290.982 349.552C290.982 351.28 292.242 352.234 293.844 352.234C295.68 352.234 296.634 350.776 296.796 350.38H296.832C296.832 350.38 296.778 350.65 296.796 351.064L296.832 352H298.83V346.294C298.83 344.044 297.516 342.766 294.852 342.766C293.322 342.766 292.116 343.144 291.612 343.414V345.394ZM294.33 350.524C293.574 350.524 293.088 350.056 293.088 349.372C293.088 348.346 294.132 347.644 296.598 348.04C296.598 349.3 295.626 350.524 294.33 350.524ZM301.407 343V352H303.603V347.536C303.603 345.952 304.665 344.764 306.159 344.764C307.383 344.764 307.635 345.7 307.635 346.744V352H309.831V346.366C309.831 344.044 308.841 342.766 306.717 342.766C305.007 342.766 303.819 343.972 303.459 344.8H303.423C303.423 344.728 303.495 344.494 303.495 344.152L303.441 343H301.407ZM321.049 339.04H318.853V343.504C318.853 343.99 318.907 344.242 318.907 344.242H318.871C318.385 343.468 317.287 342.766 315.901 342.766C313.597 342.766 311.761 344.602 311.761 347.5C311.761 350.362 313.597 352.234 315.955 352.234C317.341 352.234 318.565 351.388 318.997 350.434H319.033C319.033 350.434 318.979 350.686 318.997 351.064L319.033 352H321.049V339.04ZM316.315 344.638C317.521 344.638 318.799 345.556 318.799 347.5C318.799 349.444 317.521 350.362 316.315 350.362C314.857 350.362 313.849 349.174 313.849 347.5C313.849 345.808 314.857 344.638 316.315 344.638ZM330.364 353.206H332.596C331.3 351.028 330.562 348.238 330.562 345.52C330.562 342.802 331.3 340.012 332.596 337.834H330.364C329.104 339.922 328.384 342.64 328.384 345.52C328.384 348.4 329.104 351.118 330.364 353.206ZM339.278 352C343.544 352 346.298 349.372 346.298 345.52C346.298 341.686 343.508 339.04 339.224 339.04H335.282V352H339.278ZM339.206 340.948C342.158 340.948 344.012 342.856 344.012 345.52C344.012 348.202 342.158 350.092 339.26 350.092H337.55V340.948H339.206ZM348.143 345.394C348.719 345.034 349.853 344.638 351.041 344.638C352.355 344.638 353.183 345.088 353.183 346.402V346.744C349.691 346.258 347.513 347.338 347.513 349.552C347.513 351.28 348.773 352.234 350.375 352.234C352.211 352.234 353.165 350.776 353.327 350.38H353.363C353.363 350.38 353.309 350.65 353.327 351.064L353.363 352H355.361V346.294C355.361 344.044 354.047 342.766 351.383 342.766C349.853 342.766 348.647 343.144 348.143 343.414V345.394ZM350.861 350.524C350.105 350.524 349.619 350.056 349.619 349.372C349.619 348.346 350.663 347.644 353.129 348.04C353.129 349.3 352.157 350.524 350.861 350.524ZM357.848 352H360.044V348.13C360.044 346.438 361.106 344.872 362.654 344.872C362.942 344.872 363.14 344.944 363.194 344.944V342.82C363.14 342.802 362.906 342.766 362.636 342.766C361.394 342.766 360.458 343.594 359.9 344.692C359.882 344.62 359.9 344.368 359.9 344.062C359.9 343.72 359.882 343.36 359.864 343H357.848V352ZM373.267 343H370.711L367.183 347.104V339.04H364.987V352H367.147V349.39L368.461 347.932L370.999 352H373.501L370.135 346.78L373.267 343ZM376.493 337.834H374.261C375.557 340.012 376.295 342.802 376.295 345.52C376.295 348.238 375.557 351.028 374.261 353.206H376.493C377.753 351.118 378.473 348.4 378.473 345.52C378.473 342.64 377.753 339.922 376.493 337.834ZM273.258 388H274.488V383.509H279.902V388H281.133V378.136H279.902V382.401H274.488V378.136H273.258V388ZM286.526 388.13C287.228 388.13 287.832 387.977 288.338 387.672C288.844 387.362 289.233 386.922 289.507 386.353C289.785 385.783 289.924 385.106 289.924 384.322V384.309C289.924 383.52 289.785 382.841 289.507 382.271C289.233 381.702 288.844 381.264 288.338 380.959C287.832 380.654 287.228 380.501 286.526 380.501C285.829 380.501 285.225 380.654 284.715 380.959C284.209 381.264 283.817 381.702 283.539 382.271C283.266 382.841 283.129 383.52 283.129 384.309V384.322C283.129 385.106 283.266 385.783 283.539 386.353C283.817 386.922 284.209 387.362 284.715 387.672C285.225 387.977 285.829 388.13 286.526 388.13ZM286.526 387.077C286.062 387.077 285.667 386.968 285.344 386.749C285.02 386.53 284.772 386.216 284.599 385.806C284.43 385.396 284.346 384.901 284.346 384.322V384.309C284.346 383.725 284.43 383.229 284.599 382.818C284.772 382.408 285.02 382.096 285.344 381.882C285.667 381.663 286.062 381.554 286.526 381.554C286.991 381.554 287.385 381.663 287.709 381.882C288.033 382.096 288.279 382.408 288.447 382.818C288.62 383.229 288.707 383.725 288.707 384.309V384.322C288.707 384.901 288.62 385.396 288.447 385.806C288.279 386.216 288.033 386.53 287.709 386.749C287.385 386.968 286.991 387.077 286.526 387.077ZM293.581 388H294.784L297.512 380.631H296.254L294.237 386.701H294.128L292.111 380.631H290.854L293.581 388ZM301.818 388.13C302.251 388.13 302.641 388.075 302.987 387.966C303.338 387.852 303.641 387.701 303.896 387.515C304.152 387.323 304.359 387.111 304.519 386.879C304.683 386.642 304.797 386.398 304.86 386.147L304.874 386.093H303.685L303.657 386.154C303.593 386.3 303.482 386.444 303.322 386.585C303.163 386.726 302.96 386.842 302.714 386.934C302.468 387.025 302.178 387.07 301.846 387.07C301.399 387.07 301.012 386.972 300.684 386.776C300.355 386.576 300.103 386.291 299.925 385.922C299.747 385.548 299.658 385.099 299.658 384.575V384.104C299.658 383.552 299.749 383.087 299.932 382.709C300.114 382.331 300.36 382.046 300.67 381.854C300.984 381.659 301.34 381.561 301.736 381.561C302.133 381.561 302.484 381.654 302.789 381.841C303.094 382.023 303.334 382.301 303.507 382.675C303.68 383.049 303.767 383.525 303.767 384.104V384.575L304.354 383.707H299.057V384.657H304.963V384.192C304.963 383.459 304.833 382.816 304.573 382.265C304.318 381.709 303.949 381.276 303.466 380.966C302.987 380.656 302.413 380.501 301.743 380.501C301.078 380.501 300.497 380.663 300 380.986C299.503 381.31 299.118 381.759 298.845 382.333C298.576 382.907 298.441 383.575 298.441 384.336V384.343C298.441 385.113 298.576 385.783 298.845 386.353C299.118 386.918 299.506 387.355 300.007 387.665C300.513 387.975 301.117 388.13 301.818 388.13ZM306.809 388H307.998V383.434C307.998 383.074 308.08 382.759 308.244 382.49C308.413 382.221 308.643 382.012 308.935 381.861C309.226 381.711 309.561 381.636 309.939 381.636C310.072 381.636 310.195 381.643 310.309 381.656C310.427 381.665 310.548 381.681 310.671 381.704V380.549C310.612 380.54 310.525 380.531 310.411 380.521C310.302 380.508 310.19 380.501 310.076 380.501C309.579 380.501 309.162 380.608 308.825 380.822C308.488 381.036 308.249 381.337 308.107 381.725H307.998V380.631H306.809V388ZM318.102 388.13C318.434 388.13 318.74 388.084 319.018 387.993C319.296 387.897 319.544 387.758 319.763 387.576C319.986 387.394 320.175 387.173 320.33 386.913H320.439V388H321.629V382.955C321.629 382.445 321.52 382.007 321.301 381.643C321.087 381.273 320.77 380.991 320.351 380.795C319.936 380.599 319.428 380.501 318.826 380.501C318.302 380.501 317.835 380.583 317.425 380.747C317.015 380.907 316.68 381.132 316.42 381.424C316.165 381.711 316.005 382.048 315.941 382.436L315.935 382.477H317.124L317.131 382.456C317.227 382.169 317.416 381.948 317.698 381.793C317.981 381.633 318.343 381.554 318.785 381.554C319.337 381.554 319.749 381.674 320.022 381.916C320.3 382.153 320.439 382.499 320.439 382.955V385.252C320.439 385.603 320.348 385.917 320.166 386.195C319.988 386.473 319.742 386.694 319.428 386.858C319.113 387.018 318.753 387.098 318.348 387.098C317.919 387.098 317.564 386.995 317.281 386.79C316.999 386.58 316.857 386.289 316.857 385.915V385.901C316.857 385.537 316.985 385.254 317.24 385.054C317.5 384.853 317.91 384.737 318.471 384.705L321.034 384.541V383.591L318.327 383.755C317.757 383.787 317.272 383.892 316.871 384.069C316.47 384.247 316.165 384.493 315.955 384.808C315.745 385.118 315.641 385.491 315.641 385.929V385.942C315.641 386.389 315.748 386.776 315.962 387.104C316.181 387.433 316.475 387.686 316.844 387.863C317.217 388.041 317.637 388.13 318.102 388.13ZM323.803 388H324.992V383.639C324.992 383.206 325.07 382.834 325.225 382.524C325.384 382.215 325.607 381.975 325.895 381.807C326.182 381.638 326.521 381.554 326.913 381.554C327.501 381.554 327.934 381.715 328.212 382.039C328.494 382.358 328.636 382.85 328.636 383.516V388H329.825V383.229C329.825 382.354 329.602 381.681 329.155 381.212C328.713 380.738 328.077 380.501 327.248 380.501C326.706 380.501 326.259 380.61 325.908 380.829C325.557 381.043 325.288 381.346 325.102 381.738H324.992V380.631H323.803V388ZM334.699 388.13C335.041 388.13 335.358 388.077 335.649 387.973C335.941 387.868 336.201 387.72 336.429 387.528C336.657 387.332 336.846 387.098 336.996 386.824H337.105V388H338.295V377.705H337.105V381.793H336.996C336.864 381.529 336.682 381.301 336.449 381.109C336.217 380.918 335.95 380.77 335.649 380.665C335.353 380.556 335.036 380.501 334.699 380.501C334.075 380.501 333.53 380.658 333.065 380.973C332.605 381.287 332.247 381.729 331.992 382.299C331.737 382.868 331.609 383.538 331.609 384.309V384.322C331.609 385.088 331.737 385.758 331.992 386.332C332.247 386.902 332.607 387.344 333.072 387.658C333.537 387.973 334.079 388.13 334.699 388.13ZM334.973 387.077C334.526 387.077 334.141 386.968 333.817 386.749C333.498 386.526 333.252 386.209 333.079 385.799C332.91 385.384 332.826 384.892 332.826 384.322V384.309C332.826 383.734 332.91 383.242 333.079 382.832C333.252 382.422 333.498 382.107 333.817 381.889C334.141 381.665 334.526 381.554 334.973 381.554C335.419 381.554 335.804 381.665 336.128 381.889C336.451 382.112 336.7 382.429 336.873 382.839C337.046 383.249 337.133 383.739 337.133 384.309V384.322C337.133 384.887 337.046 385.377 336.873 385.792C336.7 386.202 336.451 386.519 336.128 386.742C335.804 386.965 335.419 387.077 334.973 387.077ZM347.53 388.13C348.123 388.13 348.629 388.032 349.048 387.836C349.467 387.64 349.804 387.371 350.06 387.029C350.315 386.683 350.493 386.289 350.593 385.847L350.606 385.771L349.431 385.778L349.417 385.819C349.28 386.229 349.055 386.542 348.74 386.756C348.426 386.97 348.02 387.077 347.523 387.077C347.086 387.077 346.705 386.963 346.382 386.735C346.058 386.507 345.808 386.186 345.63 385.771C345.452 385.352 345.363 384.86 345.363 384.295V384.281C345.363 383.725 345.45 383.244 345.623 382.839C345.801 382.429 346.051 382.112 346.375 381.889C346.699 381.665 347.081 381.554 347.523 381.554C348.052 381.554 348.478 381.681 348.802 381.937C349.125 382.192 349.333 382.502 349.424 382.866L349.431 382.887H350.613L350.606 382.846C350.534 382.408 350.367 382.014 350.107 381.663C349.848 381.308 349.501 381.025 349.068 380.815C348.635 380.606 348.12 380.501 347.523 380.501C346.835 380.501 346.238 380.658 345.732 380.973C345.227 381.283 344.835 381.72 344.557 382.285C344.283 382.85 344.146 383.516 344.146 384.281V384.295C344.146 385.074 344.285 385.751 344.563 386.325C344.841 386.899 345.233 387.344 345.739 387.658C346.245 387.973 346.842 388.13 347.53 388.13ZM352.418 388H353.607V377.705H352.418V388ZM355.918 388H357.107V380.631H355.918V388ZM356.52 379.209C356.747 379.209 356.941 379.129 357.101 378.97C357.26 378.806 357.34 378.612 357.34 378.389C357.34 378.161 357.26 377.967 357.101 377.808C356.941 377.648 356.747 377.568 356.52 377.568C356.296 377.568 356.103 377.648 355.938 377.808C355.779 377.967 355.699 378.161 355.699 378.389C355.699 378.612 355.779 378.806 355.938 378.97C356.103 379.129 356.296 379.209 356.52 379.209ZM362.364 388.13C362.957 388.13 363.463 388.032 363.882 387.836C364.301 387.64 364.638 387.371 364.894 387.029C365.149 386.683 365.326 386.289 365.427 385.847L365.44 385.771L364.265 385.778L364.251 385.819C364.114 386.229 363.889 386.542 363.574 386.756C363.26 386.97 362.854 387.077 362.357 387.077C361.92 387.077 361.539 386.963 361.216 386.735C360.892 386.507 360.642 386.186 360.464 385.771C360.286 385.352 360.197 384.86 360.197 384.295V384.281C360.197 383.725 360.284 383.244 360.457 382.839C360.635 382.429 360.885 382.112 361.209 381.889C361.533 381.665 361.915 381.554 362.357 381.554C362.886 381.554 363.312 381.681 363.636 381.937C363.959 382.192 364.167 382.502 364.258 382.866L364.265 382.887H365.447L365.44 382.846C365.368 382.408 365.201 382.014 364.941 381.663C364.682 381.308 364.335 381.025 363.902 380.815C363.469 380.606 362.954 380.501 362.357 380.501C361.669 380.501 361.072 380.658 360.566 380.973C360.061 381.283 359.669 381.72 359.391 382.285C359.117 382.85 358.98 383.516 358.98 384.281V384.295C358.98 385.074 359.119 385.751 359.397 386.325C359.675 386.899 360.067 387.344 360.573 387.658C361.079 387.973 361.676 388.13 362.364 388.13ZM367.252 388H368.441V377.705H367.252V388ZM371.894 388H373.391L369.891 383.632L369.016 384.391L371.894 388ZM368.291 385.348L369.392 384.288L369.679 384.008L373.179 380.631H371.736L368.551 383.851H368.236L368.291 385.348ZM374.484 390.509H375.366L376.439 386.619H375.079L374.484 390.509ZM276.115 405.13C276.548 405.13 276.938 405.075 277.284 404.966C277.635 404.852 277.938 404.701 278.193 404.515C278.449 404.323 278.656 404.111 278.815 403.879C278.979 403.642 279.093 403.398 279.157 403.147L279.171 403.093H277.981L277.954 403.154C277.89 403.3 277.779 403.444 277.619 403.585C277.46 403.726 277.257 403.842 277.011 403.934C276.765 404.025 276.475 404.07 276.143 404.07C275.696 404.07 275.309 403.972 274.98 403.776C274.652 403.576 274.399 403.291 274.222 402.922C274.044 402.548 273.955 402.099 273.955 401.575V401.104C273.955 400.552 274.046 400.087 274.229 399.709C274.411 399.331 274.657 399.046 274.967 398.854C275.281 398.659 275.637 398.561 276.033 398.561C276.43 398.561 276.781 398.654 277.086 398.841C277.391 399.023 277.631 399.301 277.804 399.675C277.977 400.049 278.063 400.525 278.063 401.104V401.575L278.651 400.707H273.354V401.657H279.26V401.192C279.26 400.459 279.13 399.816 278.87 399.265C278.615 398.709 278.246 398.276 277.763 397.966C277.284 397.656 276.71 397.501 276.04 397.501C275.375 397.501 274.794 397.663 274.297 397.986C273.8 398.31 273.415 398.759 273.142 399.333C272.873 399.907 272.738 400.575 272.738 401.336V401.343C272.738 402.113 272.873 402.783 273.142 403.353C273.415 403.918 273.802 404.355 274.304 404.665C274.81 404.975 275.413 405.13 276.115 405.13ZM281.105 405H282.295V400.434C282.295 400.087 282.368 399.773 282.514 399.49C282.664 399.203 282.867 398.975 283.122 398.807C283.382 398.638 283.671 398.554 283.99 398.554C284.3 398.554 284.569 398.613 284.797 398.731C285.029 398.85 285.207 399.019 285.33 399.237C285.458 399.451 285.521 399.704 285.521 399.996V405H286.711V400.263C286.711 399.948 286.782 399.663 286.923 399.408C287.064 399.148 287.262 398.941 287.518 398.786C287.773 398.631 288.071 398.554 288.413 398.554C288.759 398.554 289.047 398.615 289.274 398.738C289.502 398.857 289.671 399.037 289.78 399.278C289.894 399.515 289.951 399.816 289.951 400.181V405H291.141V399.907C291.141 399.392 291.049 398.957 290.867 398.602C290.685 398.242 290.418 397.968 290.067 397.781C289.721 397.594 289.297 397.501 288.796 397.501C288.459 397.501 288.142 397.556 287.846 397.665C287.554 397.77 287.297 397.92 287.073 398.116C286.85 398.308 286.672 398.533 286.54 398.793H286.431C286.317 398.538 286.164 398.314 285.973 398.123C285.781 397.927 285.553 397.774 285.289 397.665C285.025 397.556 284.726 397.501 284.394 397.501C283.91 397.501 283.498 397.61 283.156 397.829C282.819 398.048 282.568 398.355 282.404 398.752H282.295V397.631H281.105V405ZM293.287 407.461H294.477V403.838H294.586C294.723 404.102 294.905 404.33 295.133 404.521C295.365 404.713 295.63 404.863 295.926 404.973C296.227 405.077 296.546 405.13 296.883 405.13C297.507 405.13 298.049 404.973 298.51 404.658C298.975 404.344 299.335 403.902 299.59 403.332C299.845 402.762 299.973 402.092 299.973 401.322V401.309C299.973 400.543 299.845 399.875 299.59 399.306C299.335 398.736 298.975 398.294 298.51 397.979C298.049 397.66 297.507 397.501 296.883 397.501C296.541 397.501 296.224 397.553 295.933 397.658C295.641 397.763 295.381 397.913 295.153 398.109C294.925 398.301 294.736 398.533 294.586 398.807H294.477V397.631H293.287V407.461ZM296.609 404.077C296.163 404.077 295.778 403.965 295.454 403.742C295.131 403.519 294.882 403.202 294.709 402.792C294.536 402.377 294.449 401.887 294.449 401.322V401.309C294.449 400.739 294.536 400.249 294.709 399.839C294.882 399.429 295.131 399.112 295.454 398.889C295.778 398.665 296.163 398.554 296.609 398.554C297.061 398.554 297.446 398.665 297.765 398.889C298.084 399.107 298.327 399.422 298.496 399.832C298.669 400.242 298.756 400.734 298.756 401.309V401.322C298.756 401.892 298.669 402.384 298.496 402.799C298.327 403.209 298.084 403.526 297.765 403.749C297.446 403.968 297.061 404.077 296.609 404.077ZM301.9 405H303.09V400.639C303.09 400.206 303.167 399.834 303.322 399.524C303.482 399.215 303.705 398.975 303.992 398.807C304.279 398.638 304.619 398.554 305.011 398.554C305.599 398.554 306.032 398.715 306.31 399.039C306.592 399.358 306.733 399.85 306.733 400.516V405H307.923V400.229C307.923 399.645 307.823 399.151 307.622 398.745C307.422 398.34 307.13 398.032 306.747 397.822C306.364 397.608 305.897 397.501 305.346 397.501C304.803 397.501 304.357 397.61 304.006 397.829C303.655 398.043 303.386 398.346 303.199 398.738H303.09V394.705H301.9V405ZM312.1 405.13C312.432 405.13 312.738 405.084 313.016 404.993C313.294 404.897 313.542 404.758 313.761 404.576C313.984 404.394 314.173 404.173 314.328 403.913H314.438V405H315.627V399.955C315.627 399.445 315.518 399.007 315.299 398.643C315.085 398.273 314.768 397.991 314.349 397.795C313.934 397.599 313.426 397.501 312.824 397.501C312.3 397.501 311.833 397.583 311.423 397.747C311.013 397.907 310.678 398.132 310.418 398.424C310.163 398.711 310.003 399.048 309.939 399.436L309.933 399.477H311.122L311.129 399.456C311.225 399.169 311.414 398.948 311.696 398.793C311.979 398.633 312.341 398.554 312.783 398.554C313.335 398.554 313.747 398.674 314.021 398.916C314.299 399.153 314.438 399.499 314.438 399.955V402.252C314.438 402.603 314.346 402.917 314.164 403.195C313.986 403.473 313.74 403.694 313.426 403.858C313.111 404.018 312.751 404.098 312.346 404.098C311.917 404.098 311.562 403.995 311.279 403.79C310.997 403.58 310.855 403.289 310.855 402.915V402.901C310.855 402.537 310.983 402.254 311.238 402.054C311.498 401.853 311.908 401.737 312.469 401.705L315.032 401.541V400.591L312.325 400.755C311.756 400.787 311.27 400.892 310.869 401.069C310.468 401.247 310.163 401.493 309.953 401.808C309.743 402.118 309.639 402.491 309.639 402.929V402.942C309.639 403.389 309.746 403.776 309.96 404.104C310.179 404.433 310.473 404.686 310.842 404.863C311.215 405.041 311.635 405.13 312.1 405.13ZM320.33 405.13C320.891 405.13 321.392 405.036 321.834 404.85C322.281 404.663 322.634 404.403 322.894 404.07C323.153 403.733 323.283 403.346 323.283 402.908V402.895C323.283 402.366 323.112 401.944 322.771 401.63C322.433 401.315 321.918 401.074 321.226 400.905L320.091 400.632C319.804 400.559 319.569 400.475 319.387 400.379C319.204 400.283 319.07 400.172 318.983 400.044C318.897 399.916 318.854 399.771 318.854 399.606V399.593C318.854 399.374 318.92 399.183 319.052 399.019C319.184 398.854 319.364 398.727 319.592 398.636C319.82 398.54 320.079 398.492 320.371 398.492C320.818 398.492 321.18 398.583 321.458 398.766C321.736 398.948 321.914 399.185 321.991 399.477H323.16C323.105 399.076 322.955 398.727 322.709 398.431C322.467 398.134 322.146 397.907 321.745 397.747C321.349 397.583 320.893 397.501 320.378 397.501C319.858 397.501 319.391 397.594 318.977 397.781C318.562 397.968 318.234 398.223 317.992 398.547C317.755 398.87 317.637 399.237 317.637 399.647V399.654C317.637 400.005 317.707 400.311 317.849 400.57C317.99 400.826 318.209 401.042 318.505 401.22C318.801 401.393 319.179 401.534 319.64 401.644L320.781 401.917C321.237 402.026 321.565 402.17 321.766 402.348C321.966 402.521 322.066 402.733 322.066 402.983V402.997C322.066 403.22 321.993 403.419 321.848 403.592C321.702 403.76 321.501 403.895 321.246 403.995C320.995 404.091 320.704 404.139 320.371 404.139C319.902 404.139 319.521 404.045 319.229 403.858C318.938 403.672 318.742 403.425 318.642 403.12H317.425C317.47 403.526 317.618 403.879 317.869 404.18C318.124 404.48 318.462 404.715 318.881 404.884C319.3 405.048 319.783 405.13 320.33 405.13ZM325.156 405H326.346V397.631H325.156V405ZM325.758 396.209C325.986 396.209 326.179 396.129 326.339 395.97C326.498 395.806 326.578 395.612 326.578 395.389C326.578 395.161 326.498 394.967 326.339 394.808C326.179 394.648 325.986 394.568 325.758 394.568C325.535 394.568 325.341 394.648 325.177 394.808C325.017 394.967 324.938 395.161 324.938 395.389C324.938 395.612 325.017 395.806 325.177 395.97C325.341 396.129 325.535 396.209 325.758 396.209ZM328.417 405H334.091V404.016H329.839V403.906L334.07 398.513V397.631H328.424V398.615H332.669V398.725L328.417 404.139V405ZM338.938 405.13C339.37 405.13 339.76 405.075 340.106 404.966C340.457 404.852 340.76 404.701 341.016 404.515C341.271 404.323 341.478 404.111 341.638 403.879C341.802 403.642 341.916 403.398 341.979 403.147L341.993 403.093H340.804L340.776 403.154C340.713 403.3 340.601 403.444 340.441 403.585C340.282 403.726 340.079 403.842 339.833 403.934C339.587 404.025 339.298 404.07 338.965 404.07C338.518 404.07 338.131 403.972 337.803 403.776C337.475 403.576 337.222 403.291 337.044 402.922C336.866 402.548 336.777 402.099 336.777 401.575V401.104C336.777 400.552 336.868 400.087 337.051 399.709C337.233 399.331 337.479 399.046 337.789 398.854C338.104 398.659 338.459 398.561 338.855 398.561C339.252 398.561 339.603 398.654 339.908 398.841C340.214 399.023 340.453 399.301 340.626 399.675C340.799 400.049 340.886 400.525 340.886 401.104V401.575L341.474 400.707H336.176V401.657H342.082V401.192C342.082 400.459 341.952 399.816 341.692 399.265C341.437 398.709 341.068 398.276 340.585 397.966C340.106 397.656 339.532 397.501 338.862 397.501C338.197 397.501 337.616 397.663 337.119 397.986C336.622 398.31 336.237 398.759 335.964 399.333C335.695 399.907 335.561 400.575 335.561 401.336V401.343C335.561 402.113 335.695 402.783 335.964 403.353C336.237 403.918 336.625 404.355 337.126 404.665C337.632 404.975 338.236 405.13 338.938 405.13ZM346.648 405.13C346.99 405.13 347.307 405.077 347.599 404.973C347.89 404.868 348.15 404.72 348.378 404.528C348.606 404.332 348.795 404.098 348.945 403.824H349.055V405H350.244V394.705H349.055V398.793H348.945C348.813 398.529 348.631 398.301 348.398 398.109C348.166 397.918 347.899 397.77 347.599 397.665C347.302 397.556 346.986 397.501 346.648 397.501C346.024 397.501 345.479 397.658 345.015 397.973C344.554 398.287 344.197 398.729 343.941 399.299C343.686 399.868 343.559 400.538 343.559 401.309V401.322C343.559 402.088 343.686 402.758 343.941 403.332C344.197 403.902 344.557 404.344 345.021 404.658C345.486 404.973 346.029 405.13 346.648 405.13ZM346.922 404.077C346.475 404.077 346.09 403.968 345.767 403.749C345.448 403.526 345.201 403.209 345.028 402.799C344.86 402.384 344.775 401.892 344.775 401.322V401.309C344.775 400.734 344.86 400.242 345.028 399.832C345.201 399.422 345.448 399.107 345.767 398.889C346.09 398.665 346.475 398.554 346.922 398.554C347.368 398.554 347.754 398.665 348.077 398.889C348.401 399.112 348.649 399.429 348.822 399.839C348.995 400.249 349.082 400.739 349.082 401.309V401.322C349.082 401.887 348.995 402.377 348.822 402.792C348.649 403.202 348.401 403.519 348.077 403.742C347.754 403.965 347.368 404.077 346.922 404.077ZM358.488 405.13C358.821 405.13 359.126 405.084 359.404 404.993C359.682 404.897 359.931 404.758 360.149 404.576C360.373 404.394 360.562 404.173 360.717 403.913H360.826V405H362.016V399.955C362.016 399.445 361.906 399.007 361.688 398.643C361.473 398.273 361.157 397.991 360.737 397.795C360.323 397.599 359.814 397.501 359.213 397.501C358.689 397.501 358.222 397.583 357.812 397.747C357.401 397.907 357.066 398.132 356.807 398.424C356.551 398.711 356.392 399.048 356.328 399.436L356.321 399.477H357.511L357.518 399.456C357.613 399.169 357.802 398.948 358.085 398.793C358.368 398.633 358.73 398.554 359.172 398.554C359.723 398.554 360.136 398.674 360.409 398.916C360.687 399.153 360.826 399.499 360.826 399.955V402.252C360.826 402.603 360.735 402.917 360.553 403.195C360.375 403.473 360.129 403.694 359.814 403.858C359.5 404.018 359.14 404.098 358.734 404.098C358.306 404.098 357.951 403.995 357.668 403.79C357.385 403.58 357.244 403.289 357.244 402.915V402.901C357.244 402.537 357.372 402.254 357.627 402.054C357.887 401.853 358.297 401.737 358.857 401.705L361.421 401.541V400.591L358.714 400.755C358.144 400.787 357.659 400.892 357.258 401.069C356.857 401.247 356.551 401.493 356.342 401.808C356.132 402.118 356.027 402.491 356.027 402.929V402.942C356.027 403.389 356.134 403.776 356.349 404.104C356.567 404.433 356.861 404.686 357.23 404.863C357.604 405.041 358.023 405.13 358.488 405.13ZM364.189 405H365.379V400.639C365.379 400.206 365.456 399.834 365.611 399.524C365.771 399.215 365.994 398.975 366.281 398.807C366.568 398.638 366.908 398.554 367.3 398.554C367.888 398.554 368.321 398.715 368.599 399.039C368.881 399.358 369.022 399.85 369.022 400.516V405H370.212V400.229C370.212 399.354 369.989 398.681 369.542 398.212C369.1 397.738 368.464 397.501 367.635 397.501C367.092 397.501 366.646 397.61 366.295 397.829C365.944 398.043 365.675 398.346 365.488 398.738H365.379V397.631H364.189V405ZM375.086 405.13C375.428 405.13 375.744 405.077 376.036 404.973C376.328 404.868 376.588 404.72 376.815 404.528C377.043 404.332 377.232 404.098 377.383 403.824H377.492V405H378.682V394.705H377.492V398.793H377.383C377.251 398.529 377.068 398.301 376.836 398.109C376.604 397.918 376.337 397.77 376.036 397.665C375.74 397.556 375.423 397.501 375.086 397.501C374.462 397.501 373.917 397.658 373.452 397.973C372.992 398.287 372.634 398.729 372.379 399.299C372.124 399.868 371.996 400.538 371.996 401.309V401.322C371.996 402.088 372.124 402.758 372.379 403.332C372.634 403.902 372.994 404.344 373.459 404.658C373.924 404.973 374.466 405.13 375.086 405.13ZM375.359 404.077C374.913 404.077 374.528 403.968 374.204 403.749C373.885 403.526 373.639 403.209 373.466 402.799C373.297 402.384 373.213 401.892 373.213 401.322V401.309C373.213 400.734 373.297 400.242 373.466 399.832C373.639 399.422 373.885 399.107 374.204 398.889C374.528 398.665 374.913 398.554 375.359 398.554C375.806 398.554 376.191 398.665 376.515 398.889C376.838 399.112 377.087 399.429 377.26 399.839C377.433 400.249 377.52 400.739 377.52 401.309V401.322C377.52 401.887 377.433 402.377 377.26 402.792C377.087 403.202 376.838 403.519 376.515 403.742C376.191 403.965 375.806 404.077 375.359 404.077ZM276.122 422.13C276.715 422.13 277.22 422.032 277.64 421.836C278.059 421.64 278.396 421.371 278.651 421.029C278.907 420.683 279.084 420.289 279.185 419.847L279.198 419.771L278.022 419.778L278.009 419.819C277.872 420.229 277.646 420.542 277.332 420.756C277.018 420.97 276.612 421.077 276.115 421.077C275.678 421.077 275.297 420.963 274.974 420.735C274.65 420.507 274.399 420.186 274.222 419.771C274.044 419.352 273.955 418.86 273.955 418.295V418.281C273.955 417.725 274.042 417.244 274.215 416.839C274.393 416.429 274.643 416.112 274.967 415.889C275.29 415.665 275.673 415.554 276.115 415.554C276.644 415.554 277.07 415.681 277.394 415.937C277.717 416.192 277.924 416.502 278.016 416.866L278.022 416.887H279.205L279.198 416.846C279.125 416.408 278.959 416.014 278.699 415.663C278.439 415.308 278.093 415.025 277.66 414.815C277.227 414.606 276.712 414.501 276.115 414.501C275.427 414.501 274.83 414.658 274.324 414.973C273.818 415.283 273.426 415.72 273.148 416.285C272.875 416.85 272.738 417.516 272.738 418.281V418.295C272.738 419.074 272.877 419.751 273.155 420.325C273.433 420.899 273.825 421.344 274.331 421.658C274.837 421.973 275.434 422.13 276.122 422.13ZM283.97 422.13C284.672 422.13 285.275 421.977 285.781 421.672C286.287 421.362 286.677 420.922 286.95 420.353C287.228 419.783 287.367 419.106 287.367 418.322V418.309C287.367 417.52 287.228 416.841 286.95 416.271C286.677 415.702 286.287 415.264 285.781 414.959C285.275 414.654 284.672 414.501 283.97 414.501C283.272 414.501 282.669 414.654 282.158 414.959C281.652 415.264 281.26 415.702 280.982 416.271C280.709 416.841 280.572 417.52 280.572 418.309V418.322C280.572 419.106 280.709 419.783 280.982 420.353C281.26 420.922 281.652 421.362 282.158 421.672C282.669 421.977 283.272 422.13 283.97 422.13ZM283.97 421.077C283.505 421.077 283.111 420.968 282.787 420.749C282.464 420.53 282.215 420.216 282.042 419.806C281.873 419.396 281.789 418.901 281.789 418.322V418.309C281.789 417.725 281.873 417.229 282.042 416.818C282.215 416.408 282.464 416.096 282.787 415.882C283.111 415.663 283.505 415.554 283.97 415.554C284.435 415.554 284.829 415.663 285.152 415.882C285.476 416.096 285.722 416.408 285.891 416.818C286.064 417.229 286.15 417.725 286.15 418.309V418.322C286.15 418.901 286.064 419.396 285.891 419.806C285.722 420.216 285.476 420.53 285.152 420.749C284.829 420.968 284.435 421.077 283.97 421.077ZM289.213 422H290.402V417.639C290.402 417.206 290.48 416.834 290.635 416.524C290.794 416.215 291.018 415.975 291.305 415.807C291.592 415.638 291.931 415.554 292.323 415.554C292.911 415.554 293.344 415.715 293.622 416.039C293.905 416.358 294.046 416.85 294.046 417.516V422H295.235V417.229C295.235 416.354 295.012 415.681 294.565 415.212C294.123 414.738 293.488 414.501 292.658 414.501C292.116 414.501 291.669 414.61 291.318 414.829C290.967 415.043 290.699 415.346 290.512 415.738H290.402V414.631H289.213V422ZM300.007 422.055C300.125 422.055 300.242 422.048 300.355 422.034C300.469 422.021 300.583 422.005 300.697 421.986V420.975C300.588 420.984 300.494 420.991 300.417 420.995C300.344 421 300.255 421.002 300.15 421.002C299.768 421.002 299.494 420.909 299.33 420.722C299.166 420.53 299.084 420.218 299.084 419.785V415.615H300.697V414.631H299.084V412.724H297.854V414.631H296.691V415.615H297.854V420.086C297.854 420.788 298.022 421.291 298.359 421.597C298.701 421.902 299.25 422.055 300.007 422.055ZM302.475 422H303.664V417.434C303.664 417.074 303.746 416.759 303.91 416.49C304.079 416.221 304.309 416.012 304.601 415.861C304.892 415.711 305.227 415.636 305.605 415.636C305.738 415.636 305.861 415.643 305.975 415.656C306.093 415.665 306.214 415.681 306.337 415.704V414.549C306.278 414.54 306.191 414.531 306.077 414.521C305.968 414.508 305.856 414.501 305.742 414.501C305.245 414.501 304.828 414.608 304.491 414.822C304.154 415.036 303.915 415.337 303.773 415.725H303.664V414.631H302.475V422ZM309.83 422.13C310.163 422.13 310.468 422.084 310.746 421.993C311.024 421.897 311.272 421.758 311.491 421.576C311.715 421.394 311.904 421.173 312.059 420.913H312.168V422H313.357V416.955C313.357 416.445 313.248 416.007 313.029 415.643C312.815 415.273 312.498 414.991 312.079 414.795C311.664 414.599 311.156 414.501 310.555 414.501C310.031 414.501 309.563 414.583 309.153 414.747C308.743 414.907 308.408 415.132 308.148 415.424C307.893 415.711 307.734 416.048 307.67 416.436L307.663 416.477H308.853L308.859 416.456C308.955 416.169 309.144 415.948 309.427 415.793C309.709 415.633 310.072 415.554 310.514 415.554C311.065 415.554 311.478 415.674 311.751 415.916C312.029 416.153 312.168 416.499 312.168 416.955V419.252C312.168 419.603 312.077 419.917 311.895 420.195C311.717 420.473 311.471 420.694 311.156 420.858C310.842 421.018 310.482 421.098 310.076 421.098C309.648 421.098 309.292 420.995 309.01 420.79C308.727 420.58 308.586 420.289 308.586 419.915V419.901C308.586 419.537 308.714 419.254 308.969 419.054C309.229 418.853 309.639 418.737 310.199 418.705L312.763 418.541V417.591L310.056 417.755C309.486 417.787 309.001 417.892 308.6 418.069C308.199 418.247 307.893 418.493 307.684 418.808C307.474 419.118 307.369 419.491 307.369 419.929V419.942C307.369 420.389 307.476 420.776 307.69 421.104C307.909 421.433 308.203 421.686 308.572 421.863C308.946 422.041 309.365 422.13 309.83 422.13ZM318.061 422.13C318.621 422.13 319.122 422.036 319.564 421.85C320.011 421.663 320.364 421.403 320.624 421.07C320.884 420.733 321.014 420.346 321.014 419.908V419.895C321.014 419.366 320.843 418.944 320.501 418.63C320.164 418.315 319.649 418.074 318.956 417.905L317.821 417.632C317.534 417.559 317.299 417.475 317.117 417.379C316.935 417.283 316.8 417.172 316.714 417.044C316.627 416.916 316.584 416.771 316.584 416.606V416.593C316.584 416.374 316.65 416.183 316.782 416.019C316.914 415.854 317.094 415.727 317.322 415.636C317.55 415.54 317.81 415.492 318.102 415.492C318.548 415.492 318.91 415.583 319.188 415.766C319.466 415.948 319.644 416.185 319.722 416.477H320.891C320.836 416.076 320.686 415.727 320.439 415.431C320.198 415.134 319.877 414.907 319.476 414.747C319.079 414.583 318.623 414.501 318.108 414.501C317.589 414.501 317.122 414.594 316.707 414.781C316.292 414.968 315.964 415.223 315.723 415.547C315.486 415.87 315.367 416.237 315.367 416.647V416.654C315.367 417.005 315.438 417.311 315.579 417.57C315.72 417.826 315.939 418.042 316.235 418.22C316.532 418.393 316.91 418.534 317.37 418.644L318.512 418.917C318.967 419.026 319.296 419.17 319.496 419.348C319.697 419.521 319.797 419.733 319.797 419.983V419.997C319.797 420.22 319.724 420.419 319.578 420.592C319.432 420.76 319.232 420.895 318.977 420.995C318.726 421.091 318.434 421.139 318.102 421.139C317.632 421.139 317.252 421.045 316.96 420.858C316.668 420.672 316.472 420.425 316.372 420.12H315.155C315.201 420.526 315.349 420.879 315.6 421.18C315.855 421.48 316.192 421.715 316.611 421.884C317.031 422.048 317.514 422.13 318.061 422.13ZM325.409 422.055C325.528 422.055 325.644 422.048 325.758 422.034C325.872 422.021 325.986 422.005 326.1 421.986V420.975C325.99 420.984 325.897 420.991 325.819 420.995C325.746 421 325.658 421.002 325.553 421.002C325.17 421.002 324.896 420.909 324.732 420.722C324.568 420.53 324.486 420.218 324.486 419.785V415.615H326.1V414.631H324.486V412.724H323.256V414.631H322.094V415.615H323.256V420.086C323.256 420.788 323.424 421.291 323.762 421.597C324.104 421.902 324.653 422.055 325.409 422.055ZM327.904 422H329.094V414.631H327.904V422ZM328.506 413.209C328.734 413.209 328.927 413.129 329.087 412.97C329.246 412.806 329.326 412.612 329.326 412.389C329.326 412.161 329.246 411.967 329.087 411.808C328.927 411.648 328.734 411.568 328.506 411.568C328.283 411.568 328.089 411.648 327.925 411.808C327.765 411.967 327.686 412.161 327.686 412.389C327.686 412.612 327.765 412.806 327.925 412.97C328.089 413.129 328.283 413.209 328.506 413.209ZM331.336 422H332.525V417.639C332.525 417.206 332.603 416.834 332.758 416.524C332.917 416.215 333.141 415.975 333.428 415.807C333.715 415.638 334.054 415.554 334.446 415.554C335.034 415.554 335.467 415.715 335.745 416.039C336.028 416.358 336.169 416.85 336.169 417.516V422H337.358V417.229C337.358 416.354 337.135 415.681 336.688 415.212C336.246 414.738 335.611 414.501 334.781 414.501C334.239 414.501 333.792 414.61 333.441 414.829C333.09 415.043 332.822 415.346 332.635 415.738H332.525V414.631H331.336V422ZM342.547 424.598C343.217 424.598 343.798 424.486 344.29 424.263C344.782 424.044 345.16 423.732 345.425 423.326C345.694 422.921 345.828 422.444 345.828 421.897V414.631H344.639V415.848H344.557C344.406 415.57 344.217 415.33 343.989 415.13C343.766 414.929 343.508 414.774 343.217 414.665C342.925 414.556 342.606 414.501 342.26 414.501C341.617 414.501 341.063 414.656 340.599 414.966C340.134 415.271 339.774 415.693 339.519 416.23C339.268 416.764 339.143 417.374 339.143 418.062V418.076C339.143 418.764 339.268 419.375 339.519 419.908C339.769 420.441 340.125 420.861 340.585 421.166C341.05 421.467 341.599 421.617 342.232 421.617C342.57 421.617 342.884 421.569 343.176 421.474C343.467 421.373 343.729 421.228 343.962 421.036C344.194 420.845 344.388 420.615 344.543 420.346H344.652V421.836C344.652 422.378 344.465 422.798 344.092 423.094C343.723 423.395 343.208 423.545 342.547 423.545C342.018 423.545 341.594 423.454 341.275 423.271C340.956 423.094 340.765 422.866 340.701 422.588L340.694 422.581H339.464L339.45 422.588C339.514 422.989 339.676 423.34 339.936 423.641C340.2 423.946 340.553 424.181 340.995 424.345C341.437 424.513 341.954 424.598 342.547 424.598ZM342.492 420.564C342.036 420.564 341.649 420.46 341.33 420.25C341.016 420.036 340.774 419.742 340.605 419.368C340.441 418.994 340.359 418.564 340.359 418.076V418.062C340.359 417.575 340.441 417.142 340.605 416.764C340.774 416.385 341.016 416.089 341.33 415.875C341.649 415.661 342.036 415.554 342.492 415.554C342.948 415.554 343.338 415.661 343.661 415.875C343.989 416.089 344.24 416.385 344.413 416.764C344.591 417.142 344.68 417.575 344.68 418.062V418.076C344.68 418.564 344.591 418.994 344.413 419.368C344.24 419.742 343.989 420.036 343.661 420.25C343.338 420.46 342.948 420.564 342.492 420.564ZM276.115 439.13C276.548 439.13 276.938 439.075 277.284 438.966C277.635 438.852 277.938 438.701 278.193 438.515C278.449 438.323 278.656 438.111 278.815 437.879C278.979 437.642 279.093 437.398 279.157 437.147L279.171 437.093H277.981L277.954 437.154C277.89 437.3 277.779 437.444 277.619 437.585C277.46 437.726 277.257 437.842 277.011 437.934C276.765 438.025 276.475 438.07 276.143 438.07C275.696 438.07 275.309 437.972 274.98 437.776C274.652 437.576 274.399 437.291 274.222 436.922C274.044 436.548 273.955 436.099 273.955 435.575V435.104C273.955 434.552 274.046 434.087 274.229 433.709C274.411 433.331 274.657 433.046 274.967 432.854C275.281 432.659 275.637 432.561 276.033 432.561C276.43 432.561 276.781 432.654 277.086 432.841C277.391 433.023 277.631 433.301 277.804 433.675C277.977 434.049 278.063 434.525 278.063 435.104V435.575L278.651 434.707H273.354V435.657H279.26V435.192C279.26 434.459 279.13 433.816 278.87 433.265C278.615 432.709 278.246 432.276 277.763 431.966C277.284 431.656 276.71 431.501 276.04 431.501C275.375 431.501 274.794 431.663 274.297 431.986C273.8 432.31 273.415 432.759 273.142 433.333C272.873 433.907 272.738 434.575 272.738 435.336V435.343C272.738 436.113 272.873 436.783 273.142 437.353C273.415 437.918 273.802 438.355 274.304 438.665C274.81 438.975 275.413 439.13 276.115 439.13ZM281.174 439H282.363V428.705H281.174V439ZM287.654 439.13C288.087 439.13 288.477 439.075 288.823 438.966C289.174 438.852 289.477 438.701 289.732 438.515C289.988 438.323 290.195 438.111 290.354 437.879C290.519 437.642 290.632 437.398 290.696 437.147L290.71 437.093H289.521L289.493 437.154C289.429 437.3 289.318 437.444 289.158 437.585C288.999 437.726 288.796 437.842 288.55 437.934C288.304 438.025 288.014 438.07 287.682 438.07C287.235 438.07 286.848 437.972 286.52 437.776C286.191 437.576 285.938 437.291 285.761 436.922C285.583 436.548 285.494 436.099 285.494 435.575V435.104C285.494 434.552 285.585 434.087 285.768 433.709C285.95 433.331 286.196 433.046 286.506 432.854C286.82 432.659 287.176 432.561 287.572 432.561C287.969 432.561 288.32 432.654 288.625 432.841C288.93 433.023 289.17 433.301 289.343 433.675C289.516 434.049 289.603 434.525 289.603 435.104V435.575L290.19 434.707H284.893V435.657H290.799V435.192C290.799 434.459 290.669 433.816 290.409 433.265C290.154 432.709 289.785 432.276 289.302 431.966C288.823 431.656 288.249 431.501 287.579 431.501C286.914 431.501 286.333 431.663 285.836 431.986C285.339 432.31 284.954 432.759 284.681 433.333C284.412 433.907 284.277 434.575 284.277 435.336V435.343C284.277 436.113 284.412 436.783 284.681 437.353C284.954 437.918 285.341 438.355 285.843 438.665C286.349 438.975 286.952 439.13 287.654 439.13ZM292.645 439H293.834V434.434C293.834 434.087 293.907 433.773 294.053 433.49C294.203 433.203 294.406 432.975 294.661 432.807C294.921 432.638 295.21 432.554 295.529 432.554C295.839 432.554 296.108 432.613 296.336 432.731C296.568 432.85 296.746 433.019 296.869 433.237C296.997 433.451 297.061 433.704 297.061 433.996V439H298.25V434.263C298.25 433.948 298.321 433.663 298.462 433.408C298.603 433.148 298.801 432.941 299.057 432.786C299.312 432.631 299.61 432.554 299.952 432.554C300.299 432.554 300.586 432.615 300.813 432.738C301.041 432.857 301.21 433.037 301.319 433.278C301.433 433.515 301.49 433.816 301.49 434.181V439H302.68V433.907C302.68 433.392 302.589 432.957 302.406 432.602C302.224 432.242 301.957 431.968 301.606 431.781C301.26 431.594 300.836 431.501 300.335 431.501C299.998 431.501 299.681 431.556 299.385 431.665C299.093 431.77 298.836 431.92 298.612 432.116C298.389 432.308 298.211 432.533 298.079 432.793H297.97C297.856 432.538 297.703 432.314 297.512 432.123C297.32 431.927 297.092 431.774 296.828 431.665C296.564 431.556 296.265 431.501 295.933 431.501C295.45 431.501 295.037 431.61 294.695 431.829C294.358 432.048 294.107 432.355 293.943 432.752H293.834V431.631H292.645V439ZM307.834 439.13C308.267 439.13 308.657 439.075 309.003 438.966C309.354 438.852 309.657 438.701 309.912 438.515C310.167 438.323 310.375 438.111 310.534 437.879C310.698 437.642 310.812 437.398 310.876 437.147L310.89 437.093H309.7L309.673 437.154C309.609 437.3 309.497 437.444 309.338 437.585C309.178 437.726 308.976 437.842 308.729 437.934C308.483 438.025 308.194 438.07 307.861 438.07C307.415 438.07 307.027 437.972 306.699 437.776C306.371 437.576 306.118 437.291 305.94 436.922C305.763 436.548 305.674 436.099 305.674 435.575V435.104C305.674 434.552 305.765 434.087 305.947 433.709C306.13 433.331 306.376 433.046 306.686 432.854C307 432.659 307.355 432.561 307.752 432.561C308.148 432.561 308.499 432.654 308.805 432.841C309.11 433.023 309.349 433.301 309.522 433.675C309.696 434.049 309.782 434.525 309.782 435.104V435.575L310.37 434.707H305.072V435.657H310.979V435.192C310.979 434.459 310.849 433.816 310.589 433.265C310.334 432.709 309.965 432.276 309.481 431.966C309.003 431.656 308.429 431.501 307.759 431.501C307.093 431.501 306.512 431.663 306.016 431.986C305.519 432.31 305.134 432.759 304.86 433.333C304.591 433.907 304.457 434.575 304.457 435.336V435.343C304.457 436.113 304.591 436.783 304.86 437.353C305.134 437.918 305.521 438.355 306.022 438.665C306.528 438.975 307.132 439.13 307.834 439.13ZM312.824 439H314.014V434.639C314.014 434.206 314.091 433.834 314.246 433.524C314.406 433.215 314.629 432.975 314.916 432.807C315.203 432.638 315.543 432.554 315.935 432.554C316.522 432.554 316.955 432.715 317.233 433.039C317.516 433.358 317.657 433.85 317.657 434.516V439H318.847V434.229C318.847 433.354 318.623 432.681 318.177 432.212C317.735 431.738 317.099 431.501 316.27 431.501C315.727 431.501 315.281 431.61 314.93 431.829C314.579 432.043 314.31 432.346 314.123 432.738H314.014V431.631H312.824V439ZM323.618 439.055C323.737 439.055 323.853 439.048 323.967 439.034C324.081 439.021 324.195 439.005 324.309 438.986V437.975C324.199 437.984 324.106 437.991 324.028 437.995C323.955 438 323.867 438.002 323.762 438.002C323.379 438.002 323.105 437.909 322.941 437.722C322.777 437.53 322.695 437.218 322.695 436.785V432.615H324.309V431.631H322.695V429.724H321.465V431.631H320.303V432.615H321.465V437.086C321.465 437.788 321.633 438.291 321.971 438.597C322.312 438.902 322.862 439.055 323.618 439.055ZM328.479 439.13C329.039 439.13 329.54 439.036 329.982 438.85C330.429 438.663 330.782 438.403 331.042 438.07C331.302 437.733 331.432 437.346 331.432 436.908V436.895C331.432 436.366 331.261 435.944 330.919 435.63C330.582 435.315 330.067 435.074 329.374 434.905L328.239 434.632C327.952 434.559 327.717 434.475 327.535 434.379C327.353 434.283 327.218 434.172 327.132 434.044C327.045 433.916 327.002 433.771 327.002 433.606V433.593C327.002 433.374 327.068 433.183 327.2 433.019C327.332 432.854 327.512 432.727 327.74 432.636C327.968 432.54 328.228 432.492 328.52 432.492C328.966 432.492 329.328 432.583 329.606 432.766C329.884 432.948 330.062 433.185 330.14 433.477H331.309C331.254 433.076 331.104 432.727 330.857 432.431C330.616 432.134 330.295 431.907 329.894 431.747C329.497 431.583 329.041 431.501 328.526 431.501C328.007 431.501 327.54 431.594 327.125 431.781C326.71 431.968 326.382 432.223 326.141 432.547C325.904 432.87 325.785 433.237 325.785 433.647V433.654C325.785 434.005 325.856 434.311 325.997 434.57C326.138 434.826 326.357 435.042 326.653 435.22C326.95 435.393 327.328 435.534 327.788 435.644L328.93 435.917C329.385 436.026 329.714 436.17 329.914 436.348C330.115 436.521 330.215 436.733 330.215 436.983V436.997C330.215 437.22 330.142 437.419 329.996 437.592C329.85 437.76 329.65 437.895 329.395 437.995C329.144 438.091 328.852 438.139 328.52 438.139C328.05 438.139 327.67 438.045 327.378 437.858C327.086 437.672 326.89 437.425 326.79 437.12H325.573C325.619 437.526 325.767 437.879 326.018 438.18C326.273 438.48 326.61 438.715 327.029 438.884C327.449 439.048 327.932 439.13 328.479 439.13Z" fill="white"/>
</svg>
