<svg width="304" height="137" viewBox="0 0 304 137" fill="none" xmlns="http://www.w3.org/2000/svg">
<path fill-rule="evenodd" clip-rule="evenodd" d="M173 125C173 121.661 175.359 118.786 178.635 118.135C181.91 117.484 185.19 119.237 186.467 122.322C187.745 125.408 186.665 128.966 183.889 130.821C181.112 132.676 177.411 132.312 175.05 129.95C173.737 128.637 173 126.857 173 125Z" stroke="white" stroke-width="1.5" stroke-linecap="round" stroke-linejoin="round"/>
<path d="M177.375 124.25C176.961 124.25 176.625 124.586 176.625 125C176.625 125.414 176.961 125.75 177.375 125.75V124.25ZM180 125.75C180.414 125.75 180.75 125.414 180.75 125C180.75 124.586 180.414 124.25 180 124.25V125.75ZM180 124.25C179.586 124.25 179.25 124.586 179.25 125C179.25 125.414 179.586 125.75 180 125.75V124.25ZM182.625 125.75C183.039 125.75 183.375 125.414 183.375 125C183.375 124.586 183.039 124.25 182.625 124.25V125.75ZM180.75 125C180.75 124.586 180.414 124.25 180 124.25C179.586 124.25 179.25 124.586 179.25 125H180.75ZM179.25 127.625C179.25 128.039 179.586 128.375 180 128.375C180.414 128.375 180.75 128.039 180.75 127.625H179.25ZM179.25 125C179.25 125.414 179.586 125.75 180 125.75C180.414 125.75 180.75 125.414 180.75 125H179.25ZM180.75 122.375C180.75 121.961 180.414 121.625 180 121.625C179.586 121.625 179.25 121.961 179.25 122.375H180.75ZM177.375 125.75H180V124.25H177.375V125.75ZM180 125.75H182.625V124.25H180V125.75ZM179.25 125V127.625H180.75V125H179.25ZM180.75 125V122.375H179.25V125H180.75Z" fill="white"/>
<path d="M12.0124 64.1498C12.4265 64.1398 12.7541 63.796 12.7441 63.3819C12.7342 62.9678 12.3904 62.6402 11.9763 62.6502L12.0124 64.1498ZM6.46836 69.193H7.21836C7.21836 69.1872 7.2183 69.1815 7.21816 69.1757L6.46836 69.193ZM6.46836 71.51L6.50649 72.259C6.90537 72.2387 7.21836 71.9094 7.21836 71.51H6.46836ZM6.46836 74.6L6.43024 75.349C6.44293 75.3497 6.45565 75.35 6.46836 75.35V74.6ZM9.66136 75.35C10.0756 75.35 10.4114 75.0142 10.4114 74.6C10.4114 74.1858 10.0756 73.85 9.66136 73.85V75.35ZM11.2444 63.4C11.2444 63.8142 11.5801 64.15 11.9944 64.15C12.4086 64.15 12.7444 63.8142 12.7444 63.4H11.2444ZM12.7444 61C12.7444 60.5858 12.4086 60.25 11.9944 60.25C11.5801 60.25 11.2444 60.5858 11.2444 61H12.7444ZM12.0124 62.6502C11.5983 62.6402 11.2546 62.9678 11.2446 63.3819C11.2346 63.796 11.5622 64.1398 11.9763 64.1498L12.0124 62.6502ZM17.5204 69.193L16.7706 69.1757C16.7704 69.1815 16.7704 69.1872 16.7704 69.193H17.5204ZM17.5204 71.51H16.7704C16.7704 71.9094 17.0834 72.2387 17.4822 72.259L17.5204 71.51ZM17.5204 74.6V75.35C17.5331 75.35 17.5458 75.3497 17.5585 75.349L17.5204 74.6ZM14.3274 73.85C13.9131 73.85 13.5774 74.1858 13.5774 74.6C13.5774 75.0142 13.9131 75.35 14.3274 75.35V73.85ZM10.4104 74.6027C10.4119 74.1885 10.0773 73.8515 9.66311 73.85C9.2489 73.8485 8.91188 74.183 8.91037 74.5973L10.4104 74.6027ZM10.3434 76.3L10.8842 75.7804L10.883 75.7791L10.3434 76.3ZM13.6434 76.3L13.1037 75.7791L13.1025 75.7804L13.6434 76.3ZM15.0764 74.5973C15.0748 74.183 14.7378 73.8485 14.3236 73.85C13.9094 73.8515 13.5749 74.1885 13.5764 74.6027L15.0764 74.5973ZM9.65936 73.85C9.24515 73.85 8.90936 74.1858 8.90936 74.6C8.90936 75.0142 9.24515 75.35 9.65936 75.35V73.85ZM14.3274 75.35C14.7416 75.35 15.0774 75.0142 15.0774 74.6C15.0774 74.1858 14.7416 73.85 14.3274 73.85V75.35ZM11.9763 62.6502C8.43755 62.7355 5.63691 65.6715 5.71856 69.2103L7.21816 69.1757C7.15561 66.4645 9.30128 64.2151 12.0124 64.1498L11.9763 62.6502ZM5.71836 69.193V71.51H7.21836V69.193H5.71836ZM6.43024 70.761C5.2086 70.8231 4.25 71.8318 4.25 73.055H5.75C5.75 72.6306 6.08261 72.2806 6.50649 72.259L6.43024 70.761ZM4.25 73.055C4.25 74.2782 5.2086 75.2868 6.43024 75.349L6.50649 73.851C6.08261 73.8294 5.75 73.4794 5.75 73.055H4.25ZM6.46836 75.35H9.66136V73.85H6.46836V75.35ZM12.7444 63.4V61H11.2444V63.4H12.7444ZM11.9763 64.1498C14.6874 64.2151 16.8331 66.4645 16.7706 69.1757L18.2702 69.2103C18.3518 65.6715 15.5512 62.7355 12.0124 62.6502L11.9763 64.1498ZM16.7704 69.193V71.51H18.2704V69.193H16.7704ZM17.4822 72.259C17.9061 72.2806 18.2387 72.6306 18.2387 73.055H19.7387C19.7387 71.8318 18.7801 70.8231 17.5585 70.761L17.4822 72.259ZM18.2387 73.055C18.2387 73.4794 17.9061 73.8294 17.4822 73.851L17.5585 75.349C18.7801 75.2868 19.7387 74.2782 19.7387 73.055H18.2387ZM17.5204 73.85H14.3274V75.35H17.5204V73.85ZM8.91037 74.5973C8.90733 75.4265 9.22783 76.2242 9.80374 76.8209L10.883 75.7791C10.5783 75.4635 10.4088 75.0414 10.4104 74.6027L8.91037 74.5973ZM9.8025 76.8196C10.3753 77.4159 11.1665 77.7529 11.9934 77.7529V76.2529C11.5748 76.2529 11.1742 76.0823 10.8842 75.7804L9.8025 76.8196ZM11.9934 77.7529C12.8202 77.7529 13.6114 77.4159 14.1842 76.8196L13.1025 75.7804C12.8125 76.0823 12.412 76.2529 11.9934 76.2529V77.7529ZM14.183 76.8209C14.7589 76.2242 15.0794 75.4265 15.0764 74.5973L13.5764 74.6027C13.578 75.0414 13.4084 75.4635 13.1037 75.7791L14.183 76.8209ZM9.65936 75.35H14.3274V73.85H9.65936V75.35Z" fill="white"/>
<path d="M70 120L65 125L70 130" stroke="white" stroke-width="1.5" stroke-linecap="round" stroke-linejoin="round"/>
<path d="M122 120L127 125L122 130" stroke="white" stroke-width="1.5" stroke-linecap="round" stroke-linejoin="round"/>
<path d="M230.47 129.47C230.177 129.763 230.177 130.237 230.47 130.53C230.763 130.823 231.237 130.823 231.53 130.53L230.47 129.47ZM236.53 125.53C236.823 125.237 236.823 124.763 236.53 124.47C236.237 124.177 235.763 124.177 235.47 124.47L236.53 125.53ZM235.47 124.47C235.177 124.763 235.177 125.237 235.47 125.53C235.763 125.823 236.237 125.823 236.53 125.53L235.47 124.47ZM241.53 120.53C241.823 120.237 241.823 119.763 241.53 119.47C241.237 119.177 240.763 119.177 240.47 119.47L241.53 120.53ZM236.53 124.47C236.237 124.177 235.763 124.177 235.47 124.47C235.177 124.763 235.177 125.237 235.47 125.53L236.53 124.47ZM240.47 130.53C240.763 130.823 241.237 130.823 241.53 130.53C241.823 130.237 241.823 129.763 241.53 129.47L240.47 130.53ZM235.47 125.53C235.763 125.823 236.237 125.823 236.53 125.53C236.823 125.237 236.823 124.763 236.53 124.47L235.47 125.53ZM231.53 119.47C231.237 119.177 230.763 119.177 230.47 119.47C230.177 119.763 230.177 120.237 230.47 120.53L231.53 119.47ZM231.53 130.53L236.53 125.53L235.47 124.47L230.47 129.47L231.53 130.53ZM236.53 125.53L241.53 120.53L240.47 119.47L235.47 124.47L236.53 125.53ZM235.47 125.53L240.47 130.53L241.53 129.47L236.53 124.47L235.47 125.53ZM236.53 124.47L231.53 119.47L230.47 120.53L235.47 125.53L236.53 124.47Z" fill="white"/>
<path fill-rule="evenodd" clip-rule="evenodd" d="M122.69 64.85C123.193 64.0934 123.067 63.0823 122.393 62.4731C121.718 61.8639 120.7 61.8404 119.998 62.4178C119.296 62.9952 119.123 63.9994 119.591 64.7784C120.059 65.5574 121.027 65.8762 121.866 65.528C122.202 65.388 122.488 65.1522 122.69 64.85Z" stroke="white" stroke-width="1.5" stroke-linecap="round" stroke-linejoin="round"/>
<path fill-rule="evenodd" clip-rule="evenodd" d="M122.69 75.1654C123.193 74.4088 123.067 73.3977 122.393 72.7886C121.718 72.1794 120.7 72.1558 119.998 72.7332C119.296 73.3106 119.123 74.3148 119.591 75.0938C120.059 75.8728 121.027 76.1917 121.866 75.8434C122.202 75.7034 122.488 75.4676 122.69 75.1654V75.1654Z" stroke="white" stroke-width="1.5" stroke-linecap="round" stroke-linejoin="round"/>
<path fill-rule="evenodd" clip-rule="evenodd" d="M125.31 70.0072C124.807 69.2506 124.933 68.2395 125.608 67.6303C126.282 67.0212 127.301 66.9976 128.002 67.575C128.704 68.1524 128.877 69.1566 128.409 69.9356C127.941 70.7146 126.973 71.0335 126.134 70.6852C125.799 70.5452 125.512 70.3094 125.31 70.0072V70.0072Z" stroke="white" stroke-width="1.5" stroke-linecap="round" stroke-linejoin="round"/>
<path d="M123 63.0762C122.586 63.0762 122.25 63.412 122.25 63.8262C122.25 64.2404 122.586 64.5762 123 64.5762V63.0762ZM131 64.5762C131.414 64.5762 131.75 64.2404 131.75 63.8262C131.75 63.412 131.414 63.0762 131 63.0762V64.5762ZM119.327 64.5762C119.741 64.5762 120.077 64.2404 120.077 63.8262C120.077 63.412 119.741 63.0762 119.327 63.0762V64.5762ZM117 63.0762C116.586 63.0762 116.25 63.412 116.25 63.8262C116.25 64.2404 116.586 64.5762 117 64.5762V63.0762ZM123 73.3922C122.586 73.3922 122.25 73.728 122.25 74.1422C122.25 74.5564 122.586 74.8922 123 74.8922V73.3922ZM131 74.8922C131.414 74.8922 131.75 74.5564 131.75 74.1422C131.75 73.728 131.414 73.3922 131 73.3922V74.8922ZM119.327 74.8922C119.741 74.8922 120.077 74.5564 120.077 74.1422C120.077 73.728 119.741 73.3922 119.327 73.3922V74.8922ZM117 73.3922C116.586 73.3922 116.25 73.728 116.25 74.1422C116.25 74.5564 116.586 74.8922 117 74.8922V73.3922ZM125 69.7342C125.414 69.7342 125.75 69.3984 125.75 68.9842C125.75 68.57 125.414 68.2342 125 68.2342V69.7342ZM117 68.2342C116.586 68.2342 116.25 68.57 116.25 68.9842C116.25 69.3984 116.586 69.7342 117 69.7342V68.2342ZM128.673 68.2342C128.259 68.2342 127.923 68.57 127.923 68.9842C127.923 69.3984 128.259 69.7342 128.673 69.7342V68.2342ZM131 69.7342C131.414 69.7342 131.75 69.3984 131.75 68.9842C131.75 68.57 131.414 68.2342 131 68.2342V69.7342ZM123 64.5762H131V63.0762H123V64.5762ZM119.327 63.0762H117V64.5762H119.327V63.0762ZM123 74.8922H131V73.3922H123V74.8922ZM119.327 73.3922H117V74.8922H119.327V73.3922ZM125 68.2342H117V69.7342H125V68.2342ZM128.673 69.7342H131V68.2342H128.673V69.7342Z" fill="white"/>
<path d="M294.67 68.053L290.68 72.315C290.342 72.6932 289.86 72.9119 289.352 72.9178C288.845 72.9237 288.358 72.7162 288.011 72.346C287.244 71.5454 287.257 70.2788 288.04 69.494L293.399 63.763C293.99 63.1049 294.831 62.7268 295.716 62.7216C296.601 62.7165 297.446 63.0848 298.045 63.736C299.322 65.1474 299.313 67.2995 298.024 68.7L292.342 74.771C291.533 75.5827 290.427 76.0261 289.281 75.9971C288.136 75.9682 287.053 75.4695 286.286 74.618C284.534 72.6414 284.577 69.6549 286.386 67.73L291.753 62" stroke="white" stroke-width="1.5" stroke-linecap="round" stroke-linejoin="round"/>
<path d="M4.60572 9.36198C4.25336 9.57974 4.14425 10.0419 4.362 10.3943C4.57976 10.7466 5.04193 10.8557 5.39428 10.638L4.60572 9.36198ZM7.39428 9.40198C7.74664 9.18422 7.85575 8.72205 7.638 8.3697C7.42024 8.01734 6.95807 7.90823 6.60572 8.12598L7.39428 9.40198ZM7.75 8.76398C7.75 8.34977 7.41421 8.01398 7 8.01398C6.58579 8.01398 6.25 8.34977 6.25 8.76398H7.75ZM10 17.75C10.4142 17.75 10.75 17.4142 10.75 17C10.75 16.5858 10.4142 16.25 10 16.25V17.75ZM6.60562 8.12604C6.2533 8.34385 6.14425 8.80604 6.36206 9.15836C6.57987 9.51068 7.04206 9.61973 7.39438 9.40192L6.60562 8.12604ZM11.162 6.19098L10.837 5.51504C10.8132 5.52648 10.7901 5.53916 10.7676 5.55304L11.162 6.19098ZM12.838 6.19098L13.2324 5.55304C13.2099 5.53916 13.1868 5.52648 13.163 5.51504L12.838 6.19098ZM16.6056 9.40192C16.9579 9.61973 17.4201 9.51068 17.6379 9.15836C17.8557 8.80604 17.7467 8.34385 17.3944 8.12604L16.6056 9.40192ZM9.25 17C9.25 17.4142 9.58579 17.75 10 17.75C10.4142 17.75 10.75 17.4142 10.75 17H9.25ZM13.25 17C13.25 17.4142 13.5858 17.75 14 17.75C14.4142 17.75 14.75 17.4142 14.75 17H13.25ZM10 16.25C9.58579 16.25 9.25 16.5858 9.25 17C9.25 17.4142 9.58579 17.75 10 17.75V16.25ZM14 17.75C14.4142 17.75 14.75 17.4142 14.75 17C14.75 16.5858 14.4142 16.25 14 16.25V17.75ZM14 16.25C13.5858 16.25 13.25 16.5858 13.25 17C13.25 17.4142 13.5858 17.75 14 17.75V16.25ZM17.75 8.76398C17.75 8.34977 17.4142 8.01398 17 8.01398C16.5858 8.01398 16.25 8.34977 16.25 8.76398H17.75ZM17.3943 8.12598C17.0419 7.90823 16.5798 8.01734 16.362 8.3697C16.1442 8.72205 16.2534 9.18422 16.6057 9.40198L17.3943 8.12598ZM18.6057 10.638C18.9581 10.8557 19.4202 10.7466 19.638 10.3943C19.8558 10.0419 19.7466 9.57974 19.3943 9.36198L18.6057 10.638ZM5.39428 10.638L7.39428 9.40198L6.60572 8.12598L4.60572 9.36198L5.39428 10.638ZM6.25 8.76398V15.5H7.75V8.76398H6.25ZM6.25 15.5C6.25 16.1176 6.40676 16.7486 6.93266 17.1962C7.42874 17.6184 8.11023 17.75 8.85 17.75V16.25C8.23977 16.25 7.99626 16.1317 7.90484 16.0538C7.84324 16.0014 7.75 15.8824 7.75 15.5H6.25ZM8.85 17.75H10V16.25H8.85V17.75ZM7.39438 9.40192L11.5564 6.82892L10.7676 5.55304L6.60562 8.12604L7.39438 9.40192ZM11.487 6.86692C11.8112 6.71103 12.1888 6.71103 12.513 6.86692L13.163 5.51504C12.4279 5.16165 11.5721 5.16165 10.837 5.51504L11.487 6.86692ZM12.4436 6.82892L16.6056 9.40192L17.3944 8.12604L13.2324 5.55304L12.4436 6.82892ZM10.75 17V16H9.25V17H10.75ZM10.75 16C10.75 15.3096 11.3096 14.75 12 14.75V13.25C10.4812 13.25 9.25 14.4812 9.25 16H10.75ZM12 14.75C12.6904 14.75 13.25 15.3096 13.25 16H14.75C14.75 14.4812 13.5188 13.25 12 13.25V14.75ZM13.25 16V17H14.75V16H13.25ZM10 17.75H14V16.25H10V17.75ZM14 17.75H15.15V16.25H14V17.75ZM15.15 17.75C15.8898 17.75 16.5713 17.6184 17.0673 17.1962C17.5932 16.7486 17.75 16.1176 17.75 15.5H16.25C16.25 15.8824 16.1568 16.0014 16.0952 16.0538C16.0037 16.1317 15.7602 16.25 15.15 16.25V17.75ZM17.75 15.5V8.76398H16.25V15.5H17.75ZM16.6057 9.40198L18.6057 10.638L19.3943 9.36198L17.3943 8.12598L16.6057 9.40198Z" fill="white"/>
<path fill-rule="evenodd" clip-rule="evenodd" d="M61 10.7655C61 8.01511 62.943 5.64777 65.6405 5.1113C68.3381 4.57483 71.039 6.01866 72.0913 8.55977C73.1437 11.1009 72.2544 14.0315 69.9674 15.5593C67.6804 17.0871 64.6326 16.7866 62.688 14.8415C61.6072 13.7604 61 12.2942 61 10.7655Z" stroke="white" stroke-width="1.5" stroke-linecap="round" stroke-linejoin="round"/>
<path d="M72.5288 16.5293L74.9998 19.0003" stroke="white" stroke-width="1.5" stroke-linecap="round" stroke-linejoin="round"/>
<path fill-rule="evenodd" clip-rule="evenodd" d="M120.663 6H127.338C129.376 6.01541 131.015 7.67943 131 9.717V14.23C131.007 15.2087 130.625 16.1501 129.938 16.8472C129.251 17.5442 128.316 17.9399 127.337 17.947H120.663L117 20V9.717C116.993 8.73834 117.375 7.79692 118.062 7.09984C118.749 6.40276 119.684 6.00713 120.663 6Z" stroke="white" stroke-width="1.5" stroke-linecap="round" stroke-linejoin="round"/>
<path fill-rule="evenodd" clip-rule="evenodd" d="M182.477 71H177.523C176.065 71.0724 174.773 71.963 174.187 73.3C173.48 74.688 174.891 76 176.532 76H183.468C185.11 76 186.521 74.688 185.813 73.3C185.227 71.963 183.935 71.0724 182.477 71Z" stroke="white" stroke-width="1.5" stroke-linecap="round" stroke-linejoin="round"/>
<path fill-rule="evenodd" clip-rule="evenodd" d="M183 65C183 66.6569 181.657 68 180 68C178.343 68 177 66.6569 177 65C177 63.3431 178.343 62 180 62C180.796 62 181.559 62.3161 182.121 62.8787C182.684 63.4413 183 64.2044 183 65Z" stroke="white" stroke-width="1.5" stroke-linecap="round" stroke-linejoin="round"/>
<path d="M298.617 13.1484C298.974 13.3581 299.434 13.2384 299.643 12.8811C299.853 12.5238 299.733 12.0643 299.376 11.8547L298.617 13.1484ZM286.443 5.13656L286.056 5.77902L286.064 5.78344L286.443 5.13656ZM285.424 5.1598L285.008 4.5357L285.008 4.5357L285.424 5.1598ZM285.01 6.09156L284.268 6.20151C284.276 6.25101 284.288 6.29965 284.305 6.34671L285.01 6.09156ZM286.624 12.7567C286.765 13.1462 287.195 13.3477 287.584 13.2068C287.974 13.0659 288.175 12.6359 288.035 12.2464L286.624 12.7567ZM299.376 13.1484C299.733 12.9388 299.853 12.4793 299.643 12.122C299.434 11.7648 298.974 11.6451 298.617 11.8547L299.376 13.1484ZM286.443 19.8666L286.064 19.2196L286.056 19.2241L286.443 19.8666ZM285.424 19.8433L285.008 20.4674H285.008L285.424 19.8433ZM285.01 18.9116L284.305 18.6564C284.288 18.7035 284.276 18.7521 284.268 18.8016L285.01 18.9116ZM288.035 12.7567C288.175 12.3672 287.974 11.9372 287.584 11.7963C287.195 11.6554 286.765 11.8569 286.624 12.2464L288.035 12.7567ZM298.996 13.2516C299.411 13.2516 299.746 12.9158 299.746 12.5016C299.746 12.0873 299.411 11.7516 298.996 11.7516V13.2516ZM287.329 11.7516C286.915 11.7516 286.579 12.0873 286.579 12.5016C286.579 12.9158 286.915 13.2516 287.329 13.2516V11.7516ZM299.376 11.8547L286.823 4.48968L286.064 5.78344L298.617 13.1484L299.376 11.8547ZM286.83 4.49414C286.266 4.15419 285.556 4.17038 285.008 4.5357L285.84 5.78391C285.905 5.74055 285.989 5.73863 286.056 5.77898L286.83 4.49414ZM285.008 4.5357C284.46 4.90102 284.172 5.54987 284.268 6.20151L285.752 5.98161C285.741 5.90427 285.775 5.82727 285.84 5.78391L285.008 4.5357ZM284.305 6.34671L286.624 12.7567L288.035 12.2464L285.716 5.83641L284.305 6.34671ZM298.617 11.8547L286.064 19.2197L286.823 20.5134L299.376 13.1484L298.617 11.8547ZM286.056 19.2241C285.989 19.2645 285.905 19.2626 285.84 19.2192L285.008 20.4674C285.556 20.8327 286.266 20.8489 286.83 20.509L286.056 19.2241ZM285.84 19.2192C285.775 19.1759 285.741 19.0988 285.752 19.0215L284.268 18.8016C284.172 19.4532 284.46 20.1021 285.008 20.4674L285.84 19.2192ZM285.716 19.1667L288.035 12.7567L286.624 12.2464L284.305 18.6564L285.716 19.1667ZM298.996 11.7516H287.329V13.2516H298.996V11.7516Z" fill="white"/>
<path fill-rule="evenodd" clip-rule="evenodd" d="M8 125C8 126.105 7.10457 127 6 127C4.89543 127 4 126.105 4 125C4 123.895 4.89543 123 6 123C6.53043 123 7.03914 123.211 7.41421 123.586C7.78929 123.961 8 124.47 8 125Z" stroke="white" stroke-width="1.5" stroke-linecap="round" stroke-linejoin="round"/>
<path fill-rule="evenodd" clip-rule="evenodd" d="M14 125C14 126.105 13.1046 127 12 127C10.8954 127 10 126.105 10 125C10 123.895 10.8954 123 12 123C13.1046 123 14 123.895 14 125Z" stroke="white" stroke-width="1.5" stroke-linecap="round" stroke-linejoin="round"/>
<path fill-rule="evenodd" clip-rule="evenodd" d="M20 125C20 126.105 19.1046 127 18 127C16.8954 127 16 126.105 16 125C16 123.895 16.8954 123 18 123C19.1046 123 20 123.895 20 125Z" stroke="white" stroke-width="1.5" stroke-linecap="round" stroke-linejoin="round"/>
<path d="M228.75 7.471C228.75 7.05679 228.414 6.721 228 6.721C227.586 6.721 227.25 7.05679 227.25 7.471H228.75ZM228 18.353L228.75 18.3539V18.353H228ZM228.48 19.5168L229.011 18.9871L228.48 19.5168ZM229.643 20L229.642 20.75H229.643V20ZM242.357 20V20.75L242.358 20.75L242.357 20ZM243.52 19.5168L242.989 18.9871V18.9871L243.52 19.5168ZM244 18.353H243.25L243.25 18.3539L244 18.353ZM244 9.118L243.25 9.11709V9.118H244ZM243.52 7.95422L242.989 8.48391V8.48391L243.52 7.95422ZM242.357 7.471L242.358 6.721H242.357V7.471ZM236.536 6.721C236.122 6.721 235.786 7.05679 235.786 7.471C235.786 7.88521 236.122 8.221 236.536 8.221V6.721ZM227.25 7.471C227.25 7.88521 227.586 8.221 228 8.221C228.414 8.221 228.75 7.88521 228.75 7.471H227.25ZM228 6.647H228.75L228.75 6.64609L228 6.647ZM228.48 5.48322L229.011 6.01291V6.01291L228.48 5.48322ZM229.643 5V4.25L229.642 4.25L229.643 5ZM234.893 5L234.894 4.25H234.893V5ZM236.056 5.48322L235.525 6.01291L236.056 5.48322ZM236.536 6.647L235.786 6.64609V6.647H236.536ZM235.786 7.471C235.786 7.88521 236.122 8.221 236.536 8.221C236.95 8.221 237.286 7.88521 237.286 7.471H235.786ZM228 6.721C227.586 6.721 227.25 7.05679 227.25 7.471C227.25 7.88521 227.586 8.221 228 8.221V6.721ZM236.536 8.221C236.95 8.221 237.286 7.88521 237.286 7.471C237.286 7.05679 236.95 6.721 236.536 6.721V8.221ZM227.25 7.471V18.353H228.75V7.471H227.25ZM227.25 18.3521C227.249 18.9873 227.501 19.5968 227.949 20.0465L229.011 18.9871C228.844 18.819 228.75 18.5913 228.75 18.3539L227.25 18.3521ZM227.949 20.0465C228.398 20.4962 229.007 20.7492 229.642 20.75L229.644 19.25C229.407 19.2497 229.179 19.1551 229.011 18.9871L227.949 20.0465ZM229.643 20.75H242.357V19.25H229.643V20.75ZM242.358 20.75C242.993 20.7492 243.602 20.4962 244.051 20.0465L242.989 18.9871C242.821 19.1551 242.593 19.2497 242.356 19.25L242.358 20.75ZM244.051 20.0465C244.499 19.5968 244.751 18.9873 244.75 18.3521L243.25 18.3539C243.25 18.5913 243.156 18.819 242.989 18.9871L244.051 20.0465ZM244.75 18.353V9.118H243.25V18.353H244.75ZM244.75 9.11891C244.751 8.48372 244.499 7.87423 244.051 7.42454L242.989 8.48391C243.156 8.65196 243.25 8.87972 243.25 9.11709L244.75 9.11891ZM244.051 7.42454C243.602 6.97484 242.993 6.72177 242.358 6.721L242.356 8.221C242.593 8.22129 242.821 8.31586 242.989 8.48391L244.051 7.42454ZM242.357 6.721H236.536V8.221H242.357V6.721ZM228.75 7.471V6.647H227.25V7.471H228.75ZM228.75 6.64609C228.75 6.40872 228.844 6.18096 229.011 6.01291L227.949 4.95354C227.501 5.40323 227.249 6.01272 227.25 6.64791L228.75 6.64609ZM229.011 6.01291C229.179 5.84486 229.407 5.75029 229.644 5.75L229.642 4.25C229.007 4.25077 228.398 4.50384 227.949 4.95354L229.011 6.01291ZM229.643 5.75H234.893V4.25H229.643V5.75ZM234.892 5.75C235.129 5.75029 235.357 5.84486 235.525 6.01291L236.587 4.95354C236.138 4.50384 235.529 4.25077 234.894 4.25L234.892 5.75ZM235.525 6.01291C235.692 6.18096 235.786 6.40872 235.786 6.64609L237.286 6.64791C237.287 6.01272 237.035 5.40323 236.587 4.95354L235.525 6.01291ZM235.786 6.647V7.471H237.286V6.647H235.786ZM228 8.221H236.536V6.721H228V8.221Z" fill="white"/>
<path d="M180.794 8.95881C181.053 8.63559 181.001 8.16358 180.678 7.90453C180.355 7.64549 179.883 7.6975 179.624 8.02072L180.794 8.95881ZM174.311 15.8488L174.879 16.3385C174.885 16.3317 174.891 16.3248 174.896 16.3178L174.311 15.8488ZM174.14 16.2668L173.391 16.2179L173.391 16.2321L174.14 16.2668ZM174 19.2898L173.251 19.2551C173.249 19.2923 173.25 19.3296 173.254 19.3667L174 19.2898ZM174.787 19.9768L174.812 20.7264C174.862 20.7247 174.911 20.7181 174.96 20.7065L174.787 19.9768ZM177.787 19.2658L177.96 19.9956L177.972 19.9927L177.787 19.2658ZM178.172 19.0218L178.751 19.4991L178.757 19.491L178.172 19.0218ZM184.797 11.959C185.056 11.6358 185.004 11.1638 184.681 10.9047C184.358 10.6455 183.886 10.6974 183.627 11.0206L184.797 11.959ZM179.627 8.02052C179.368 8.34365 179.42 8.81568 179.743 9.07484C180.066 9.33399 180.538 9.28213 180.797 8.95901L179.627 8.02052ZM181.8 6.50976L182.385 6.97901C182.395 6.96672 182.404 6.95412 182.413 6.94123L181.8 6.50976ZM183.429 6.18976L183.909 5.61332C183.885 5.59344 183.86 5.57507 183.834 5.5583L183.429 6.18976ZM185.666 8.05176L186.197 7.52192C186.181 7.50561 186.164 7.49007 186.146 7.47532L185.666 8.05176ZM186.003 8.87264L186.753 8.87676V8.87676L186.003 8.87264ZM185.657 9.68976L185.132 9.15412C185.111 9.17496 185.091 9.19704 185.072 9.22025L185.657 9.68976ZM183.627 11.0203C183.368 11.3433 183.419 11.8153 183.742 12.0746C184.065 12.3339 184.538 12.2823 184.797 11.9593L183.627 11.0203ZM180.954 8.37862C180.892 7.96898 180.51 7.68666 180.101 7.74805C179.691 7.80943 179.409 8.19127 179.47 8.60091L180.954 8.37862ZM184.313 12.2329C184.723 12.1772 185.011 11.7992 184.955 11.3888C184.899 10.9783 184.521 10.6908 184.111 10.7466L184.313 12.2329ZM179.624 8.02072L173.726 15.3797L174.896 16.3178L180.794 8.95881L179.624 8.02072ZM173.743 15.359C173.536 15.5995 173.412 15.9011 173.392 16.218L174.888 16.3156C174.888 16.324 174.885 16.3321 174.879 16.3385L173.743 15.359ZM173.391 16.2321L173.251 19.2551L174.749 19.3245L174.889 16.3015L173.391 16.2321ZM173.254 19.3667C173.336 20.1586 174.016 20.7524 174.812 20.7264L174.762 19.2272C174.759 19.2273 174.758 19.2268 174.757 19.2264C174.755 19.2259 174.753 19.2249 174.751 19.2232C174.749 19.2215 174.748 19.2198 174.748 19.2185C174.747 19.2175 174.746 19.216 174.746 19.2128L173.254 19.3667ZM174.96 20.7065L177.96 19.9955L177.614 18.536L174.614 19.247L174.96 20.7065ZM177.972 19.9927C178.277 19.9151 178.55 19.7422 178.751 19.499L177.593 18.5445C177.596 18.5417 177.599 18.5397 177.602 18.5388L177.972 19.9927ZM178.757 19.491L184.797 11.959L183.627 11.0206L177.587 18.5526L178.757 19.491ZM180.797 8.95901L182.385 6.97901L181.215 6.04052L179.627 8.02052L180.797 8.95901ZM182.413 6.94123C182.552 6.74411 182.821 6.6912 183.024 6.82123L183.834 5.5583C182.954 4.99484 181.787 5.2241 181.187 6.0783L182.413 6.94123ZM182.949 6.7662L185.186 8.6282L186.146 7.47532L183.909 5.61332L182.949 6.7662ZM185.135 8.58161C185.211 8.6577 185.254 8.761 185.253 8.86852L186.753 8.87676C186.756 8.36905 186.556 7.88127 186.197 7.52192L185.135 8.58161ZM185.253 8.86852C185.252 8.97604 185.209 9.07886 185.132 9.15412L186.182 10.2254C186.545 9.87002 186.75 9.38447 186.753 8.87676L185.253 8.86852ZM185.072 9.22025L183.627 11.0203L184.797 11.9593L186.242 10.1593L185.072 9.22025ZM179.47 8.60091C179.82 10.9322 181.977 12.5503 184.313 12.2329L184.111 10.7466C182.588 10.9535 181.181 9.89855 180.954 8.37862L179.47 8.60091Z" fill="white"/>
<path d="M228.25 65.733C228.25 66.1472 228.586 66.483 229 66.483C229.414 66.483 229.75 66.1472 229.75 65.733H228.25ZM229.75 62C229.75 61.5858 229.414 61.25 229 61.25C228.586 61.25 228.25 61.5858 228.25 62H229.75ZM229 61.25C228.586 61.25 228.25 61.5858 228.25 62C228.25 62.4142 228.586 62.75 229 62.75V61.25ZM232.733 62.75C233.147 62.75 233.483 62.4142 233.483 62C233.483 61.5858 233.147 61.25 232.733 61.25V62.75ZM229.53 61.4697C229.237 61.1768 228.763 61.1768 228.47 61.4697C228.177 61.7626 228.177 62.2374 228.47 62.5303L229.53 61.4697ZM233.47 67.5303C233.763 67.8232 234.237 67.8232 234.53 67.5303C234.823 67.2374 234.823 66.7626 234.53 66.4697L233.47 67.5303ZM239.267 75.25C238.853 75.25 238.517 75.5858 238.517 76C238.517 76.4142 238.853 76.75 239.267 76.75V75.25ZM243 76.75C243.414 76.75 243.75 76.4142 243.75 76C243.75 75.5858 243.414 75.25 243 75.25V76.75ZM242.25 76C242.25 76.4142 242.586 76.75 243 76.75C243.414 76.75 243.75 76.4142 243.75 76H242.25ZM243.75 72.267C243.75 71.8528 243.414 71.517 243 71.517C242.586 71.517 242.25 71.8528 242.25 72.267H243.75ZM242.47 76.5303C242.763 76.8232 243.237 76.8232 243.53 76.5303C243.823 76.2374 243.823 75.7626 243.53 75.4697L242.47 76.5303ZM238.53 70.4697C238.237 70.1768 237.763 70.1768 237.47 70.4697C237.177 70.7626 237.177 71.2374 237.47 71.5303L238.53 70.4697ZM229.75 72.267C229.75 71.8528 229.414 71.517 229 71.517C228.586 71.517 228.25 71.8528 228.25 72.267H229.75ZM228.25 76C228.25 76.4142 228.586 76.75 229 76.75C229.414 76.75 229.75 76.4142 229.75 76H228.25ZM229 75.25C228.586 75.25 228.25 75.5858 228.25 76C228.25 76.4142 228.586 76.75 229 76.75V75.25ZM232.733 76.75C233.147 76.75 233.483 76.4142 233.483 76C233.483 75.5858 233.147 75.25 232.733 75.25V76.75ZM228.47 75.4697C228.177 75.7626 228.177 76.2374 228.47 76.5303C228.763 76.8232 229.237 76.8232 229.53 76.5303L228.47 75.4697ZM234.53 71.5303C234.823 71.2374 234.823 70.7626 234.53 70.4697C234.237 70.1768 233.763 70.1768 233.47 70.4697L234.53 71.5303ZM239.267 61.25C238.853 61.25 238.517 61.5858 238.517 62C238.517 62.4142 238.853 62.75 239.267 62.75V61.25ZM243 62.75C243.414 62.75 243.75 62.4142 243.75 62C243.75 61.5858 243.414 61.25 243 61.25V62.75ZM243.75 62C243.75 61.5858 243.414 61.25 243 61.25C242.586 61.25 242.25 61.5858 242.25 62H243.75ZM242.25 65.733C242.25 66.1472 242.586 66.483 243 66.483C243.414 66.483 243.75 66.1472 243.75 65.733H242.25ZM243.53 62.5303C243.823 62.2374 243.823 61.7626 243.53 61.4697C243.237 61.1768 242.763 61.1768 242.47 61.4697L243.53 62.5303ZM237.47 66.4697C237.177 66.7626 237.177 67.2374 237.47 67.5303C237.763 67.8232 238.237 67.8232 238.53 67.5303L237.47 66.4697ZM229.75 65.733V62H228.25V65.733H229.75ZM229 62.75H232.733V61.25H229V62.75ZM228.47 62.5303L233.47 67.5303L234.53 66.4697L229.53 61.4697L228.47 62.5303ZM239.267 76.75H243V75.25H239.267V76.75ZM243.75 76V72.267H242.25V76H243.75ZM243.53 75.4697L238.53 70.4697L237.47 71.5303L242.47 76.5303L243.53 75.4697ZM228.25 72.267V76H229.75V72.267H228.25ZM229 76.75H232.733V75.25H229V76.75ZM229.53 76.5303L234.53 71.5303L233.47 70.4697L228.47 75.4697L229.53 76.5303ZM239.267 62.75H243V61.25H239.267V62.75ZM242.25 62V65.733H243.75V62H242.25ZM242.47 61.4697L237.47 66.4697L238.53 67.5303L243.53 62.5303L242.47 61.4697Z" fill="white"/>
<path fill-rule="evenodd" clip-rule="evenodd" d="M73.2001 62.1276L74.7661 63.3746C74.9173 63.5169 75.0026 63.7157 75.0014 63.9234C75.0003 64.1311 74.9129 64.3289 74.7601 64.4696L73.5701 65.8936L69.5211 70.7226C69.4503 70.8037 69.3559 70.8607 69.2511 70.8856L67.1511 71.3616C66.8756 71.3754 66.6357 71.1751 66.6001 70.9016V68.7436C66.6072 68.6395 66.6492 68.5409 66.7191 68.4636L70.6931 63.9706L72.0571 62.3416C72.3269 61.9879 72.8206 61.8954 73.2001 62.1276Z" stroke="white" stroke-width="1.5" stroke-linecap="round" stroke-linejoin="round"/>
<path d="M67.533 64.6182C67.9472 64.6182 68.283 64.2824 68.283 63.8682C68.283 63.454 67.9472 63.1182 67.533 63.1182V64.6182ZM64.733 63.8682L64.733 63.1182L64.7312 63.1182L64.733 63.8682ZM61 67.6182L61.75 67.6182L61.75 67.6166L61 67.6182ZM61 73.2432L61.75 73.2448V73.2432H61ZM64.733 76.9932L64.7312 77.7432H64.733V76.9932ZM70.333 76.9932L70.333 77.7432L70.3348 77.7432L70.333 76.9932ZM74.066 73.2432L73.316 73.2432L73.316 73.2448L74.066 73.2432ZM74.816 69.4932C74.816 69.079 74.4802 68.7432 74.066 68.7432C73.6518 68.7432 73.316 69.079 73.316 69.4932H74.816ZM71.3863 63.684C71.2282 63.3011 70.7897 63.1189 70.4068 63.2769C70.0239 63.435 69.8417 63.8735 69.9998 64.2564L71.3863 63.684ZM73.7319 66.6215C74.1363 66.5321 74.3917 66.1317 74.3023 65.7273C74.2129 65.3228 73.8126 65.0674 73.4081 65.1568L73.7319 66.6215ZM63.8 73.4312C63.3858 73.4312 63.05 73.767 63.05 74.1812C63.05 74.5954 63.3858 74.9312 63.8 74.9312V73.4312ZM71.267 74.9312C71.6812 74.9312 72.017 74.5954 72.017 74.1812C72.017 73.767 71.6812 73.4312 71.267 73.4312V74.9312ZM67.533 63.1182H64.733V64.6182H67.533V63.1182ZM64.7312 63.1182C62.2508 63.1241 60.2447 65.1394 60.25 67.6198L61.75 67.6166C61.7465 65.9644 63.0827 64.6221 64.7348 64.6182L64.7312 63.1182ZM60.25 67.6182V73.2432H61.75V67.6182H60.25ZM60.25 73.2416C60.2447 75.722 62.2508 77.7372 64.7312 77.7432L64.7348 76.2432C63.0827 76.2392 61.7465 74.8969 61.75 73.2448L60.25 73.2416ZM64.733 77.7432H70.333V76.2432H64.733V77.7432ZM70.3348 77.7432C72.8152 77.7372 74.8213 75.722 74.816 73.2416L73.316 73.2448C73.3195 74.8969 71.9833 76.2392 70.3312 76.2432L70.3348 77.7432ZM74.816 73.2432V69.4932H73.316V73.2432H74.816ZM69.9998 64.2564C70.1947 64.7285 70.5923 65.3977 71.1866 65.9147C71.7944 66.4436 72.6679 66.8567 73.7319 66.6215L73.4081 65.1568C72.9431 65.2596 72.5391 65.1032 72.1712 64.7831C71.7897 64.4512 71.5134 63.9918 71.3863 63.684L69.9998 64.2564ZM63.8 74.9312H71.267V73.4312H63.8V74.9312Z" fill="white"/>
<path fill-rule="evenodd" clip-rule="evenodd" d="M285 123V129C285 131.209 286.791 133 289 133H295C297.209 133 299 131.209 299 129V123C299 120.791 297.209 119 295 119H289C286.791 119 285 120.791 285 123Z" stroke="white" stroke-width="1.5" stroke-linecap="round" stroke-linejoin="round"/>
<path d="M294.25 120C294.25 120.414 294.586 120.75 295 120.75C295.414 120.75 295.75 120.414 295.75 120H294.25ZM295.75 117C295.75 116.586 295.414 116.25 295 116.25C294.586 116.25 294.25 116.586 294.25 117H295.75ZM288.25 120C288.25 120.414 288.586 120.75 289 120.75C289.414 120.75 289.75 120.414 289.75 120H288.25ZM289.75 117C289.75 116.586 289.414 116.25 289 116.25C288.586 116.25 288.25 116.586 288.25 117H289.75ZM288.25 124.286C288.25 124.7 288.586 125.036 289 125.036C289.414 125.036 289.75 124.7 289.75 124.286H288.25ZM292 124.286L292.749 124.331C292.75 124.316 292.75 124.301 292.75 124.286H292ZM291.364 125.567L291.852 126.137L291.852 126.137L291.364 125.567ZM290 126L289.929 125.253C289.544 125.29 289.25 125.613 289.25 126C289.25 126.387 289.544 126.71 289.929 126.747L290 126ZM291.364 126.433L291.852 125.863L291.852 125.863L291.364 126.433ZM292 127.714H292.75C292.75 127.699 292.75 127.684 292.749 127.669L292 127.714ZM289.75 127.714C289.75 127.3 289.414 126.964 289 126.964C288.586 126.964 288.25 127.3 288.25 127.714H289.75ZM293.512 123.288C293.197 123.557 293.161 124.031 293.431 124.345C293.7 124.66 294.174 124.696 294.488 124.426L293.512 123.288ZM295 123H295.75C295.75 122.707 295.58 122.441 295.313 122.319C295.047 122.196 294.734 122.24 294.512 122.431L295 123ZM294.25 129C294.25 129.414 294.586 129.75 295 129.75C295.414 129.75 295.75 129.414 295.75 129H294.25ZM295.75 120V117H294.25V120H295.75ZM289.75 120V117H288.25V120H289.75ZM289.75 124.286C289.75 124.105 289.817 123.999 289.923 123.918C290.05 123.822 290.256 123.751 290.5 123.751C290.744 123.751 290.95 123.822 291.077 123.918C291.183 123.999 291.25 124.105 291.25 124.286H292.75C292.75 123.61 292.442 123.073 291.986 122.725C291.55 122.393 291.006 122.251 290.5 122.251C289.994 122.251 289.45 122.393 289.014 122.725C288.558 123.073 288.25 123.61 288.25 124.286H289.75ZM291.251 124.241C291.234 124.534 291.098 124.807 290.876 124.998L291.852 126.137C292.383 125.681 292.707 125.029 292.749 124.331L291.251 124.241ZM290.876 124.998C290.653 125.189 290.362 125.281 290.071 125.253L289.929 126.747C290.626 126.813 291.32 126.592 291.852 126.137L290.876 124.998ZM290.071 126.747C290.362 126.719 290.653 126.811 290.876 127.002L291.852 125.863C291.32 125.408 290.626 125.187 289.929 125.253L290.071 126.747ZM290.876 127.002C291.098 127.193 291.234 127.466 291.251 127.759L292.749 127.669C292.707 126.971 292.383 126.319 291.852 125.863L290.876 127.002ZM291.25 127.714C291.25 127.895 291.183 128.001 291.077 128.082C290.95 128.178 290.744 128.249 290.5 128.249C290.256 128.249 290.05 128.178 289.923 128.082C289.817 128.001 289.75 127.895 289.75 127.714H288.25C288.25 128.39 288.558 128.927 289.014 129.275C289.45 129.607 289.994 129.749 290.5 129.749C291.006 129.749 291.55 129.607 291.986 129.275C292.442 128.927 292.75 128.39 292.75 127.714H291.25ZM294.488 124.426L295.488 123.569L294.512 122.431L293.512 123.288L294.488 124.426ZM294.25 123V129H295.75V123H294.25Z" fill="white"/>
</svg>
