<svg width="400" height="544" viewBox="0 0 400 544" fill="none" xmlns="http://www.w3.org/2000/svg">
<rect width="240" height="240" rx="32" fill="black"/>
<rect y="304" width="240" height="240" rx="32" fill="white"/>
<path d="M112.064 215.85L112.201 215.171H111.098L111.469 213.335H110.771L110.395 215.171H108.871L109.247 213.335H108.539L108.168 215.171H107.128L106.996 215.85H108.031L107.709 217.432H106.659L106.522 218.11H107.562L107.182 220H107.885L108.271 218.11H109.794L109.408 220H110.111L110.492 218.11H111.591L111.723 217.432H110.629L110.956 215.85H112.064ZM108.725 215.825H110.272L109.94 217.451H108.388L108.725 215.825ZM114.964 216.553C114.964 216.019 115.024 215.56 115.145 215.176C115.268 214.788 115.441 214.492 115.662 214.287C115.887 214.079 116.15 213.975 116.453 213.975C116.762 213.975 117.028 214.079 117.249 214.287C117.47 214.492 117.641 214.788 117.762 215.176C117.882 215.56 117.942 216.019 117.942 216.553V216.787C117.942 217.321 117.882 217.78 117.762 218.164C117.641 218.548 117.47 218.844 117.249 219.053C117.028 219.258 116.762 219.36 116.453 219.36C116.15 219.36 115.887 219.258 115.662 219.053C115.441 218.844 115.268 218.548 115.145 218.164C115.024 217.78 114.964 217.321 114.964 216.787V216.553ZM114.07 216.797C114.07 217.471 114.163 218.058 114.349 218.56C114.537 219.058 114.809 219.445 115.164 219.722C115.522 219.998 115.952 220.137 116.453 220.137C116.831 220.137 117.168 220.059 117.464 219.902C117.76 219.746 118.009 219.521 118.211 219.229C118.416 218.932 118.571 218.579 118.675 218.169C118.782 217.759 118.836 217.301 118.836 216.797V216.548C118.836 215.871 118.743 215.283 118.558 214.785C118.372 214.284 118.102 213.895 117.747 213.618C117.396 213.338 116.967 213.198 116.463 213.198C115.958 213.198 115.527 213.338 115.169 213.618C114.814 213.895 114.542 214.285 114.354 214.79C114.165 215.291 114.07 215.877 114.07 216.548V216.797ZM122.058 216.553C122.058 216.019 122.118 215.56 122.238 215.176C122.362 214.788 122.535 214.492 122.756 214.287C122.98 214.079 123.244 213.975 123.547 213.975C123.856 213.975 124.121 214.079 124.343 214.287C124.564 214.492 124.735 214.788 124.855 215.176C124.976 215.56 125.036 216.019 125.036 216.553V216.787C125.036 217.321 124.976 217.78 124.855 218.164C124.735 218.548 124.564 218.844 124.343 219.053C124.121 219.258 123.856 219.36 123.547 219.36C123.244 219.36 122.98 219.258 122.756 219.053C122.535 218.844 122.362 218.548 122.238 218.164C122.118 217.78 122.058 217.321 122.058 216.787V216.553ZM121.164 216.797C121.164 217.471 121.257 218.058 121.442 218.56C121.631 219.058 121.903 219.445 122.258 219.722C122.616 219.998 123.046 220.137 123.547 220.137C123.924 220.137 124.261 220.059 124.558 219.902C124.854 219.746 125.103 219.521 125.305 219.229C125.51 218.932 125.664 218.579 125.769 218.169C125.876 217.759 125.93 217.301 125.93 216.797V216.548C125.93 215.871 125.837 215.283 125.651 214.785C125.466 214.284 125.196 213.895 124.841 213.618C124.489 213.338 124.061 213.198 123.557 213.198C123.052 213.198 122.621 213.338 122.263 213.618C121.908 213.895 121.636 214.285 121.447 214.79C121.258 215.291 121.164 215.877 121.164 216.548V216.797ZM129.151 216.553C129.151 216.019 129.212 215.56 129.332 215.176C129.456 214.788 129.628 214.492 129.85 214.287C130.074 214.079 130.338 213.975 130.641 213.975C130.95 213.975 131.215 214.079 131.437 214.287C131.658 214.492 131.829 214.788 131.949 215.176C132.07 215.56 132.13 216.019 132.13 216.553V216.787C132.13 217.321 132.07 217.78 131.949 218.164C131.829 218.548 131.658 218.844 131.437 219.053C131.215 219.258 130.95 219.36 130.641 219.36C130.338 219.36 130.074 219.258 129.85 219.053C129.628 218.844 129.456 218.548 129.332 218.164C129.212 217.78 129.151 217.321 129.151 216.787V216.553ZM128.258 216.797C128.258 217.471 128.351 218.058 128.536 218.56C128.725 219.058 128.997 219.445 129.352 219.722C129.71 219.998 130.139 220.137 130.641 220.137C131.018 220.137 131.355 220.059 131.651 219.902C131.948 219.746 132.197 219.521 132.398 219.229C132.604 218.932 132.758 218.579 132.862 218.169C132.97 217.759 133.023 217.301 133.023 216.797V216.548C133.023 215.871 132.931 215.283 132.745 214.785C132.56 214.284 132.289 213.895 131.935 213.618C131.583 213.338 131.155 213.198 130.65 213.198C130.146 213.198 129.715 213.338 129.356 213.618C129.002 213.895 128.73 214.285 128.541 214.79C128.352 215.291 128.258 215.877 128.258 216.548V216.797Z" fill="white"/>
<path d="M113.236 519.85L113.373 519.171H112.27L112.641 517.335H111.942L111.566 519.171H110.043L110.419 517.335H109.711L109.34 519.171H108.3L108.168 519.85H109.203L108.881 521.432H107.831L107.694 522.11H108.734L108.354 524H109.057L109.442 522.11H110.966L110.58 524H111.283L111.664 522.11H112.763L112.895 521.432H111.801L112.128 519.85H113.236ZM109.896 519.825H111.444L111.112 521.451H109.56L109.896 519.825ZM116.399 524V521.144H119.212V520.357H116.399V518.131H119.471V517.335H115.501V524H116.399ZM122.712 524V521.144H125.524V520.357H122.712V518.131H125.783V517.335H121.813V524H122.712ZM129.024 524V521.144H131.837V520.357H129.024V518.131H132.096V517.335H128.126V524H129.024Z" fill="black"/>
<path d="M280.55 14.196C281.504 13.764 282.188 12.81 282.188 11.64C282.188 9.318 280.298 8.04 277.652 8.04H273.548V21H278.066C280.82 21 282.692 19.614 282.692 17.274C282.692 15.834 281.756 14.61 280.55 14.196ZM275.726 13.548V9.858H277.796C279.074 9.858 279.884 10.596 279.884 11.802C279.884 12.684 279.452 13.278 278.786 13.494C278.444 13.53 278.066 13.548 277.688 13.548H275.726ZM275.726 15.168H278.408C279.542 15.168 280.37 15.888 280.37 17.166C280.37 18.408 279.452 19.182 278.156 19.182H275.726V15.168ZM284.883 8.04V21H287.079V8.04H284.883ZM289.784 14.394C290.36 14.034 291.494 13.638 292.682 13.638C293.996 13.638 294.824 14.088 294.824 15.402V15.744C291.332 15.258 289.154 16.338 289.154 18.552C289.154 20.28 290.414 21.234 292.016 21.234C293.852 21.234 294.806 19.776 294.968 19.38H295.004C295.004 19.38 294.95 19.65 294.968 20.064L295.004 21H297.002V15.294C297.002 13.044 295.688 11.766 293.024 11.766C291.494 11.766 290.288 12.144 289.784 12.414V14.394ZM292.502 19.524C291.746 19.524 291.26 19.056 291.26 18.372C291.26 17.346 292.304 16.644 294.77 17.04C294.77 18.3 293.798 19.524 292.502 19.524ZM301.091 16.5C301.091 14.826 302.225 13.692 303.845 13.692C304.889 13.692 305.789 14.088 306.347 14.466V12.45C305.897 12.216 305.033 11.766 303.611 11.766C300.785 11.766 298.859 13.782 298.859 16.5C298.859 19.218 300.785 21.234 303.611 21.234C305.033 21.234 305.951 20.766 306.401 20.532V18.534C305.951 18.822 304.997 19.308 303.845 19.308C302.207 19.308 301.091 18.174 301.091 16.5ZM316.806 12H314.25L310.722 16.104V8.04H308.526V21H310.686V18.39L312 16.932L314.538 21H317.04L313.674 15.78L316.806 12ZM273.873 53.4795H276.977C277.596 53.4795 278.143 53.3451 278.617 53.0762C279.091 52.8073 279.463 52.4336 279.731 51.9551C280.005 51.4766 280.142 50.9251 280.142 50.3008V50.2871C280.142 49.6628 280.005 49.1136 279.731 48.6396C279.463 48.1657 279.091 47.7965 278.617 47.5322C278.143 47.2679 277.596 47.1357 276.977 47.1357H273.873V48.2295H276.662C277.368 48.2295 277.915 48.4118 278.303 48.7764C278.69 49.141 278.884 49.6491 278.884 50.3008V50.3145C278.884 50.9616 278.69 51.4697 278.303 51.8389C277.915 52.2035 277.368 52.3857 276.662 52.3857H273.873V53.4795ZM273.258 57H274.488V47.1357H273.258V57ZM282.008 57H283.197V52.4336C283.197 52.0736 283.279 51.7591 283.443 51.4902C283.612 51.2214 283.842 51.0117 284.134 50.8613C284.425 50.7109 284.76 50.6357 285.139 50.6357C285.271 50.6357 285.394 50.6426 285.508 50.6562C285.626 50.6654 285.747 50.6813 285.87 50.7041V49.5488C285.811 49.5397 285.724 49.5306 285.61 49.5215C285.501 49.5078 285.389 49.501 285.275 49.501C284.779 49.501 284.362 49.6081 284.024 49.8223C283.687 50.0365 283.448 50.3372 283.307 50.7246H283.197V49.6309H282.008V57ZM287.367 57H288.557V49.6309H287.367V57ZM287.969 48.209C288.197 48.209 288.39 48.1292 288.55 47.9697C288.709 47.8057 288.789 47.612 288.789 47.3887C288.789 47.1608 288.709 46.9671 288.55 46.8076C288.39 46.6481 288.197 46.5684 287.969 46.5684C287.745 46.5684 287.552 46.6481 287.388 46.8076C287.228 46.9671 287.148 47.1608 287.148 47.3887C287.148 47.612 287.228 47.8057 287.388 47.9697C287.552 48.1292 287.745 48.209 287.969 48.209ZM290.799 57H291.988V52.4336C291.988 52.0872 292.061 51.7728 292.207 51.4902C292.357 51.2031 292.56 50.9753 292.815 50.8066C293.075 50.638 293.365 50.5537 293.684 50.5537C293.993 50.5537 294.262 50.613 294.49 50.7314C294.723 50.8499 294.9 51.0186 295.023 51.2373C295.151 51.4515 295.215 51.7044 295.215 51.9961V57H296.404V52.2627C296.404 51.9482 296.475 51.6634 296.616 51.4082C296.757 51.1484 296.956 50.9411 297.211 50.7861C297.466 50.6312 297.765 50.5537 298.106 50.5537C298.453 50.5537 298.74 50.6152 298.968 50.7383C299.196 50.8568 299.364 51.0368 299.474 51.2783C299.588 51.5153 299.645 51.8161 299.645 52.1807V57H300.834V51.9072C300.834 51.3923 300.743 50.957 300.561 50.6016C300.378 50.2415 300.112 49.9681 299.761 49.7812C299.414 49.5944 298.991 49.501 298.489 49.501C298.152 49.501 297.835 49.5557 297.539 49.665C297.247 49.7699 296.99 49.9202 296.767 50.1162C296.543 50.3076 296.366 50.5332 296.233 50.793H296.124C296.01 50.5378 295.857 50.3145 295.666 50.123C295.475 49.9271 295.247 49.7744 294.982 49.665C294.718 49.5557 294.42 49.501 294.087 49.501C293.604 49.501 293.191 49.6104 292.85 49.8291C292.512 50.0479 292.262 50.3555 292.098 50.752H291.988V49.6309H290.799V57ZM305.004 57.1299C305.337 57.1299 305.642 57.0843 305.92 56.9932C306.198 56.8975 306.446 56.7585 306.665 56.5762C306.888 56.3939 307.077 56.1729 307.232 55.9131H307.342V57H308.531V51.9551C308.531 51.4447 308.422 51.0072 308.203 50.6426C307.989 50.2734 307.672 49.9909 307.253 49.7949C306.838 49.599 306.33 49.501 305.729 49.501C305.204 49.501 304.737 49.583 304.327 49.7471C303.917 49.9066 303.582 50.1322 303.322 50.4238C303.067 50.7109 302.908 51.0482 302.844 51.4355L302.837 51.4766H304.026L304.033 51.4561C304.129 51.1689 304.318 50.9479 304.601 50.793C304.883 50.6335 305.245 50.5537 305.688 50.5537C306.239 50.5537 306.651 50.6745 306.925 50.916C307.203 51.153 307.342 51.4993 307.342 51.9551V54.252C307.342 54.6029 307.251 54.9173 307.068 55.1953C306.891 55.4733 306.645 55.6943 306.33 55.8584C306.016 56.0179 305.656 56.0977 305.25 56.0977C304.822 56.0977 304.466 55.9951 304.184 55.79C303.901 55.5804 303.76 55.2887 303.76 54.915V54.9014C303.76 54.5368 303.887 54.2542 304.143 54.0537C304.402 53.8532 304.812 53.737 305.373 53.7051L307.937 53.541V52.5908L305.229 52.7549C304.66 52.7868 304.174 52.8916 303.773 53.0693C303.372 53.2471 303.067 53.4932 302.857 53.8076C302.648 54.1175 302.543 54.4912 302.543 54.9287V54.9424C302.543 55.389 302.65 55.7764 302.864 56.1045C303.083 56.4326 303.377 56.6855 303.746 56.8633C304.12 57.041 304.539 57.1299 305.004 57.1299ZM310.705 57H311.895V52.4336C311.895 52.0736 311.977 51.7591 312.141 51.4902C312.309 51.2214 312.539 51.0117 312.831 50.8613C313.123 50.7109 313.458 50.6357 313.836 50.6357C313.968 50.6357 314.091 50.6426 314.205 50.6562C314.324 50.6654 314.444 50.6813 314.567 50.7041V49.5488C314.508 49.5397 314.422 49.5306 314.308 49.5215C314.198 49.5078 314.087 49.501 313.973 49.501C313.476 49.501 313.059 49.6081 312.722 49.8223C312.384 50.0365 312.145 50.3372 312.004 50.7246H311.895V49.6309H310.705V57ZM316.734 59.584C317.172 59.584 317.539 59.5202 317.835 59.3926C318.136 59.2695 318.396 59.0531 318.614 58.7432C318.838 58.4333 319.052 58.0026 319.257 57.4512L322.135 49.6309H320.884L318.621 56.4395L319.093 55.6943H318.532L319.004 56.4395L316.734 49.6309H315.463L318.19 57.0068L318.054 57.4443C317.922 57.8682 317.746 58.1667 317.527 58.3398C317.313 58.513 317.037 58.5996 316.7 58.5996C316.618 58.5996 316.534 58.5973 316.447 58.5928C316.361 58.5882 316.281 58.5791 316.208 58.5654V59.543C316.29 59.5566 316.379 59.5658 316.475 59.5703C316.57 59.5794 316.657 59.584 316.734 59.584ZM330.358 57H331.589V48.2432H334.768V47.1357H327.18V48.2432H330.358V57ZM338.158 57.1299C338.591 57.1299 338.981 57.0752 339.327 56.9658C339.678 56.8519 339.981 56.7015 340.236 56.5146C340.492 56.3232 340.699 56.1113 340.858 55.8789C341.022 55.6419 341.136 55.3981 341.2 55.1475L341.214 55.0928H340.024L339.997 55.1543C339.933 55.3001 339.822 55.4437 339.662 55.585C339.503 55.7262 339.3 55.8424 339.054 55.9336C338.808 56.0247 338.518 56.0703 338.186 56.0703C337.739 56.0703 337.352 55.9723 337.023 55.7764C336.695 55.5758 336.442 55.291 336.265 54.9219C336.087 54.5482 335.998 54.0993 335.998 53.5752V53.1035C335.998 52.5521 336.089 52.0872 336.271 51.709C336.454 51.3307 336.7 51.0459 337.01 50.8545C337.324 50.6585 337.68 50.5605 338.076 50.5605C338.473 50.5605 338.824 50.654 339.129 50.8408C339.434 51.0231 339.674 51.3011 339.847 51.6748C340.02 52.0485 340.106 52.5247 340.106 53.1035V53.5752L340.694 52.707H335.396V53.6572H341.303V53.1924C341.303 52.4587 341.173 51.8161 340.913 51.2646C340.658 50.7087 340.289 50.2757 339.806 49.9658C339.327 49.6559 338.753 49.501 338.083 49.501C337.418 49.501 336.837 49.6628 336.34 49.9863C335.843 50.3099 335.458 50.7588 335.185 51.333C334.916 51.9072 334.781 52.5749 334.781 53.3359V53.3428C334.781 54.113 334.916 54.7829 335.185 55.3525C335.458 55.9176 335.845 56.3551 336.347 56.665C336.853 56.9749 337.456 57.1299 338.158 57.1299ZM342.287 57H343.62L345.37 54.2178H345.479L347.223 57H348.617L346.081 53.2676L348.583 49.6309H347.25L345.521 52.3721H345.411L343.661 49.6309H342.26L344.81 53.3154L342.287 57ZM352.835 57.0547C352.953 57.0547 353.07 57.0479 353.184 57.0342C353.298 57.0205 353.411 57.0046 353.525 56.9863V55.9746C353.416 55.9837 353.323 55.9906 353.245 55.9951C353.172 55.9997 353.083 56.002 352.979 56.002C352.596 56.002 352.322 55.9085 352.158 55.7217C351.994 55.5303 351.912 55.2181 351.912 54.7852V50.6152H353.525V49.6309H351.912V47.7236H350.682V49.6309H349.52V50.6152H350.682V55.0859C350.682 55.7878 350.85 56.2913 351.188 56.5967C351.529 56.902 352.078 57.0547 352.835 57.0547Z" fill="white"/>
<path d="M272.09 312.04L277.598 325.198H277.67L280.352 318.808L281.036 317.062C281.234 317.62 281.504 318.232 281.738 318.808L284.402 325.198H284.474L290 312.04H287.498C286.544 314.56 285.032 318.466 284.42 320.194C283.682 318.16 282.26 314.92 281.072 312.166H281L279.596 315.478L278.804 317.368C278.354 318.43 277.922 319.492 277.652 320.194C277.364 319.312 276.95 318.142 276.482 316.936L274.574 312.04H272.09ZM291.545 312.04V325H293.741V320.536C293.741 318.952 294.803 317.764 296.297 317.764C297.521 317.764 297.773 318.7 297.773 319.744V325H299.969V319.366C299.969 317.044 298.979 315.766 296.855 315.766C295.163 315.766 294.101 316.954 293.669 317.71C293.669 317.548 293.705 317.188 293.705 316.774V312.04H291.545ZM302.62 316V325H304.816V316H302.62ZM302.44 313.408C302.44 314.146 302.944 314.632 303.718 314.632C304.474 314.632 304.996 314.146 304.996 313.408C304.996 312.652 304.474 312.166 303.718 312.166C302.944 312.166 302.44 312.652 302.44 313.408ZM306.475 316V317.746H307.843V321.724C307.843 322.03 307.861 322.336 307.861 322.624C307.969 324.568 309.337 325.234 310.705 325.234C311.677 325.234 312.451 325.036 312.865 324.82V322.984C312.415 323.182 311.803 323.362 311.245 323.362C310.579 323.362 310.003 322.984 310.003 321.868V317.746H312.559V316H310.003V313.3H307.879V316H306.475ZM318.318 315.766C315.78 315.766 313.818 317.782 313.818 320.5C313.818 323.272 315.744 325.234 318.732 325.234C320.244 325.234 321.45 324.874 322.08 324.532V322.606C321.468 322.984 320.154 323.362 318.894 323.362C317.238 323.362 316.158 322.462 316.104 320.95H322.386C322.386 320.788 322.44 320.392 322.44 319.978C322.44 317.746 321.018 315.766 318.318 315.766ZM320.316 319.672H316.104C316.212 318.538 316.986 317.53 318.282 317.53C319.632 317.53 320.334 318.538 320.316 319.672ZM277.977 363.266C278.779 363.266 279.497 363.125 280.133 362.844C280.773 362.562 281.302 362.169 281.719 361.664C282.135 361.154 282.406 360.555 282.531 359.867V359.852H281.109L281.094 359.867C280.979 360.299 280.776 360.674 280.484 360.992C280.193 361.305 279.833 361.547 279.406 361.719C278.979 361.885 278.503 361.969 277.977 361.969C277.253 361.969 276.625 361.781 276.094 361.406C275.568 361.031 275.161 360.5 274.875 359.812C274.589 359.125 274.445 358.312 274.445 357.375V357.359C274.445 356.417 274.589 355.602 274.875 354.914C275.161 354.227 275.568 353.695 276.094 353.32C276.625 352.945 277.25 352.758 277.969 352.758C278.49 352.758 278.961 352.854 279.383 353.047C279.81 353.24 280.172 353.513 280.469 353.867C280.766 354.216 280.977 354.633 281.102 355.117L281.109 355.133H282.523L282.531 355.117C282.422 354.398 282.156 353.766 281.734 353.219C281.312 352.667 280.776 352.237 280.125 351.93C279.479 351.617 278.76 351.461 277.969 351.461C276.948 351.461 276.065 351.701 275.32 352.18C274.581 352.659 274.008 353.339 273.602 354.219C273.201 355.099 273 356.146 273 357.359V357.375C273 358.583 273.201 359.628 273.602 360.508C274.008 361.388 274.583 362.068 275.328 362.547C276.073 363.026 276.956 363.266 277.977 363.266ZM288.18 363.148C288.982 363.148 289.672 362.974 290.25 362.625C290.828 362.271 291.273 361.768 291.586 361.117C291.904 360.466 292.062 359.693 292.062 358.797V358.781C292.062 357.88 291.904 357.104 291.586 356.453C291.273 355.802 290.828 355.302 290.25 354.953C289.672 354.604 288.982 354.43 288.18 354.43C287.383 354.43 286.693 354.604 286.109 354.953C285.531 355.302 285.083 355.802 284.766 356.453C284.453 357.104 284.297 357.88 284.297 358.781V358.797C284.297 359.693 284.453 360.466 284.766 361.117C285.083 361.768 285.531 362.271 286.109 362.625C286.693 362.974 287.383 363.148 288.18 363.148ZM288.18 361.945C287.648 361.945 287.198 361.82 286.828 361.57C286.458 361.32 286.174 360.961 285.977 360.492C285.784 360.023 285.688 359.458 285.688 358.797V358.781C285.688 358.115 285.784 357.547 285.977 357.078C286.174 356.609 286.458 356.253 286.828 356.008C287.198 355.758 287.648 355.633 288.18 355.633C288.711 355.633 289.161 355.758 289.531 356.008C289.901 356.253 290.182 356.609 290.375 357.078C290.573 357.547 290.672 358.115 290.672 358.781V358.797C290.672 359.458 290.573 360.023 290.375 360.492C290.182 360.961 289.901 361.32 289.531 361.57C289.161 361.82 288.711 361.945 288.18 361.945ZM294.172 363H295.531V358.016C295.531 357.521 295.62 357.096 295.797 356.742C295.979 356.388 296.234 356.115 296.562 355.922C296.891 355.729 297.279 355.633 297.727 355.633C298.398 355.633 298.893 355.818 299.211 356.188C299.534 356.552 299.695 357.115 299.695 357.875V363H301.055V357.547C301.055 356.547 300.799 355.779 300.289 355.242C299.784 354.701 299.057 354.43 298.109 354.43C297.49 354.43 296.979 354.555 296.578 354.805C296.177 355.049 295.87 355.396 295.656 355.844H295.531V354.578H294.172V363ZM306.508 363.062C306.643 363.062 306.776 363.055 306.906 363.039C307.036 363.023 307.167 363.005 307.297 362.984V361.828C307.172 361.839 307.065 361.846 306.977 361.852C306.893 361.857 306.792 361.859 306.672 361.859C306.234 361.859 305.922 361.753 305.734 361.539C305.547 361.32 305.453 360.964 305.453 360.469V355.703H307.297V354.578H305.453V352.398H304.047V354.578H302.719V355.703H304.047V360.812C304.047 361.615 304.24 362.19 304.625 362.539C305.016 362.888 305.643 363.062 306.508 363.062ZM312.656 363.148C313.151 363.148 313.596 363.086 313.992 362.961C314.393 362.831 314.74 362.659 315.031 362.445C315.323 362.227 315.56 361.984 315.742 361.719C315.93 361.448 316.06 361.169 316.133 360.883L316.148 360.82H314.789L314.758 360.891C314.685 361.057 314.557 361.221 314.375 361.383C314.193 361.544 313.961 361.677 313.68 361.781C313.398 361.885 313.068 361.938 312.688 361.938C312.177 361.938 311.734 361.826 311.359 361.602C310.984 361.372 310.695 361.047 310.492 360.625C310.289 360.198 310.188 359.685 310.188 359.086V358.547C310.188 357.917 310.292 357.385 310.5 356.953C310.708 356.521 310.99 356.195 311.344 355.977C311.703 355.753 312.109 355.641 312.562 355.641C313.016 355.641 313.417 355.747 313.766 355.961C314.115 356.169 314.388 356.487 314.586 356.914C314.784 357.341 314.883 357.885 314.883 358.547V359.086L315.555 358.094H309.5V359.18H316.25V358.648C316.25 357.81 316.102 357.076 315.805 356.445C315.513 355.81 315.091 355.315 314.539 354.961C313.992 354.607 313.336 354.43 312.57 354.43C311.81 354.43 311.146 354.615 310.578 354.984C310.01 355.354 309.57 355.867 309.258 356.523C308.951 357.18 308.797 357.943 308.797 358.812V358.82C308.797 359.701 308.951 360.466 309.258 361.117C309.57 361.763 310.013 362.263 310.586 362.617C311.164 362.971 311.854 363.148 312.656 363.148ZM318.359 363H319.719V358.016C319.719 357.521 319.807 357.096 319.984 356.742C320.167 356.388 320.422 356.115 320.75 355.922C321.078 355.729 321.466 355.633 321.914 355.633C322.586 355.633 323.081 355.818 323.398 356.188C323.721 356.552 323.883 357.115 323.883 357.875V363H325.242V357.547C325.242 356.547 324.987 355.779 324.477 355.242C323.971 354.701 323.245 354.43 322.297 354.43C321.677 354.43 321.167 354.555 320.766 354.805C320.365 355.049 320.057 355.396 319.844 355.844H319.719V354.578H318.359V363ZM330.695 363.062C330.831 363.062 330.964 363.055 331.094 363.039C331.224 363.023 331.354 363.005 331.484 362.984V361.828C331.359 361.839 331.253 361.846 331.164 361.852C331.081 361.857 330.979 361.859 330.859 361.859C330.422 361.859 330.109 361.753 329.922 361.539C329.734 361.32 329.641 360.964 329.641 360.469V355.703H331.484V354.578H329.641V352.398H328.234V354.578H326.906V355.703H328.234V360.812C328.234 361.615 328.427 362.19 328.812 362.539C329.203 362.888 329.831 363.062 330.695 363.062ZM277.453 382.148C278.167 382.148 278.786 381.969 279.312 381.609C279.844 381.25 280.255 380.745 280.547 380.094C280.839 379.438 280.984 378.672 280.984 377.797V377.781C280.984 376.901 280.839 376.135 280.547 375.484C280.255 374.833 279.844 374.328 279.312 373.969C278.786 373.609 278.167 373.43 277.453 373.43C277.068 373.43 276.703 373.492 276.359 373.617C276.021 373.737 275.719 373.906 275.453 374.125C275.193 374.344 274.984 374.604 274.828 374.906H274.703V370.234H273.344V382H274.703V380.656H274.828C275 380.969 275.216 381.237 275.477 381.461C275.737 381.68 276.034 381.849 276.367 381.969C276.701 382.089 277.062 382.148 277.453 382.148ZM277.141 380.945C276.63 380.945 276.19 380.818 275.82 380.562C275.451 380.307 275.167 379.945 274.969 379.477C274.771 379.003 274.672 378.443 274.672 377.797V377.781C274.672 377.13 274.771 376.57 274.969 376.102C275.167 375.633 275.451 375.271 275.82 375.016C276.19 374.76 276.63 374.633 277.141 374.633C277.656 374.633 278.096 374.76 278.461 375.016C278.826 375.266 279.104 375.625 279.297 376.094C279.495 376.562 279.594 377.125 279.594 377.781V377.797C279.594 378.448 279.495 379.01 279.297 379.484C279.104 379.953 278.826 380.315 278.461 380.57C278.096 380.82 277.656 380.945 277.141 380.945ZM285.406 382.148C285.786 382.148 286.135 382.096 286.453 381.992C286.771 381.883 287.055 381.724 287.305 381.516C287.56 381.307 287.776 381.055 287.953 380.758H288.078V382H289.438V376.234C289.438 375.651 289.312 375.151 289.062 374.734C288.818 374.312 288.456 373.99 287.977 373.766C287.503 373.542 286.922 373.43 286.234 373.43C285.635 373.43 285.102 373.523 284.633 373.711C284.164 373.893 283.781 374.151 283.484 374.484C283.193 374.812 283.01 375.198 282.938 375.641L282.93 375.688H284.289L284.297 375.664C284.406 375.336 284.622 375.083 284.945 374.906C285.268 374.724 285.682 374.633 286.188 374.633C286.818 374.633 287.289 374.771 287.602 375.047C287.919 375.318 288.078 375.714 288.078 376.234V378.859C288.078 379.26 287.974 379.62 287.766 379.938C287.562 380.255 287.281 380.508 286.922 380.695C286.562 380.878 286.151 380.969 285.688 380.969C285.198 380.969 284.792 380.852 284.469 380.617C284.146 380.378 283.984 380.044 283.984 379.617V379.602C283.984 379.185 284.13 378.862 284.422 378.633C284.719 378.404 285.188 378.271 285.828 378.234L288.758 378.047V376.961L285.664 377.148C285.013 377.185 284.458 377.305 284 377.508C283.542 377.711 283.193 377.992 282.953 378.352C282.714 378.706 282.594 379.133 282.594 379.633V379.648C282.594 380.159 282.716 380.602 282.961 380.977C283.211 381.352 283.547 381.641 283.969 381.844C284.396 382.047 284.875 382.148 285.406 382.148ZM295.367 382.148C296.044 382.148 296.622 382.036 297.102 381.812C297.581 381.589 297.966 381.281 298.258 380.891C298.549 380.495 298.753 380.044 298.867 379.539L298.883 379.453L297.539 379.461L297.523 379.508C297.367 379.977 297.109 380.333 296.75 380.578C296.391 380.823 295.927 380.945 295.359 380.945C294.859 380.945 294.424 380.815 294.055 380.555C293.685 380.294 293.398 379.927 293.195 379.453C292.992 378.974 292.891 378.411 292.891 377.766V377.75C292.891 377.115 292.99 376.565 293.188 376.102C293.391 375.633 293.677 375.271 294.047 375.016C294.417 374.76 294.854 374.633 295.359 374.633C295.964 374.633 296.451 374.779 296.82 375.07C297.19 375.362 297.427 375.716 297.531 376.133L297.539 376.156H298.891L298.883 376.109C298.799 375.609 298.609 375.159 298.312 374.758C298.016 374.352 297.62 374.029 297.125 373.789C296.63 373.549 296.042 373.43 295.359 373.43C294.573 373.43 293.891 373.609 293.312 373.969C292.734 374.323 292.286 374.823 291.969 375.469C291.656 376.115 291.5 376.875 291.5 377.75V377.766C291.5 378.656 291.659 379.43 291.977 380.086C292.294 380.742 292.742 381.25 293.32 381.609C293.898 381.969 294.581 382.148 295.367 382.148ZM300.953 382H302.312V370.234H300.953V382ZM306.258 382H307.969L303.969 377.008L302.969 377.875L306.258 382ZM302.141 378.969L303.398 377.758L303.727 377.438L307.727 373.578H306.078L302.438 377.258H302.078L302.141 378.969ZM312.641 384.969C313.406 384.969 314.07 384.841 314.633 384.586C315.195 384.336 315.628 383.979 315.93 383.516C316.237 383.052 316.391 382.508 316.391 381.883V373.578H315.031V374.969H314.938C314.766 374.651 314.549 374.378 314.289 374.148C314.034 373.919 313.74 373.742 313.406 373.617C313.073 373.492 312.708 373.43 312.312 373.43C311.578 373.43 310.945 373.607 310.414 373.961C309.883 374.31 309.471 374.792 309.18 375.406C308.893 376.016 308.75 376.714 308.75 377.5V377.516C308.75 378.302 308.893 379 309.18 379.609C309.466 380.219 309.872 380.698 310.398 381.047C310.93 381.391 311.557 381.562 312.281 381.562C312.667 381.562 313.026 381.508 313.359 381.398C313.693 381.284 313.992 381.117 314.258 380.898C314.523 380.68 314.745 380.417 314.922 380.109H315.047V381.812C315.047 382.432 314.833 382.911 314.406 383.25C313.984 383.594 313.396 383.766 312.641 383.766C312.036 383.766 311.552 383.661 311.188 383.453C310.823 383.25 310.604 382.99 310.531 382.672L310.523 382.664H309.117L309.102 382.672C309.174 383.13 309.359 383.531 309.656 383.875C309.958 384.224 310.362 384.492 310.867 384.68C311.372 384.872 311.964 384.969 312.641 384.969ZM312.578 380.359C312.057 380.359 311.615 380.24 311.25 380C310.891 379.755 310.615 379.419 310.422 378.992C310.234 378.565 310.141 378.073 310.141 377.516V377.5C310.141 376.943 310.234 376.448 310.422 376.016C310.615 375.583 310.891 375.245 311.25 375C311.615 374.755 312.057 374.633 312.578 374.633C313.099 374.633 313.544 374.755 313.914 375C314.289 375.245 314.576 375.583 314.773 376.016C314.977 376.448 315.078 376.943 315.078 377.5V377.516C315.078 378.073 314.977 378.565 314.773 378.992C314.576 379.419 314.289 379.755 313.914 380C313.544 380.24 313.099 380.359 312.578 380.359ZM318.922 382H320.281V376.781C320.281 376.37 320.375 376.01 320.562 375.703C320.755 375.396 321.018 375.156 321.352 374.984C321.685 374.812 322.068 374.727 322.5 374.727C322.651 374.727 322.792 374.734 322.922 374.75C323.057 374.76 323.195 374.779 323.336 374.805V373.484C323.268 373.474 323.169 373.464 323.039 373.453C322.914 373.438 322.786 373.43 322.656 373.43C322.089 373.43 321.612 373.552 321.227 373.797C320.841 374.042 320.568 374.385 320.406 374.828H320.281V373.578H318.922V382ZM328.242 382.148C329.044 382.148 329.734 381.974 330.312 381.625C330.891 381.271 331.336 380.768 331.648 380.117C331.966 379.466 332.125 378.693 332.125 377.797V377.781C332.125 376.88 331.966 376.104 331.648 375.453C331.336 374.802 330.891 374.302 330.312 373.953C329.734 373.604 329.044 373.43 328.242 373.43C327.445 373.43 326.755 373.604 326.172 373.953C325.594 374.302 325.146 374.802 324.828 375.453C324.516 376.104 324.359 376.88 324.359 377.781V377.797C324.359 378.693 324.516 379.466 324.828 380.117C325.146 380.768 325.594 381.271 326.172 381.625C326.755 381.974 327.445 382.148 328.242 382.148ZM328.242 380.945C327.711 380.945 327.26 380.82 326.891 380.57C326.521 380.32 326.237 379.961 326.039 379.492C325.846 379.023 325.75 378.458 325.75 377.797V377.781C325.75 377.115 325.846 376.547 326.039 376.078C326.237 375.609 326.521 375.253 326.891 375.008C327.26 374.758 327.711 374.633 328.242 374.633C328.773 374.633 329.224 374.758 329.594 375.008C329.964 375.253 330.245 375.609 330.438 376.078C330.635 376.547 330.734 377.115 330.734 377.781V377.797C330.734 378.458 330.635 379.023 330.438 379.492C330.245 379.961 329.964 380.32 329.594 380.57C329.224 380.82 328.773 380.945 328.242 380.945ZM337.055 382.148C337.466 382.148 337.833 382.094 338.156 381.984C338.484 381.875 338.766 381.716 339 381.508C339.234 381.294 339.419 381.039 339.555 380.742H339.68V382H341.039V373.578H339.68V378.562C339.68 378.932 339.63 379.266 339.531 379.562C339.438 379.854 339.294 380.104 339.102 380.312C338.909 380.516 338.669 380.672 338.383 380.781C338.102 380.891 337.776 380.945 337.406 380.945C336.734 380.945 336.25 380.76 335.953 380.391C335.661 380.021 335.516 379.458 335.516 378.703V373.578H334.156V379.031C334.156 379.693 334.263 380.258 334.477 380.727C334.695 381.19 335.021 381.544 335.453 381.789C335.885 382.029 336.419 382.148 337.055 382.148ZM343.578 382H344.938V377.016C344.938 376.521 345.026 376.096 345.203 375.742C345.385 375.388 345.641 375.115 345.969 374.922C346.297 374.729 346.685 374.633 347.133 374.633C347.805 374.633 348.299 374.818 348.617 375.188C348.94 375.552 349.102 376.115 349.102 376.875V382H350.461V376.547C350.461 375.547 350.206 374.779 349.695 374.242C349.19 373.701 348.464 373.43 347.516 373.43C346.896 373.43 346.385 373.555 345.984 373.805C345.583 374.049 345.276 374.396 345.062 374.844H344.938V373.578H343.578V382ZM356.031 382.148C356.422 382.148 356.784 382.089 357.117 381.969C357.451 381.849 357.747 381.68 358.008 381.461C358.268 381.237 358.484 380.969 358.656 380.656H358.781V382H360.141V370.234H358.781V374.906H358.656C358.505 374.604 358.297 374.344 358.031 374.125C357.766 373.906 357.461 373.737 357.117 373.617C356.779 373.492 356.417 373.43 356.031 373.43C355.318 373.43 354.695 373.609 354.164 373.969C353.638 374.328 353.229 374.833 352.938 375.484C352.646 376.135 352.5 376.901 352.5 377.781V377.797C352.5 378.672 352.646 379.438 352.938 380.094C353.229 380.745 353.641 381.25 354.172 381.609C354.703 381.969 355.323 382.148 356.031 382.148ZM356.344 380.945C355.833 380.945 355.393 380.82 355.023 380.57C354.659 380.315 354.378 379.953 354.18 379.484C353.987 379.01 353.891 378.448 353.891 377.797V377.781C353.891 377.125 353.987 376.562 354.18 376.094C354.378 375.625 354.659 375.266 355.023 375.016C355.393 374.76 355.833 374.633 356.344 374.633C356.854 374.633 357.294 374.76 357.664 375.016C358.034 375.271 358.318 375.633 358.516 376.102C358.714 376.57 358.812 377.13 358.812 377.781V377.797C358.812 378.443 358.714 379.003 358.516 379.477C358.318 379.945 358.034 380.307 357.664 380.562C357.294 380.818 356.854 380.945 356.344 380.945ZM362.406 384.867H363.414L364.641 380.422H363.086L362.406 384.867ZM277.453 401.148C278.167 401.148 278.786 400.969 279.312 400.609C279.844 400.25 280.255 399.745 280.547 399.094C280.839 398.438 280.984 397.672 280.984 396.797V396.781C280.984 395.901 280.839 395.135 280.547 394.484C280.255 393.833 279.844 393.328 279.312 392.969C278.786 392.609 278.167 392.43 277.453 392.43C277.068 392.43 276.703 392.492 276.359 392.617C276.021 392.737 275.719 392.906 275.453 393.125C275.193 393.344 274.984 393.604 274.828 393.906H274.703V389.234H273.344V401H274.703V399.656H274.828C275 399.969 275.216 400.237 275.477 400.461C275.737 400.68 276.034 400.849 276.367 400.969C276.701 401.089 277.062 401.148 277.453 401.148ZM277.141 399.945C276.63 399.945 276.19 399.818 275.82 399.562C275.451 399.307 275.167 398.945 274.969 398.477C274.771 398.003 274.672 397.443 274.672 396.797V396.781C274.672 396.13 274.771 395.57 274.969 395.102C275.167 394.633 275.451 394.271 275.82 394.016C276.19 393.76 276.63 393.633 277.141 393.633C277.656 393.633 278.096 393.76 278.461 394.016C278.826 394.266 279.104 394.625 279.297 395.094C279.495 395.562 279.594 396.125 279.594 396.781V396.797C279.594 397.448 279.495 398.01 279.297 398.484C279.104 398.953 278.826 399.315 278.461 399.57C278.096 399.82 277.656 399.945 277.141 399.945ZM285.914 401.148C286.326 401.148 286.693 401.094 287.016 400.984C287.344 400.875 287.625 400.716 287.859 400.508C288.094 400.294 288.279 400.039 288.414 399.742H288.539V401H289.898V392.578H288.539V397.562C288.539 397.932 288.49 398.266 288.391 398.562C288.297 398.854 288.154 399.104 287.961 399.312C287.768 399.516 287.529 399.672 287.242 399.781C286.961 399.891 286.635 399.945 286.266 399.945C285.594 399.945 285.109 399.76 284.812 399.391C284.521 399.021 284.375 398.458 284.375 397.703V392.578H283.016V398.031C283.016 398.693 283.122 399.258 283.336 399.727C283.555 400.19 283.88 400.544 284.312 400.789C284.745 401.029 285.279 401.148 285.914 401.148ZM295.43 401.062C295.565 401.062 295.698 401.055 295.828 401.039C295.958 401.023 296.089 401.005 296.219 400.984V399.828C296.094 399.839 295.987 399.846 295.898 399.852C295.815 399.857 295.714 399.859 295.594 399.859C295.156 399.859 294.844 399.753 294.656 399.539C294.469 399.32 294.375 398.964 294.375 398.469V393.703H296.219V392.578H294.375V390.398H292.969V392.578H291.641V393.703H292.969V398.812C292.969 399.615 293.161 400.19 293.547 400.539C293.938 400.888 294.565 401.062 295.43 401.062ZM301.242 401.062C301.378 401.062 301.51 401.055 301.641 401.039C301.771 401.023 301.901 401.005 302.031 400.984V399.828C301.906 399.839 301.799 399.846 301.711 399.852C301.628 399.857 301.526 399.859 301.406 399.859C300.969 399.859 300.656 399.753 300.469 399.539C300.281 399.32 300.188 398.964 300.188 398.469V393.703H302.031V392.578H300.188V390.398H298.781V392.578H297.453V393.703H298.781V398.812C298.781 399.615 298.974 400.19 299.359 400.539C299.75 400.888 300.378 401.062 301.242 401.062ZM307.414 401.148C308.216 401.148 308.906 400.974 309.484 400.625C310.062 400.271 310.508 399.768 310.82 399.117C311.138 398.466 311.297 397.693 311.297 396.797V396.781C311.297 395.88 311.138 395.104 310.82 394.453C310.508 393.802 310.062 393.302 309.484 392.953C308.906 392.604 308.216 392.43 307.414 392.43C306.617 392.43 305.927 392.604 305.344 392.953C304.766 393.302 304.318 393.802 304 394.453C303.688 395.104 303.531 395.88 303.531 396.781V396.797C303.531 397.693 303.688 398.466 304 399.117C304.318 399.768 304.766 400.271 305.344 400.625C305.927 400.974 306.617 401.148 307.414 401.148ZM307.414 399.945C306.883 399.945 306.432 399.82 306.062 399.57C305.693 399.32 305.409 398.961 305.211 398.492C305.018 398.023 304.922 397.458 304.922 396.797V396.781C304.922 396.115 305.018 395.547 305.211 395.078C305.409 394.609 305.693 394.253 306.062 394.008C306.432 393.758 306.883 393.633 307.414 393.633C307.945 393.633 308.396 393.758 308.766 394.008C309.135 394.253 309.417 394.609 309.609 395.078C309.807 395.547 309.906 396.115 309.906 396.781V396.797C309.906 397.458 309.807 398.023 309.609 398.492C309.417 398.961 309.135 399.32 308.766 399.57C308.396 399.82 307.945 399.945 307.414 399.945ZM313.406 401H314.766V396.016C314.766 395.521 314.854 395.096 315.031 394.742C315.214 394.388 315.469 394.115 315.797 393.922C316.125 393.729 316.513 393.633 316.961 393.633C317.633 393.633 318.128 393.818 318.445 394.188C318.768 394.552 318.93 395.115 318.93 395.875V401H320.289V395.547C320.289 394.547 320.034 393.779 319.523 393.242C319.018 392.701 318.292 392.43 317.344 392.43C316.724 392.43 316.214 392.555 315.812 392.805C315.411 393.049 315.104 393.396 314.891 393.844H314.766V392.578H313.406V401ZM325.641 401.148C326.281 401.148 326.854 401.042 327.359 400.828C327.87 400.615 328.273 400.318 328.57 399.938C328.867 399.552 329.016 399.109 329.016 398.609V398.594C329.016 397.99 328.82 397.508 328.43 397.148C328.044 396.789 327.456 396.513 326.664 396.32L325.367 396.008C325.039 395.924 324.771 395.828 324.562 395.719C324.354 395.609 324.201 395.482 324.102 395.336C324.003 395.19 323.953 395.023 323.953 394.836V394.82C323.953 394.57 324.029 394.352 324.18 394.164C324.331 393.977 324.536 393.831 324.797 393.727C325.057 393.617 325.354 393.562 325.688 393.562C326.198 393.562 326.612 393.667 326.93 393.875C327.247 394.083 327.451 394.354 327.539 394.688H328.875C328.812 394.229 328.641 393.831 328.359 393.492C328.083 393.154 327.716 392.893 327.258 392.711C326.805 392.523 326.284 392.43 325.695 392.43C325.102 392.43 324.568 392.536 324.094 392.75C323.62 392.964 323.245 393.255 322.969 393.625C322.698 393.995 322.562 394.414 322.562 394.883V394.891C322.562 395.292 322.643 395.641 322.805 395.938C322.966 396.229 323.216 396.477 323.555 396.68C323.893 396.878 324.326 397.039 324.852 397.164L326.156 397.477C326.677 397.602 327.052 397.766 327.281 397.969C327.51 398.167 327.625 398.409 327.625 398.695V398.711C327.625 398.966 327.542 399.193 327.375 399.391C327.208 399.583 326.979 399.737 326.688 399.852C326.401 399.961 326.068 400.016 325.688 400.016C325.151 400.016 324.716 399.909 324.383 399.695C324.049 399.482 323.826 399.201 323.711 398.852H322.32C322.372 399.315 322.542 399.719 322.828 400.062C323.12 400.406 323.505 400.674 323.984 400.867C324.464 401.055 325.016 401.148 325.641 401.148ZM330.781 403.867H331.789L333.016 399.422H331.461L330.781 403.867ZM273.266 420H274.625V415.016C274.625 414.521 274.714 414.096 274.891 413.742C275.073 413.388 275.328 413.115 275.656 412.922C275.984 412.729 276.372 412.633 276.82 412.633C277.492 412.633 277.987 412.818 278.305 413.188C278.628 413.552 278.789 414.115 278.789 414.875V420H280.148V414.547C280.148 413.547 279.893 412.779 279.383 412.242C278.878 411.701 278.151 411.43 277.203 411.43C276.583 411.43 276.073 411.555 275.672 411.805C275.271 412.049 274.964 412.396 274.75 412.844H274.625V411.578H273.266V420ZM284.922 420.148C285.302 420.148 285.651 420.096 285.969 419.992C286.286 419.883 286.57 419.724 286.82 419.516C287.076 419.307 287.292 419.055 287.469 418.758H287.594V420H288.953V414.234C288.953 413.651 288.828 413.151 288.578 412.734C288.333 412.312 287.971 411.99 287.492 411.766C287.018 411.542 286.438 411.43 285.75 411.43C285.151 411.43 284.617 411.523 284.148 411.711C283.68 411.893 283.297 412.151 283 412.484C282.708 412.812 282.526 413.198 282.453 413.641L282.445 413.688H283.805L283.812 413.664C283.922 413.336 284.138 413.083 284.461 412.906C284.784 412.724 285.198 412.633 285.703 412.633C286.333 412.633 286.805 412.771 287.117 413.047C287.435 413.318 287.594 413.714 287.594 414.234V416.859C287.594 417.26 287.49 417.62 287.281 417.938C287.078 418.255 286.797 418.508 286.438 418.695C286.078 418.878 285.667 418.969 285.203 418.969C284.714 418.969 284.307 418.852 283.984 418.617C283.661 418.378 283.5 418.044 283.5 417.617V417.602C283.5 417.185 283.646 416.862 283.938 416.633C284.234 416.404 284.703 416.271 285.344 416.234L288.273 416.047V414.961L285.18 415.148C284.529 415.185 283.974 415.305 283.516 415.508C283.057 415.711 282.708 415.992 282.469 416.352C282.229 416.706 282.109 417.133 282.109 417.633V417.648C282.109 418.159 282.232 418.602 282.477 418.977C282.727 419.352 283.062 419.641 283.484 419.844C283.911 420.047 284.391 420.148 284.922 420.148ZM293.508 420H294.883L298 411.578H296.562L294.258 418.516H294.133L291.828 411.578H290.391L293.508 420ZM299.828 420H301.188V411.578H299.828V420ZM300.516 409.953C300.776 409.953 300.997 409.862 301.18 409.68C301.362 409.492 301.453 409.271 301.453 409.016C301.453 408.755 301.362 408.534 301.18 408.352C300.997 408.169 300.776 408.078 300.516 408.078C300.26 408.078 300.039 408.169 299.852 408.352C299.669 408.534 299.578 408.755 299.578 409.016C299.578 409.271 299.669 409.492 299.852 409.68C300.039 409.862 300.26 409.953 300.516 409.953ZM307.219 422.969C307.984 422.969 308.648 422.841 309.211 422.586C309.773 422.336 310.206 421.979 310.508 421.516C310.815 421.052 310.969 420.508 310.969 419.883V411.578H309.609V412.969H309.516C309.344 412.651 309.128 412.378 308.867 412.148C308.612 411.919 308.318 411.742 307.984 411.617C307.651 411.492 307.286 411.43 306.891 411.43C306.156 411.43 305.523 411.607 304.992 411.961C304.461 412.31 304.049 412.792 303.758 413.406C303.471 414.016 303.328 414.714 303.328 415.5V415.516C303.328 416.302 303.471 417 303.758 417.609C304.044 418.219 304.451 418.698 304.977 419.047C305.508 419.391 306.135 419.562 306.859 419.562C307.245 419.562 307.604 419.508 307.938 419.398C308.271 419.284 308.57 419.117 308.836 418.898C309.102 418.68 309.323 418.417 309.5 418.109H309.625V419.812C309.625 420.432 309.411 420.911 308.984 421.25C308.562 421.594 307.974 421.766 307.219 421.766C306.615 421.766 306.13 421.661 305.766 421.453C305.401 421.25 305.182 420.99 305.109 420.672L305.102 420.664H303.695L303.68 420.672C303.753 421.13 303.938 421.531 304.234 421.875C304.536 422.224 304.94 422.492 305.445 422.68C305.951 422.872 306.542 422.969 307.219 422.969ZM307.156 418.359C306.635 418.359 306.193 418.24 305.828 418C305.469 417.755 305.193 417.419 305 416.992C304.812 416.565 304.719 416.073 304.719 415.516V415.5C304.719 414.943 304.812 414.448 305 414.016C305.193 413.583 305.469 413.245 305.828 413C306.193 412.755 306.635 412.633 307.156 412.633C307.677 412.633 308.122 412.755 308.492 413C308.867 413.245 309.154 413.583 309.352 414.016C309.555 414.448 309.656 414.943 309.656 415.5V415.516C309.656 416.073 309.555 416.565 309.352 416.992C309.154 417.419 308.867 417.755 308.492 418C308.122 418.24 307.677 418.359 307.156 418.359ZM315.812 420.148C316.193 420.148 316.542 420.096 316.859 419.992C317.177 419.883 317.461 419.724 317.711 419.516C317.966 419.307 318.182 419.055 318.359 418.758H318.484V420H319.844V414.234C319.844 413.651 319.719 413.151 319.469 412.734C319.224 412.312 318.862 411.99 318.383 411.766C317.909 411.542 317.328 411.43 316.641 411.43C316.042 411.43 315.508 411.523 315.039 411.711C314.57 411.893 314.188 412.151 313.891 412.484C313.599 412.812 313.417 413.198 313.344 413.641L313.336 413.688H314.695L314.703 413.664C314.812 413.336 315.029 413.083 315.352 412.906C315.674 412.724 316.089 412.633 316.594 412.633C317.224 412.633 317.695 412.771 318.008 413.047C318.326 413.318 318.484 413.714 318.484 414.234V416.859C318.484 417.26 318.38 417.62 318.172 417.938C317.969 418.255 317.688 418.508 317.328 418.695C316.969 418.878 316.557 418.969 316.094 418.969C315.604 418.969 315.198 418.852 314.875 418.617C314.552 418.378 314.391 418.044 314.391 417.617V417.602C314.391 417.185 314.536 416.862 314.828 416.633C315.125 416.404 315.594 416.271 316.234 416.234L319.164 416.047V414.961L316.07 415.148C315.419 415.185 314.865 415.305 314.406 415.508C313.948 415.711 313.599 415.992 313.359 416.352C313.12 416.706 313 417.133 313 417.633V417.648C313 418.159 313.122 418.602 313.367 418.977C313.617 419.352 313.953 419.641 314.375 419.844C314.802 420.047 315.281 420.148 315.812 420.148ZM325.32 420.062C325.456 420.062 325.589 420.055 325.719 420.039C325.849 420.023 325.979 420.005 326.109 419.984V418.828C325.984 418.839 325.878 418.846 325.789 418.852C325.706 418.857 325.604 418.859 325.484 418.859C325.047 418.859 324.734 418.753 324.547 418.539C324.359 418.32 324.266 417.964 324.266 417.469V412.703H326.109V411.578H324.266V409.398H322.859V411.578H321.531V412.703H322.859V417.812C322.859 418.615 323.052 419.19 323.438 419.539C323.828 419.888 324.456 420.062 325.32 420.062ZM328.172 420H329.531V411.578H328.172V420ZM328.859 409.953C329.12 409.953 329.341 409.862 329.523 409.68C329.706 409.492 329.797 409.271 329.797 409.016C329.797 408.755 329.706 408.534 329.523 408.352C329.341 408.169 329.12 408.078 328.859 408.078C328.604 408.078 328.383 408.169 328.195 408.352C328.013 408.534 327.922 408.755 327.922 409.016C327.922 409.271 328.013 409.492 328.195 409.68C328.383 409.862 328.604 409.953 328.859 409.953ZM335.555 420.148C336.357 420.148 337.047 419.974 337.625 419.625C338.203 419.271 338.648 418.768 338.961 418.117C339.279 417.466 339.438 416.693 339.438 415.797V415.781C339.438 414.88 339.279 414.104 338.961 413.453C338.648 412.802 338.203 412.302 337.625 411.953C337.047 411.604 336.357 411.43 335.555 411.43C334.758 411.43 334.068 411.604 333.484 411.953C332.906 412.302 332.458 412.802 332.141 413.453C331.828 414.104 331.672 414.88 331.672 415.781V415.797C331.672 416.693 331.828 417.466 332.141 418.117C332.458 418.768 332.906 419.271 333.484 419.625C334.068 419.974 334.758 420.148 335.555 420.148ZM335.555 418.945C335.023 418.945 334.573 418.82 334.203 418.57C333.833 418.32 333.549 417.961 333.352 417.492C333.159 417.023 333.062 416.458 333.062 415.797V415.781C333.062 415.115 333.159 414.547 333.352 414.078C333.549 413.609 333.833 413.253 334.203 413.008C334.573 412.758 335.023 412.633 335.555 412.633C336.086 412.633 336.536 412.758 336.906 413.008C337.276 413.253 337.557 413.609 337.75 414.078C337.948 414.547 338.047 415.115 338.047 415.781V415.797C338.047 416.458 337.948 417.023 337.75 417.492C337.557 417.961 337.276 418.32 336.906 418.57C336.536 418.82 336.086 418.945 335.555 418.945ZM341.547 420H342.906V415.016C342.906 414.521 342.995 414.096 343.172 413.742C343.354 413.388 343.609 413.115 343.938 412.922C344.266 412.729 344.654 412.633 345.102 412.633C345.773 412.633 346.268 412.818 346.586 413.188C346.909 413.552 347.07 414.115 347.07 414.875V420H348.43V414.547C348.43 413.547 348.174 412.779 347.664 412.242C347.159 411.701 346.432 411.43 345.484 411.43C344.865 411.43 344.354 411.555 343.953 411.805C343.552 412.049 343.245 412.396 343.031 412.844H342.906V411.578H341.547V420ZM350.547 422.867H351.555L352.781 418.422H351.227L350.547 422.867ZM276.711 439.148C277.388 439.148 277.966 439.036 278.445 438.812C278.924 438.589 279.31 438.281 279.602 437.891C279.893 437.495 280.096 437.044 280.211 436.539L280.227 436.453L278.883 436.461L278.867 436.508C278.711 436.977 278.453 437.333 278.094 437.578C277.734 437.823 277.271 437.945 276.703 437.945C276.203 437.945 275.768 437.815 275.398 437.555C275.029 437.294 274.742 436.927 274.539 436.453C274.336 435.974 274.234 435.411 274.234 434.766V434.75C274.234 434.115 274.333 433.565 274.531 433.102C274.734 432.633 275.021 432.271 275.391 432.016C275.76 431.76 276.198 431.633 276.703 431.633C277.307 431.633 277.794 431.779 278.164 432.07C278.534 432.362 278.771 432.716 278.875 433.133L278.883 433.156H280.234L280.227 433.109C280.143 432.609 279.953 432.159 279.656 431.758C279.359 431.352 278.964 431.029 278.469 430.789C277.974 430.549 277.385 430.43 276.703 430.43C275.917 430.43 275.234 430.609 274.656 430.969C274.078 431.323 273.63 431.823 273.312 432.469C273 433.115 272.844 433.875 272.844 434.75V434.766C272.844 435.656 273.003 436.43 273.32 437.086C273.638 437.742 274.086 438.25 274.664 438.609C275.242 438.969 275.924 439.148 276.711 439.148ZM285.68 439.148C286.482 439.148 287.172 438.974 287.75 438.625C288.328 438.271 288.773 437.768 289.086 437.117C289.404 436.466 289.562 435.693 289.562 434.797V434.781C289.562 433.88 289.404 433.104 289.086 432.453C288.773 431.802 288.328 431.302 287.75 430.953C287.172 430.604 286.482 430.43 285.68 430.43C284.883 430.43 284.193 430.604 283.609 430.953C283.031 431.302 282.583 431.802 282.266 432.453C281.953 433.104 281.797 433.88 281.797 434.781V434.797C281.797 435.693 281.953 436.466 282.266 437.117C282.583 437.768 283.031 438.271 283.609 438.625C284.193 438.974 284.883 439.148 285.68 439.148ZM285.68 437.945C285.148 437.945 284.698 437.82 284.328 437.57C283.958 437.32 283.674 436.961 283.477 436.492C283.284 436.023 283.188 435.458 283.188 434.797V434.781C283.188 434.115 283.284 433.547 283.477 433.078C283.674 432.609 283.958 432.253 284.328 432.008C284.698 431.758 285.148 431.633 285.68 431.633C286.211 431.633 286.661 431.758 287.031 432.008C287.401 432.253 287.682 432.609 287.875 433.078C288.073 433.547 288.172 434.115 288.172 434.781V434.797C288.172 435.458 288.073 436.023 287.875 436.492C287.682 436.961 287.401 437.32 287.031 437.57C286.661 437.82 286.211 437.945 285.68 437.945ZM291.672 439H293.031V434.016C293.031 433.521 293.12 433.096 293.297 432.742C293.479 432.388 293.734 432.115 294.062 431.922C294.391 431.729 294.779 431.633 295.227 431.633C295.898 431.633 296.393 431.818 296.711 432.188C297.034 432.552 297.195 433.115 297.195 433.875V439H298.555V433.547C298.555 432.547 298.299 431.779 297.789 431.242C297.284 430.701 296.557 430.43 295.609 430.43C294.99 430.43 294.479 430.555 294.078 430.805C293.677 431.049 293.37 431.396 293.156 431.844H293.031V430.578H291.672V439ZM304.008 439.062C304.143 439.062 304.276 439.055 304.406 439.039C304.536 439.023 304.667 439.005 304.797 438.984V437.828C304.672 437.839 304.565 437.846 304.477 437.852C304.393 437.857 304.292 437.859 304.172 437.859C303.734 437.859 303.422 437.753 303.234 437.539C303.047 437.32 302.953 436.964 302.953 436.469V431.703H304.797V430.578H302.953V428.398H301.547V430.578H300.219V431.703H301.547V436.812C301.547 437.615 301.74 438.19 302.125 438.539C302.516 438.888 303.143 439.062 304.008 439.062ZM306.828 439H308.188V433.781C308.188 433.37 308.281 433.01 308.469 432.703C308.661 432.396 308.924 432.156 309.258 431.984C309.591 431.812 309.974 431.727 310.406 431.727C310.557 431.727 310.698 431.734 310.828 431.75C310.964 431.76 311.102 431.779 311.242 431.805V430.484C311.174 430.474 311.076 430.464 310.945 430.453C310.82 430.438 310.693 430.43 310.562 430.43C309.995 430.43 309.518 430.552 309.133 430.797C308.747 431.042 308.474 431.385 308.312 431.828H308.188V430.578H306.828V439ZM315.234 439.148C315.615 439.148 315.964 439.096 316.281 438.992C316.599 438.883 316.883 438.724 317.133 438.516C317.388 438.307 317.604 438.055 317.781 437.758H317.906V439H319.266V433.234C319.266 432.651 319.141 432.151 318.891 431.734C318.646 431.312 318.284 430.99 317.805 430.766C317.331 430.542 316.75 430.43 316.062 430.43C315.464 430.43 314.93 430.523 314.461 430.711C313.992 430.893 313.609 431.151 313.312 431.484C313.021 431.812 312.839 432.198 312.766 432.641L312.758 432.688H314.117L314.125 432.664C314.234 432.336 314.451 432.083 314.773 431.906C315.096 431.724 315.51 431.633 316.016 431.633C316.646 431.633 317.117 431.771 317.43 432.047C317.747 432.318 317.906 432.714 317.906 433.234V435.859C317.906 436.26 317.802 436.62 317.594 436.938C317.391 437.255 317.109 437.508 316.75 437.695C316.391 437.878 315.979 437.969 315.516 437.969C315.026 437.969 314.62 437.852 314.297 437.617C313.974 437.378 313.812 437.044 313.812 436.617V436.602C313.812 436.185 313.958 435.862 314.25 435.633C314.547 435.404 315.016 435.271 315.656 435.234L318.586 435.047V433.961L315.492 434.148C314.841 434.185 314.286 434.305 313.828 434.508C313.37 434.711 313.021 434.992 312.781 435.352C312.542 435.706 312.422 436.133 312.422 436.633V436.648C312.422 437.159 312.544 437.602 312.789 437.977C313.039 438.352 313.375 438.641 313.797 438.844C314.224 439.047 314.703 439.148 315.234 439.148ZM324.641 439.148C325.281 439.148 325.854 439.042 326.359 438.828C326.87 438.615 327.273 438.318 327.57 437.938C327.867 437.552 328.016 437.109 328.016 436.609V436.594C328.016 435.99 327.82 435.508 327.43 435.148C327.044 434.789 326.456 434.513 325.664 434.32L324.367 434.008C324.039 433.924 323.771 433.828 323.562 433.719C323.354 433.609 323.201 433.482 323.102 433.336C323.003 433.19 322.953 433.023 322.953 432.836V432.82C322.953 432.57 323.029 432.352 323.18 432.164C323.331 431.977 323.536 431.831 323.797 431.727C324.057 431.617 324.354 431.562 324.688 431.562C325.198 431.562 325.612 431.667 325.93 431.875C326.247 432.083 326.451 432.354 326.539 432.688H327.875C327.812 432.229 327.641 431.831 327.359 431.492C327.083 431.154 326.716 430.893 326.258 430.711C325.805 430.523 325.284 430.43 324.695 430.43C324.102 430.43 323.568 430.536 323.094 430.75C322.62 430.964 322.245 431.255 321.969 431.625C321.698 431.995 321.562 432.414 321.562 432.883V432.891C321.562 433.292 321.643 433.641 321.805 433.938C321.966 434.229 322.216 434.477 322.555 434.68C322.893 434.878 323.326 435.039 323.852 435.164L325.156 435.477C325.677 435.602 326.052 435.766 326.281 435.969C326.51 436.167 326.625 436.409 326.625 436.695V436.711C326.625 436.966 326.542 437.193 326.375 437.391C326.208 437.583 325.979 437.737 325.688 437.852C325.401 437.961 325.068 438.016 324.688 438.016C324.151 438.016 323.716 437.909 323.383 437.695C323.049 437.482 322.826 437.201 322.711 436.852H321.32C321.372 437.315 321.542 437.719 321.828 438.062C322.12 438.406 322.505 438.674 322.984 438.867C323.464 439.055 324.016 439.148 324.641 439.148ZM333.039 439.062C333.174 439.062 333.307 439.055 333.438 439.039C333.568 439.023 333.698 439.005 333.828 438.984V437.828C333.703 437.839 333.596 437.846 333.508 437.852C333.424 437.857 333.323 437.859 333.203 437.859C332.766 437.859 332.453 437.753 332.266 437.539C332.078 437.32 331.984 436.964 331.984 436.469V431.703H333.828V430.578H331.984V428.398H330.578V430.578H329.25V431.703H330.578V436.812C330.578 437.615 330.771 438.19 331.156 438.539C331.547 438.888 332.174 439.062 333.039 439.062ZM335.891 439H337.25V430.578H335.891V439ZM336.578 428.953C336.839 428.953 337.06 428.862 337.242 428.68C337.424 428.492 337.516 428.271 337.516 428.016C337.516 427.755 337.424 427.534 337.242 427.352C337.06 427.169 336.839 427.078 336.578 427.078C336.323 427.078 336.102 427.169 335.914 427.352C335.732 427.534 335.641 427.755 335.641 428.016C335.641 428.271 335.732 428.492 335.914 428.68C336.102 428.862 336.323 428.953 336.578 428.953ZM339.812 439H341.172V434.016C341.172 433.521 341.26 433.096 341.438 432.742C341.62 432.388 341.875 432.115 342.203 431.922C342.531 431.729 342.919 431.633 343.367 431.633C344.039 431.633 344.534 431.818 344.852 432.188C345.174 432.552 345.336 433.115 345.336 433.875V439H346.695V433.547C346.695 432.547 346.44 431.779 345.93 431.242C345.424 430.701 344.698 430.43 343.75 430.43C343.13 430.43 342.62 430.555 342.219 430.805C341.818 431.049 341.51 431.396 341.297 431.844H341.172V430.578H339.812V439ZM352.625 441.969C353.391 441.969 354.055 441.841 354.617 441.586C355.18 441.336 355.612 440.979 355.914 440.516C356.221 440.052 356.375 439.508 356.375 438.883V430.578H355.016V431.969H354.922C354.75 431.651 354.534 431.378 354.273 431.148C354.018 430.919 353.724 430.742 353.391 430.617C353.057 430.492 352.693 430.43 352.297 430.43C351.562 430.43 350.93 430.607 350.398 430.961C349.867 431.31 349.456 431.792 349.164 432.406C348.878 433.016 348.734 433.714 348.734 434.5V434.516C348.734 435.302 348.878 436 349.164 436.609C349.451 437.219 349.857 437.698 350.383 438.047C350.914 438.391 351.542 438.562 352.266 438.562C352.651 438.562 353.01 438.508 353.344 438.398C353.677 438.284 353.977 438.117 354.242 437.898C354.508 437.68 354.729 437.417 354.906 437.109H355.031V438.812C355.031 439.432 354.818 439.911 354.391 440.25C353.969 440.594 353.38 440.766 352.625 440.766C352.021 440.766 351.536 440.661 351.172 440.453C350.807 440.25 350.589 439.99 350.516 439.672L350.508 439.664H349.102L349.086 439.672C349.159 440.13 349.344 440.531 349.641 440.875C349.943 441.224 350.346 441.492 350.852 441.68C351.357 441.872 351.948 441.969 352.625 441.969ZM352.562 437.359C352.042 437.359 351.599 437.24 351.234 437C350.875 436.755 350.599 436.419 350.406 435.992C350.219 435.565 350.125 435.073 350.125 434.516V434.5C350.125 433.943 350.219 433.448 350.406 433.016C350.599 432.583 350.875 432.245 351.234 432C351.599 431.755 352.042 431.633 352.562 431.633C353.083 431.633 353.529 431.755 353.898 432C354.273 432.245 354.56 432.583 354.758 433.016C354.961 433.448 355.062 433.943 355.062 434.5V434.516C355.062 435.073 354.961 435.565 354.758 435.992C354.56 436.419 354.273 436.755 353.898 437C353.529 437.24 353.083 437.359 352.562 437.359ZM276.703 458.148C277.198 458.148 277.643 458.086 278.039 457.961C278.44 457.831 278.786 457.659 279.078 457.445C279.37 457.227 279.607 456.984 279.789 456.719C279.977 456.448 280.107 456.169 280.18 455.883L280.195 455.82H278.836L278.805 455.891C278.732 456.057 278.604 456.221 278.422 456.383C278.24 456.544 278.008 456.677 277.727 456.781C277.445 456.885 277.115 456.938 276.734 456.938C276.224 456.938 275.781 456.826 275.406 456.602C275.031 456.372 274.742 456.047 274.539 455.625C274.336 455.198 274.234 454.685 274.234 454.086V453.547C274.234 452.917 274.339 452.385 274.547 451.953C274.755 451.521 275.036 451.195 275.391 450.977C275.75 450.753 276.156 450.641 276.609 450.641C277.062 450.641 277.464 450.747 277.812 450.961C278.161 451.169 278.435 451.487 278.633 451.914C278.831 452.341 278.93 452.885 278.93 453.547V454.086L279.602 453.094H273.547V454.18H280.297V453.648C280.297 452.81 280.148 452.076 279.852 451.445C279.56 450.81 279.138 450.315 278.586 449.961C278.039 449.607 277.383 449.43 276.617 449.43C275.857 449.43 275.193 449.615 274.625 449.984C274.057 450.354 273.617 450.867 273.305 451.523C272.997 452.18 272.844 452.943 272.844 453.812V453.82C272.844 454.701 272.997 455.466 273.305 456.117C273.617 456.763 274.06 457.263 274.633 457.617C275.211 457.971 275.901 458.148 276.703 458.148ZM282.484 458H283.844V446.234H282.484V458ZM289.891 458.148C290.385 458.148 290.831 458.086 291.227 457.961C291.628 457.831 291.974 457.659 292.266 457.445C292.557 457.227 292.794 456.984 292.977 456.719C293.164 456.448 293.294 456.169 293.367 455.883L293.383 455.82H292.023L291.992 455.891C291.919 456.057 291.792 456.221 291.609 456.383C291.427 456.544 291.195 456.677 290.914 456.781C290.633 456.885 290.302 456.938 289.922 456.938C289.411 456.938 288.969 456.826 288.594 456.602C288.219 456.372 287.93 456.047 287.727 455.625C287.523 455.198 287.422 454.685 287.422 454.086V453.547C287.422 452.917 287.526 452.385 287.734 451.953C287.943 451.521 288.224 451.195 288.578 450.977C288.938 450.753 289.344 450.641 289.797 450.641C290.25 450.641 290.651 450.747 291 450.961C291.349 451.169 291.622 451.487 291.82 451.914C292.018 452.341 292.117 452.885 292.117 453.547V454.086L292.789 453.094H286.734V454.18H293.484V453.648C293.484 452.81 293.336 452.076 293.039 451.445C292.747 450.81 292.326 450.315 291.773 449.961C291.227 449.607 290.57 449.43 289.805 449.43C289.044 449.43 288.38 449.615 287.812 449.984C287.245 450.354 286.805 450.867 286.492 451.523C286.185 452.18 286.031 452.943 286.031 453.812V453.82C286.031 454.701 286.185 455.466 286.492 456.117C286.805 456.763 287.247 457.263 287.82 457.617C288.398 457.971 289.089 458.148 289.891 458.148ZM295.594 458H296.953V452.781C296.953 452.385 297.036 452.026 297.203 451.703C297.375 451.375 297.607 451.115 297.898 450.922C298.195 450.729 298.526 450.633 298.891 450.633C299.245 450.633 299.552 450.701 299.812 450.836C300.078 450.971 300.281 451.164 300.422 451.414C300.568 451.659 300.641 451.948 300.641 452.281V458H302V452.586C302 452.227 302.081 451.901 302.242 451.609C302.404 451.312 302.63 451.076 302.922 450.898C303.214 450.721 303.555 450.633 303.945 450.633C304.341 450.633 304.669 450.703 304.93 450.844C305.19 450.979 305.383 451.185 305.508 451.461C305.638 451.732 305.703 452.076 305.703 452.492V458H307.062V452.18C307.062 451.591 306.958 451.094 306.75 450.688C306.542 450.276 306.237 449.964 305.836 449.75C305.44 449.536 304.956 449.43 304.383 449.43C303.997 449.43 303.635 449.492 303.297 449.617C302.964 449.737 302.669 449.909 302.414 450.133C302.159 450.352 301.956 450.609 301.805 450.906H301.68C301.549 450.615 301.375 450.359 301.156 450.141C300.938 449.917 300.677 449.742 300.375 449.617C300.073 449.492 299.732 449.43 299.352 449.43C298.799 449.43 298.328 449.555 297.938 449.805C297.552 450.055 297.266 450.406 297.078 450.859H296.953V449.578H295.594V458ZM312.953 458.148C313.448 458.148 313.893 458.086 314.289 457.961C314.69 457.831 315.036 457.659 315.328 457.445C315.62 457.227 315.857 456.984 316.039 456.719C316.227 456.448 316.357 456.169 316.43 455.883L316.445 455.82H315.086L315.055 455.891C314.982 456.057 314.854 456.221 314.672 456.383C314.49 456.544 314.258 456.677 313.977 456.781C313.695 456.885 313.365 456.938 312.984 456.938C312.474 456.938 312.031 456.826 311.656 456.602C311.281 456.372 310.992 456.047 310.789 455.625C310.586 455.198 310.484 454.685 310.484 454.086V453.547C310.484 452.917 310.589 452.385 310.797 451.953C311.005 451.521 311.286 451.195 311.641 450.977C312 450.753 312.406 450.641 312.859 450.641C313.312 450.641 313.714 450.747 314.062 450.961C314.411 451.169 314.685 451.487 314.883 451.914C315.081 452.341 315.18 452.885 315.18 453.547V454.086L315.852 453.094H309.797V454.18H316.547V453.648C316.547 452.81 316.398 452.076 316.102 451.445C315.81 450.81 315.388 450.315 314.836 449.961C314.289 449.607 313.633 449.43 312.867 449.43C312.107 449.43 311.443 449.615 310.875 449.984C310.307 450.354 309.867 450.867 309.555 451.523C309.247 452.18 309.094 452.943 309.094 453.812V453.82C309.094 454.701 309.247 455.466 309.555 456.117C309.867 456.763 310.31 457.263 310.883 457.617C311.461 457.971 312.151 458.148 312.953 458.148ZM318.656 458H320.016V453.016C320.016 452.521 320.104 452.096 320.281 451.742C320.464 451.388 320.719 451.115 321.047 450.922C321.375 450.729 321.763 450.633 322.211 450.633C322.883 450.633 323.378 450.818 323.695 451.188C324.018 451.552 324.18 452.115 324.18 452.875V458H325.539V452.547C325.539 451.547 325.284 450.779 324.773 450.242C324.268 449.701 323.542 449.43 322.594 449.43C321.974 449.43 321.464 449.555 321.062 449.805C320.661 450.049 320.354 450.396 320.141 450.844H320.016V449.578H318.656V458ZM330.992 458.062C331.128 458.062 331.26 458.055 331.391 458.039C331.521 458.023 331.651 458.005 331.781 457.984V456.828C331.656 456.839 331.549 456.846 331.461 456.852C331.378 456.857 331.276 456.859 331.156 456.859C330.719 456.859 330.406 456.753 330.219 456.539C330.031 456.32 329.938 455.964 329.938 455.469V450.703H331.781V449.578H329.938V447.398H328.531V449.578H327.203V450.703H328.531V455.812C328.531 456.615 328.724 457.19 329.109 457.539C329.5 457.888 330.128 458.062 330.992 458.062ZM336.547 458.148C337.188 458.148 337.76 458.042 338.266 457.828C338.776 457.615 339.18 457.318 339.477 456.938C339.773 456.552 339.922 456.109 339.922 455.609V455.594C339.922 454.99 339.727 454.508 339.336 454.148C338.951 453.789 338.362 453.513 337.57 453.32L336.273 453.008C335.945 452.924 335.677 452.828 335.469 452.719C335.26 452.609 335.107 452.482 335.008 452.336C334.909 452.19 334.859 452.023 334.859 451.836V451.82C334.859 451.57 334.935 451.352 335.086 451.164C335.237 450.977 335.443 450.831 335.703 450.727C335.964 450.617 336.26 450.562 336.594 450.562C337.104 450.562 337.518 450.667 337.836 450.875C338.154 451.083 338.357 451.354 338.445 451.688H339.781C339.719 451.229 339.547 450.831 339.266 450.492C338.99 450.154 338.622 449.893 338.164 449.711C337.711 449.523 337.19 449.43 336.602 449.43C336.008 449.43 335.474 449.536 335 449.75C334.526 449.964 334.151 450.255 333.875 450.625C333.604 450.995 333.469 451.414 333.469 451.883V451.891C333.469 452.292 333.549 452.641 333.711 452.938C333.872 453.229 334.122 453.477 334.461 453.68C334.799 453.878 335.232 454.039 335.758 454.164L337.062 454.477C337.583 454.602 337.958 454.766 338.188 454.969C338.417 455.167 338.531 455.409 338.531 455.695V455.711C338.531 455.966 338.448 456.193 338.281 456.391C338.115 456.583 337.885 456.737 337.594 456.852C337.307 456.961 336.974 457.016 336.594 457.016C336.057 457.016 335.622 456.909 335.289 456.695C334.956 456.482 334.732 456.201 334.617 455.852H333.227C333.279 456.315 333.448 456.719 333.734 457.062C334.026 457.406 334.411 457.674 334.891 457.867C335.37 458.055 335.922 458.148 336.547 458.148ZM341.688 460.867H342.695L343.922 456.422H342.367L341.688 460.867ZM354.719 458.148C355.214 458.148 355.659 458.086 356.055 457.961C356.456 457.831 356.802 457.659 357.094 457.445C357.385 457.227 357.622 456.984 357.805 456.719C357.992 456.448 358.122 456.169 358.195 455.883L358.211 455.82H356.852L356.82 455.891C356.747 456.057 356.62 456.221 356.438 456.383C356.255 456.544 356.023 456.677 355.742 456.781C355.461 456.885 355.13 456.938 354.75 456.938C354.24 456.938 353.797 456.826 353.422 456.602C353.047 456.372 352.758 456.047 352.555 455.625C352.352 455.198 352.25 454.685 352.25 454.086V453.547C352.25 452.917 352.354 452.385 352.562 451.953C352.771 451.521 353.052 451.195 353.406 450.977C353.766 450.753 354.172 450.641 354.625 450.641C355.078 450.641 355.479 450.747 355.828 450.961C356.177 451.169 356.451 451.487 356.648 451.914C356.846 452.341 356.945 452.885 356.945 453.547V454.086L357.617 453.094H351.562V454.18H358.312V453.648C358.312 452.81 358.164 452.076 357.867 451.445C357.576 450.81 357.154 450.315 356.602 449.961C356.055 449.607 355.398 449.43 354.633 449.43C353.872 449.43 353.208 449.615 352.641 449.984C352.073 450.354 351.633 450.867 351.32 451.523C351.013 452.18 350.859 452.943 350.859 453.812V453.82C350.859 454.701 351.013 455.466 351.32 456.117C351.633 456.763 352.076 457.263 352.648 457.617C353.227 457.971 353.917 458.148 354.719 458.148ZM363.414 458.062C363.549 458.062 363.682 458.055 363.812 458.039C363.943 458.023 364.073 458.005 364.203 457.984V456.828C364.078 456.839 363.971 456.846 363.883 456.852C363.799 456.857 363.698 456.859 363.578 456.859C363.141 456.859 362.828 456.753 362.641 456.539C362.453 456.32 362.359 455.964 362.359 455.469V450.703H364.203V449.578H362.359V447.398H360.953V449.578H359.625V450.703H360.953V455.812C360.953 456.615 361.146 457.19 361.531 457.539C361.922 457.888 362.549 458.062 363.414 458.062ZM369.57 458.148C370.247 458.148 370.826 458.036 371.305 457.812C371.784 457.589 372.169 457.281 372.461 456.891C372.753 456.495 372.956 456.044 373.07 455.539L373.086 455.453L371.742 455.461L371.727 455.508C371.57 455.977 371.312 456.333 370.953 456.578C370.594 456.823 370.13 456.945 369.562 456.945C369.062 456.945 368.628 456.815 368.258 456.555C367.888 456.294 367.602 455.927 367.398 455.453C367.195 454.974 367.094 454.411 367.094 453.766V453.75C367.094 453.115 367.193 452.565 367.391 452.102C367.594 451.633 367.88 451.271 368.25 451.016C368.62 450.76 369.057 450.633 369.562 450.633C370.167 450.633 370.654 450.779 371.023 451.07C371.393 451.362 371.63 451.716 371.734 452.133L371.742 452.156H373.094L373.086 452.109C373.003 451.609 372.812 451.159 372.516 450.758C372.219 450.352 371.823 450.029 371.328 449.789C370.833 449.549 370.245 449.43 369.562 449.43C368.776 449.43 368.094 449.609 367.516 449.969C366.938 450.323 366.49 450.823 366.172 451.469C365.859 452.115 365.703 452.875 365.703 453.75V453.766C365.703 454.656 365.862 455.43 366.18 456.086C366.497 456.742 366.945 457.25 367.523 457.609C368.102 457.969 368.784 458.148 369.57 458.148ZM376.188 458.078C376.469 458.078 376.708 457.979 376.906 457.781C377.104 457.578 377.203 457.339 377.203 457.062C377.203 456.781 377.104 456.542 376.906 456.344C376.708 456.146 376.469 456.047 376.188 456.047C375.911 456.047 375.672 456.146 375.469 456.344C375.271 456.542 375.172 456.781 375.172 457.062C375.172 457.339 375.271 457.578 375.469 457.781C375.672 457.979 375.911 458.078 376.188 458.078Z" fill="white"/>
</svg>
