<svg width="1782" height="792" viewBox="0 0 1782 792" fill="none" xmlns="http://www.w3.org/2000/svg">
<rect width="1782" height="792" fill="#4285F4"/>
<rect x="886" y="32" width="864" height="364" rx="32" fill="#D9D9D9"/>
<rect x="886" y="396" width="864" height="364" rx="32" fill="#3771C8"/>
<g clip-path="url(#clip0_1136_699)">
<path d="M107.515 349.137V473.569H66.0664V349.137H32V314H141.581V349.137H107.515V349.137Z" fill="white"/>
<path d="M209.053 365.008H247.549V473.569H209.053V461.512C200.878 471.806 189.794 476.964 175.846 476.964C167.935 476.964 160.686 475.509 154.053 472.621C147.421 469.734 141.647 465.678 136.711 460.454C131.776 455.23 127.941 449.102 125.187 442.048C122.433 434.994 121.066 427.301 121.066 418.991C121.066 411.232 122.411 403.869 125.077 396.882C127.743 389.894 131.489 383.788 136.293 378.586C141.074 373.362 146.804 369.24 153.436 366.198C160.069 363.156 167.406 361.657 175.427 361.657C188.957 361.657 200.173 366.396 209.053 375.831V365.03V365.008ZM160.818 418.969C160.818 422.496 161.457 425.78 162.713 428.8C163.991 431.842 165.71 434.487 167.891 436.735C170.073 438.984 172.673 440.747 175.714 442.026C178.755 443.304 182.016 443.921 185.541 443.921C189.067 443.921 192.13 443.282 195.171 442.026C198.212 440.747 200.812 438.984 202.993 436.735C205.175 434.487 206.938 431.864 208.282 428.91C209.626 425.956 210.287 422.782 210.287 419.388C210.287 415.993 209.626 412.797 208.282 409.755C206.938 406.713 205.175 404.068 202.993 401.819C200.812 399.571 198.19 397.808 195.171 396.529C192.13 395.251 188.935 394.633 185.541 394.633C182.148 394.633 178.733 395.273 175.714 396.529C172.673 397.808 170.073 399.571 167.891 401.819C165.71 404.068 163.969 406.647 162.713 409.534C161.435 412.422 160.818 415.574 160.818 418.947V418.969Z" fill="white"/>
<path d="M309.533 396.948V473.547H271.236V396.948H258.544V364.986H271.236V332.406H309.533V364.986H331.326V396.948H309.533V396.948Z" fill="white"/>
<path d="M391.614 396.948V473.547H353.317V396.948H340.625V364.986H353.317V332.406H391.614V364.986H413.407V396.948H391.614V396.948Z" fill="white"/>
<path d="M402.191 453.246C402.191 449.851 402.83 446.655 404.086 443.613C405.364 440.571 407.127 437.926 409.375 435.677C411.622 433.429 414.267 431.666 417.308 430.387C420.348 429.109 423.544 428.491 426.937 428.491C430.33 428.491 433.525 429.131 436.566 430.387C439.607 431.666 442.251 433.429 444.499 435.677C446.747 437.926 448.509 440.571 449.787 443.613C451.066 446.655 451.683 449.851 451.683 453.246C451.683 456.64 451.043 459.837 449.787 462.879C448.509 465.92 446.747 468.566 444.499 470.814C442.251 473.062 439.607 474.826 436.566 476.104C433.525 477.383 430.33 478 426.937 478C423.544 478 420.348 477.361 417.308 476.104C414.267 474.826 411.622 473.062 409.375 470.814C407.127 468.566 405.364 465.92 404.086 462.879C402.808 459.837 402.191 456.64 402.191 453.246V453.246Z" fill="white"/>
<path d="M456.553 418.33C456.553 410.284 458.161 402.767 461.423 395.802C464.662 388.814 469.179 382.752 474.952 377.594C480.725 372.436 487.6 368.38 495.577 365.426C503.554 362.473 512.258 360.974 521.711 360.974C531.164 360.974 539.648 362.428 547.624 365.316C555.579 368.204 562.498 372.238 568.359 377.374C574.221 382.532 578.76 388.66 581.999 395.78C585.238 402.899 586.869 410.769 586.869 419.366C586.869 427.962 585.216 435.832 581.889 442.952C578.584 450.071 574.022 456.221 568.249 461.357C562.476 466.516 555.513 470.483 547.404 473.305C539.295 476.126 530.503 477.537 521.072 477.537C511.641 477.537 503.157 476.126 495.269 473.305C487.38 470.483 480.571 466.471 474.864 461.247C469.157 456.023 464.684 449.785 461.423 442.511C458.183 435.237 456.553 427.169 456.553 418.285V418.33ZM496.965 418.748C496.965 422.408 497.626 425.758 498.971 428.8C500.315 431.842 502.077 434.487 504.259 436.735C506.44 438.984 509.063 440.747 512.081 442.026C515.122 443.304 518.317 443.921 521.711 443.921C525.104 443.921 528.299 443.282 531.34 442.026C534.381 440.747 536.981 438.984 539.163 436.735C541.344 434.487 543.107 431.842 544.451 428.8C545.795 425.758 546.456 422.496 546.456 418.969C546.456 415.442 545.795 412.378 544.451 409.336C543.107 406.294 541.344 403.649 539.163 401.401C536.981 399.152 534.359 397.389 531.34 396.11C528.299 394.832 525.104 394.214 521.711 394.214C518.317 394.214 515.122 394.854 512.081 396.11C509.041 397.389 506.44 399.152 504.259 401.401C502.077 403.649 500.315 406.272 498.971 409.226C497.626 412.18 496.965 415.354 496.965 418.748Z" fill="white"/>
<path d="M549.629 418.33C549.629 410.284 551.237 402.767 554.499 395.802C557.738 388.814 562.255 382.752 568.028 377.594C573.802 372.436 580.676 368.38 588.653 365.426C596.63 362.473 605.334 360.974 614.787 360.974C624.24 360.974 632.724 362.428 640.7 365.316C648.655 368.204 655.574 372.238 661.436 377.374C667.297 382.532 671.836 388.66 675.075 395.78C678.315 402.899 679.945 410.769 679.945 419.366C679.945 427.962 678.292 435.832 674.965 442.952C671.66 450.071 667.099 456.221 661.325 461.357C655.552 466.516 648.589 470.483 640.48 473.305C632.371 476.126 623.579 477.537 614.148 477.537C604.717 477.537 596.233 476.126 588.345 473.305C580.456 470.483 573.647 466.471 567.94 461.247C562.233 456.023 557.76 449.785 554.499 442.511C551.259 435.237 549.629 427.169 549.629 418.285V418.33ZM590.041 418.748C590.041 422.408 590.703 425.758 592.047 428.8C593.391 431.842 595.154 434.487 597.335 436.735C599.517 438.984 602.139 440.747 605.158 442.026C608.198 443.304 611.394 443.921 614.787 443.921C618.18 443.921 621.376 443.282 624.416 442.026C627.457 440.747 630.057 438.984 632.239 436.735C634.42 434.487 636.183 431.842 637.527 428.8C638.871 425.758 639.533 422.496 639.533 418.969C639.533 415.442 638.871 412.378 637.527 409.336C636.183 406.294 634.42 403.649 632.239 401.401C630.057 399.152 627.435 397.389 624.416 396.11C621.376 394.832 618.18 394.214 614.787 394.214C611.394 394.214 608.198 394.854 605.158 396.11C602.117 397.389 599.517 399.152 597.335 401.401C595.154 403.649 593.391 406.272 592.047 409.226C590.703 412.18 590.041 415.354 590.041 418.748Z" fill="white"/>
<path d="M642.706 418.33C642.706 410.284 644.315 402.767 647.576 395.802C650.815 388.814 655.332 382.752 661.105 377.594C666.879 372.436 673.754 368.38 681.73 365.426C689.707 362.473 698.411 360.974 707.864 360.974C717.317 360.974 725.801 362.428 733.778 365.316C741.732 368.204 748.651 372.238 754.513 377.374C760.374 382.532 764.913 388.66 768.152 395.78C771.392 402.899 773.022 410.769 773.022 419.366C773.022 427.962 771.37 435.832 768.042 442.952C764.737 450.071 760.176 456.221 754.403 461.357C748.629 466.516 741.666 470.483 733.557 473.305C725.448 476.126 716.656 477.537 707.225 477.537C697.794 477.537 689.311 476.126 681.422 473.305C673.533 470.483 666.724 466.471 661.017 461.247C655.31 456.023 650.837 449.785 647.576 442.511C644.337 435.237 642.706 427.169 642.706 418.285V418.33ZM683.119 418.748C683.119 422.408 683.78 425.758 685.124 428.8C686.468 431.842 688.231 434.487 690.412 436.735C692.594 438.984 695.216 440.747 698.235 442.026C701.276 443.304 704.471 443.921 707.864 443.921C711.258 443.921 714.453 443.282 717.494 442.026C720.534 440.747 723.135 438.984 725.316 436.735C727.498 434.487 729.26 431.842 730.605 428.8C731.949 425.758 732.61 422.496 732.61 418.969C732.61 415.442 731.949 412.378 730.605 409.336C729.26 406.294 727.498 403.649 725.316 401.401C723.135 399.152 720.512 397.389 717.494 396.11C714.453 394.832 711.258 394.214 707.864 394.214C704.471 394.214 701.276 394.854 698.235 396.11C695.194 397.389 692.594 399.152 690.412 401.401C688.231 403.649 686.468 406.272 685.124 409.226C683.78 412.18 683.119 415.354 683.119 418.748Z" fill="white"/>
</g>
<rect x="1014" y="458" width="240" height="240" rx="32" fill="white"/>
<g clip-path="url(#clip1_1136_699)">
<path d="M1047.95 564.161V600.147H1035.9V564.161H1026V554H1057.86V564.161H1047.95V564.161Z" fill="#4285F4"/>
<path d="M1077.47 568.751H1088.67V600.147H1077.47V596.66C1075.1 599.637 1071.87 601.129 1067.82 601.129C1065.52 601.129 1063.41 600.708 1061.48 599.873C1059.56 599.038 1057.88 597.865 1056.44 596.354C1055.01 594.843 1053.89 593.071 1053.09 591.031C1052.29 588.991 1051.89 586.766 1051.89 584.363C1051.89 582.119 1052.28 579.99 1053.06 577.969C1053.83 575.948 1054.92 574.183 1056.32 572.678C1057.71 571.167 1059.38 569.975 1061.3 569.095C1063.23 568.216 1065.37 567.782 1067.7 567.782C1071.63 567.782 1074.89 569.153 1077.47 571.881V568.758V568.751ZM1063.45 584.357C1063.45 585.377 1063.64 586.327 1064 587.2C1064.37 588.08 1064.87 588.845 1065.51 589.495C1066.14 590.145 1066.9 590.655 1067.78 591.025C1068.67 591.395 1069.61 591.573 1070.64 591.573C1071.66 591.573 1072.55 591.388 1073.44 591.025C1074.32 590.655 1075.08 590.145 1075.71 589.495C1076.35 588.845 1076.86 588.086 1077.25 587.232C1077.64 586.378 1077.83 585.46 1077.83 584.478C1077.83 583.496 1077.64 582.572 1077.25 581.692C1076.86 580.812 1076.35 580.047 1075.71 579.397C1075.08 578.747 1074.32 578.237 1073.44 577.867C1072.55 577.497 1071.62 577.319 1070.64 577.319C1069.65 577.319 1068.66 577.504 1067.78 577.867C1066.9 578.237 1066.14 578.747 1065.51 579.397C1064.87 580.047 1064.37 580.793 1064 581.628C1063.63 582.463 1063.45 583.375 1063.45 584.35V584.357Z" fill="#4285F4"/>
<path d="M1106.69 577.988V600.141H1095.55V577.988H1091.86V568.745H1095.55V559.323H1106.69V568.745H1113.02V577.988H1106.69V577.988Z" fill="#4285F4"/>
<path d="M1130.55 577.988V600.141H1119.42V577.988H1115.73V568.745H1119.42V559.323H1130.55V568.745H1136.89V577.988H1130.55V577.988Z" fill="#4285F4"/>
<path d="M1133.62 594.27C1133.62 593.288 1133.81 592.364 1134.18 591.484C1134.55 590.604 1135.06 589.839 1135.71 589.189C1136.37 588.539 1137.14 588.029 1138.02 587.659C1138.9 587.289 1139.83 587.111 1140.82 587.111C1141.81 587.111 1142.73 587.296 1143.62 587.659C1144.5 588.029 1145.27 588.539 1145.92 589.189C1146.58 589.839 1147.09 590.604 1147.46 591.484C1147.83 592.364 1148.01 593.288 1148.01 594.27C1148.01 595.251 1147.83 596.176 1147.46 597.056C1147.09 597.935 1146.58 598.7 1145.92 599.35C1145.27 600.001 1144.5 600.511 1143.62 600.88C1142.73 601.25 1141.81 601.429 1140.82 601.429C1139.83 601.429 1138.9 601.244 1138.02 600.88C1137.14 600.511 1136.37 600.001 1135.71 599.35C1135.06 598.7 1134.55 597.935 1134.18 597.056C1133.8 596.176 1133.62 595.251 1133.62 594.27V594.27Z" fill="#4285F4"/>
<path d="M1149.43 584.172C1149.43 581.845 1149.9 579.671 1150.84 577.657C1151.79 575.636 1153.1 573.883 1154.78 572.391C1156.46 570.9 1158.46 569.727 1160.77 568.872C1163.09 568.018 1165.62 567.585 1168.37 567.585C1171.12 567.585 1173.59 568.005 1175.91 568.841C1178.22 569.676 1180.23 570.842 1181.93 572.328C1183.64 573.819 1184.96 575.591 1185.9 577.651C1186.84 579.71 1187.32 581.985 1187.32 584.472C1187.32 586.958 1186.83 589.234 1185.87 591.293C1184.91 593.352 1183.58 595.13 1181.9 596.616C1180.22 598.107 1178.2 599.255 1175.84 600.071C1173.48 600.887 1170.93 601.295 1168.19 601.295C1165.44 601.295 1162.98 600.887 1160.68 600.071C1158.39 599.255 1156.41 598.095 1154.75 596.584C1153.09 595.073 1151.79 593.269 1150.84 591.165C1149.9 589.061 1149.43 586.728 1149.43 584.159V584.172ZM1161.18 584.293C1161.18 585.351 1161.37 586.32 1161.76 587.2C1162.15 588.08 1162.66 588.845 1163.3 589.495C1163.93 590.145 1164.69 590.655 1165.57 591.025C1166.46 591.395 1167.39 591.573 1168.37 591.573C1169.36 591.573 1170.29 591.388 1171.17 591.025C1172.06 590.655 1172.81 590.145 1173.45 589.495C1174.08 588.845 1174.59 588.08 1174.98 587.2C1175.37 586.32 1175.57 585.377 1175.57 584.357C1175.57 583.337 1175.37 582.451 1174.98 581.571C1174.59 580.691 1174.08 579.926 1173.45 579.276C1172.81 578.626 1172.05 578.116 1171.17 577.746C1170.29 577.376 1169.36 577.198 1168.37 577.198C1167.39 577.198 1166.46 577.383 1165.57 577.746C1164.69 578.116 1163.93 578.626 1163.3 579.276C1162.66 579.926 1162.15 580.685 1161.76 581.539C1161.37 582.393 1161.18 583.311 1161.18 584.293Z" fill="#4285F4"/>
<path d="M1176.49 584.172C1176.49 581.845 1176.96 579.671 1177.9 577.657C1178.85 575.636 1180.16 573.883 1181.84 572.391C1183.52 570.9 1185.51 569.727 1187.83 568.872C1190.15 568.018 1192.68 567.585 1195.43 567.585C1198.18 567.585 1200.65 568.005 1202.97 568.841C1205.28 569.676 1207.29 570.842 1208.99 572.328C1210.7 573.819 1212.02 575.591 1212.96 577.651C1213.9 579.71 1214.37 581.985 1214.37 584.472C1214.37 586.958 1213.89 589.234 1212.93 591.293C1211.97 593.352 1210.64 595.13 1208.96 596.616C1207.28 598.107 1205.26 599.255 1202.9 600.071C1200.54 600.887 1197.99 601.295 1195.25 601.295C1192.5 601.295 1190.04 600.887 1187.74 600.071C1185.45 599.255 1183.47 598.095 1181.81 596.584C1180.15 595.073 1178.85 593.269 1177.9 591.165C1176.96 589.061 1176.49 586.728 1176.49 584.159V584.172ZM1188.24 584.293C1188.24 585.351 1188.43 586.32 1188.82 587.2C1189.21 588.08 1189.72 588.845 1190.36 589.495C1190.99 590.145 1191.75 590.655 1192.63 591.025C1193.52 591.395 1194.44 591.573 1195.43 591.573C1196.42 591.573 1197.35 591.388 1198.23 591.025C1199.12 590.655 1199.87 590.145 1200.51 589.495C1201.14 588.845 1201.65 588.08 1202.04 587.2C1202.43 586.32 1202.63 585.377 1202.63 584.357C1202.63 583.337 1202.43 582.451 1202.04 581.571C1201.65 580.691 1201.14 579.926 1200.51 579.276C1199.87 578.626 1199.11 578.116 1198.23 577.746C1197.35 577.376 1196.42 577.198 1195.43 577.198C1194.44 577.198 1193.52 577.383 1192.63 577.746C1191.75 578.116 1190.99 578.626 1190.36 579.276C1189.72 579.926 1189.21 580.685 1188.82 581.539C1188.43 582.393 1188.24 583.311 1188.24 584.293Z" fill="#4285F4"/>
<path d="M1203.55 584.172C1203.55 581.845 1204.02 579.671 1204.96 577.657C1205.91 575.636 1207.22 573.883 1208.9 572.391C1210.58 570.9 1212.58 569.727 1214.89 568.872C1217.21 568.018 1219.74 567.585 1222.49 567.585C1225.24 567.585 1227.71 568.005 1230.03 568.841C1232.34 569.676 1234.35 570.842 1236.05 572.328C1237.76 573.819 1239.08 575.591 1240.02 577.651C1240.96 579.71 1241.44 581.985 1241.44 584.472C1241.44 586.958 1240.95 589.234 1239.99 591.293C1239.03 593.352 1237.7 595.13 1236.02 596.616C1234.34 598.107 1232.32 599.255 1229.96 600.071C1227.6 600.887 1225.05 601.295 1222.31 601.295C1219.56 601.295 1217.1 600.887 1214.8 600.071C1212.51 599.255 1210.53 598.095 1208.87 596.584C1207.21 595.073 1205.91 593.269 1204.96 591.165C1204.02 589.061 1203.55 586.728 1203.55 584.159V584.172ZM1215.3 584.293C1215.3 585.351 1215.49 586.32 1215.88 587.2C1216.27 588.08 1216.78 588.845 1217.42 589.495C1218.05 590.145 1218.81 590.655 1219.69 591.025C1220.58 591.395 1221.51 591.573 1222.49 591.573C1223.48 591.573 1224.41 591.388 1225.29 591.025C1226.18 590.655 1226.93 590.145 1227.57 589.495C1228.2 588.845 1228.71 588.08 1229.1 587.2C1229.49 586.32 1229.69 585.377 1229.69 584.357C1229.69 583.337 1229.49 582.451 1229.1 581.571C1228.71 580.691 1228.2 579.926 1227.57 579.276C1226.93 578.626 1226.17 578.116 1225.29 577.746C1224.41 577.376 1223.48 577.198 1222.49 577.198C1221.51 577.198 1220.58 577.383 1219.69 577.746C1218.81 578.116 1218.05 578.626 1217.42 579.276C1216.78 579.926 1216.27 580.685 1215.88 581.539C1215.49 582.393 1215.3 583.311 1215.3 584.293Z" fill="#4285F4"/>
</g>
<circle cx="1406" cy="578" r="120" fill="white"/>
<g clip-path="url(#clip2_1136_699)">
<path d="M1319.95 564.161V600.147H1307.9V564.161H1298V554H1329.86V564.161H1319.95V564.161Z" fill="#4285F4"/>
<path d="M1349.47 568.751H1360.67V600.147H1349.47V596.66C1347.1 599.637 1343.87 601.129 1339.82 601.129C1337.52 601.129 1335.41 600.708 1333.48 599.873C1331.56 599.038 1329.88 597.865 1328.44 596.354C1327.01 594.843 1325.89 593.071 1325.09 591.031C1324.29 588.991 1323.89 586.766 1323.89 584.363C1323.89 582.119 1324.28 579.99 1325.06 577.969C1325.83 575.948 1326.92 574.183 1328.32 572.678C1329.71 571.167 1331.38 569.975 1333.3 569.095C1335.23 568.216 1337.37 567.782 1339.7 567.782C1343.63 567.782 1346.89 569.153 1349.47 571.881V568.758V568.751ZM1335.45 584.357C1335.45 585.377 1335.64 586.327 1336 587.2C1336.37 588.08 1336.87 588.845 1337.51 589.495C1338.14 590.145 1338.9 590.655 1339.78 591.025C1340.67 591.395 1341.61 591.573 1342.64 591.573C1343.66 591.573 1344.55 591.388 1345.44 591.025C1346.32 590.655 1347.08 590.145 1347.71 589.495C1348.35 588.845 1348.86 588.086 1349.25 587.232C1349.64 586.378 1349.83 585.46 1349.83 584.478C1349.83 583.496 1349.64 582.572 1349.25 581.692C1348.86 580.812 1348.35 580.047 1347.71 579.397C1347.08 578.747 1346.32 578.237 1345.44 577.867C1344.55 577.497 1343.62 577.319 1342.64 577.319C1341.65 577.319 1340.66 577.504 1339.78 577.867C1338.9 578.237 1338.14 578.747 1337.51 579.397C1336.87 580.047 1336.37 580.793 1336 581.628C1335.63 582.463 1335.45 583.375 1335.45 584.35V584.357Z" fill="#4285F4"/>
<path d="M1378.69 577.988V600.141H1367.55V577.988H1363.86V568.745H1367.55V559.323H1378.69V568.745H1385.02V577.988H1378.69V577.988Z" fill="#4285F4"/>
<path d="M1402.55 577.988V600.141H1391.42V577.988H1387.73V568.745H1391.42V559.323H1402.55V568.745H1408.89V577.988H1402.55V577.988Z" fill="#4285F4"/>
<path d="M1405.62 594.27C1405.62 593.288 1405.81 592.364 1406.18 591.484C1406.55 590.604 1407.06 589.839 1407.71 589.189C1408.37 588.539 1409.14 588.029 1410.02 587.659C1410.9 587.289 1411.83 587.111 1412.82 587.111C1413.81 587.111 1414.73 587.296 1415.62 587.659C1416.5 588.029 1417.27 588.539 1417.92 589.189C1418.58 589.839 1419.09 590.604 1419.46 591.484C1419.83 592.364 1420.01 593.288 1420.01 594.27C1420.01 595.251 1419.83 596.176 1419.46 597.056C1419.09 597.935 1418.58 598.7 1417.92 599.35C1417.27 600.001 1416.5 600.511 1415.62 600.88C1414.73 601.25 1413.81 601.429 1412.82 601.429C1411.83 601.429 1410.9 601.244 1410.02 600.88C1409.14 600.511 1408.37 600.001 1407.71 599.35C1407.06 598.7 1406.55 597.935 1406.18 597.056C1405.8 596.176 1405.62 595.251 1405.62 594.27V594.27Z" fill="#4285F4"/>
<path d="M1421.43 584.172C1421.43 581.845 1421.9 579.671 1422.84 577.657C1423.79 575.636 1425.1 573.883 1426.78 572.391C1428.46 570.9 1430.46 569.727 1432.77 568.872C1435.09 568.018 1437.62 567.585 1440.37 567.585C1443.12 567.585 1445.59 568.005 1447.91 568.841C1450.22 569.676 1452.23 570.842 1453.93 572.328C1455.64 573.819 1456.96 575.591 1457.9 577.651C1458.84 579.71 1459.32 581.985 1459.32 584.472C1459.32 586.958 1458.83 589.234 1457.87 591.293C1456.91 593.352 1455.58 595.13 1453.9 596.616C1452.22 598.107 1450.2 599.255 1447.84 600.071C1445.48 600.887 1442.93 601.295 1440.19 601.295C1437.44 601.295 1434.98 600.887 1432.68 600.071C1430.39 599.255 1428.41 598.095 1426.75 596.584C1425.09 595.073 1423.79 593.269 1422.84 591.165C1421.9 589.061 1421.43 586.728 1421.43 584.159V584.172ZM1433.18 584.293C1433.18 585.351 1433.37 586.32 1433.76 587.2C1434.15 588.08 1434.66 588.845 1435.3 589.495C1435.93 590.145 1436.69 590.655 1437.57 591.025C1438.46 591.395 1439.39 591.573 1440.37 591.573C1441.36 591.573 1442.29 591.388 1443.17 591.025C1444.06 590.655 1444.81 590.145 1445.45 589.495C1446.08 588.845 1446.59 588.08 1446.98 587.2C1447.37 586.32 1447.57 585.377 1447.57 584.357C1447.57 583.337 1447.37 582.451 1446.98 581.571C1446.59 580.691 1446.08 579.926 1445.45 579.276C1444.81 578.626 1444.05 578.116 1443.17 577.746C1442.29 577.376 1441.36 577.198 1440.37 577.198C1439.39 577.198 1438.46 577.383 1437.57 577.746C1436.69 578.116 1435.93 578.626 1435.3 579.276C1434.66 579.926 1434.15 580.685 1433.76 581.539C1433.37 582.393 1433.18 583.311 1433.18 584.293Z" fill="#4285F4"/>
<path d="M1448.49 584.172C1448.49 581.845 1448.96 579.671 1449.9 577.657C1450.85 575.636 1452.16 573.883 1453.84 572.391C1455.52 570.9 1457.51 569.727 1459.83 568.872C1462.15 568.018 1464.68 567.585 1467.43 567.585C1470.18 567.585 1472.65 568.005 1474.97 568.841C1477.28 569.676 1479.29 570.842 1480.99 572.328C1482.7 573.819 1484.02 575.591 1484.96 577.651C1485.9 579.71 1486.37 581.985 1486.37 584.472C1486.37 586.958 1485.89 589.234 1484.93 591.293C1483.97 593.352 1482.64 595.13 1480.96 596.616C1479.28 598.107 1477.26 599.255 1474.9 600.071C1472.54 600.887 1469.99 601.295 1467.25 601.295C1464.5 601.295 1462.04 600.887 1459.74 600.071C1457.45 599.255 1455.47 598.095 1453.81 596.584C1452.15 595.073 1450.85 593.269 1449.9 591.165C1448.96 589.061 1448.49 586.728 1448.49 584.159V584.172ZM1460.24 584.293C1460.24 585.351 1460.43 586.32 1460.82 587.2C1461.21 588.08 1461.72 588.845 1462.36 589.495C1462.99 590.145 1463.75 590.655 1464.63 591.025C1465.52 591.395 1466.44 591.573 1467.43 591.573C1468.42 591.573 1469.35 591.388 1470.23 591.025C1471.12 590.655 1471.87 590.145 1472.51 589.495C1473.14 588.845 1473.65 588.08 1474.04 587.2C1474.43 586.32 1474.63 585.377 1474.63 584.357C1474.63 583.337 1474.43 582.451 1474.04 581.571C1473.65 580.691 1473.14 579.926 1472.51 579.276C1471.87 578.626 1471.11 578.116 1470.23 577.746C1469.35 577.376 1468.42 577.198 1467.43 577.198C1466.44 577.198 1465.52 577.383 1464.63 577.746C1463.75 578.116 1462.99 578.626 1462.36 579.276C1461.72 579.926 1461.21 580.685 1460.82 581.539C1460.43 582.393 1460.24 583.311 1460.24 584.293Z" fill="#4285F4"/>
<path d="M1475.55 584.172C1475.55 581.845 1476.02 579.671 1476.96 577.657C1477.91 575.636 1479.22 573.883 1480.9 572.391C1482.58 570.9 1484.58 569.727 1486.89 568.872C1489.21 568.018 1491.74 567.585 1494.49 567.585C1497.24 567.585 1499.71 568.005 1502.03 568.841C1504.34 569.676 1506.35 570.842 1508.05 572.328C1509.76 573.819 1511.08 575.591 1512.02 577.651C1512.96 579.71 1513.44 581.985 1513.44 584.472C1513.44 586.958 1512.95 589.234 1511.99 591.293C1511.03 593.352 1509.7 595.13 1508.02 596.616C1506.34 598.107 1504.32 599.255 1501.96 600.071C1499.6 600.887 1497.05 601.295 1494.31 601.295C1491.56 601.295 1489.1 600.887 1486.8 600.071C1484.51 599.255 1482.53 598.095 1480.87 596.584C1479.21 595.073 1477.91 593.269 1476.96 591.165C1476.02 589.061 1475.55 586.728 1475.55 584.159V584.172ZM1487.3 584.293C1487.3 585.351 1487.49 586.32 1487.88 587.2C1488.27 588.08 1488.78 588.845 1489.42 589.495C1490.05 590.145 1490.81 590.655 1491.69 591.025C1492.58 591.395 1493.51 591.573 1494.49 591.573C1495.48 591.573 1496.41 591.388 1497.29 591.025C1498.18 590.655 1498.93 590.145 1499.57 589.495C1500.2 588.845 1500.71 588.08 1501.1 587.2C1501.49 586.32 1501.69 585.377 1501.69 584.357C1501.69 583.337 1501.49 582.451 1501.1 581.571C1500.71 580.691 1500.2 579.926 1499.57 579.276C1498.93 578.626 1498.17 578.116 1497.29 577.746C1496.41 577.376 1495.48 577.198 1494.49 577.198C1493.51 577.198 1492.58 577.383 1491.69 577.746C1490.81 578.116 1490.05 578.626 1489.42 579.276C1488.78 579.926 1488.27 580.685 1487.88 581.539C1487.49 582.393 1487.3 583.311 1487.3 584.293Z" fill="#4285F4"/>
</g>
<circle cx="1590" cy="578" r="32" fill="white"/>
<path d="M1576.79 565.992V580.335H1572.15V565.992H1568.34V561.942H1580.6V565.992H1576.79V565.992Z" fill="#4285F4"/>
<path d="M1588.14 567.821H1592.45V580.334H1588.14V578.945C1587.23 580.131 1585.99 580.726 1584.43 580.726C1583.54 580.726 1582.73 580.558 1581.99 580.225C1581.25 579.892 1580.6 579.425 1580.05 578.823C1579.5 578.221 1579.07 577.514 1578.76 576.701C1578.45 575.888 1578.3 575.002 1578.3 574.044C1578.3 573.149 1578.45 572.301 1578.75 571.495C1579.05 570.69 1579.47 569.986 1580 569.387C1580.54 568.784 1581.18 568.309 1581.92 567.959C1582.66 567.608 1583.48 567.435 1584.38 567.435C1585.9 567.435 1587.15 567.982 1588.14 569.069V567.824V567.821ZM1582.75 574.041C1582.75 574.448 1582.82 574.826 1582.96 575.174C1583.1 575.525 1583.3 575.83 1583.54 576.089C1583.78 576.348 1584.07 576.551 1584.41 576.699C1584.75 576.846 1585.12 576.917 1585.51 576.917C1585.91 576.917 1586.25 576.844 1586.59 576.699C1586.93 576.551 1587.22 576.348 1587.47 576.089C1587.71 575.83 1587.91 575.527 1588.06 575.187C1588.21 574.847 1588.28 574.481 1588.28 574.089C1588.28 573.698 1588.21 573.33 1588.06 572.979C1587.91 572.629 1587.71 572.324 1587.47 572.064C1587.22 571.805 1586.93 571.602 1586.59 571.455C1586.25 571.307 1585.89 571.236 1585.51 571.236C1585.13 571.236 1584.75 571.31 1584.41 571.455C1584.07 571.602 1583.78 571.805 1583.54 572.064C1583.3 572.324 1583.1 572.621 1582.96 572.954C1582.82 573.287 1582.75 573.65 1582.75 574.039V574.041Z" fill="#4285F4"/>
<path d="M1599.38 571.503V580.332H1595.1V571.503H1593.68V567.819H1595.1V564.064H1599.38V567.819H1601.82V571.503H1599.38V571.503Z" fill="#4285F4"/>
<path d="M1608.56 571.503V580.332H1604.28V571.503H1602.86V567.819H1604.28V564.064H1608.56V567.819H1611V571.503H1608.56V571.503Z" fill="#4285F4"/>
<path d="M1568.34 583.699C1568.34 584.09 1568.41 584.458 1568.55 584.809C1568.69 585.159 1568.89 585.464 1569.14 585.723C1569.39 585.983 1569.69 586.186 1570.03 586.333C1570.37 586.481 1570.73 586.552 1571.11 586.552C1571.49 586.552 1571.84 586.478 1572.18 586.333C1572.52 586.186 1572.82 585.983 1573.07 585.723C1573.32 585.464 1573.52 585.159 1573.66 584.809C1573.81 584.458 1573.87 584.09 1573.87 583.699C1573.87 583.307 1573.8 582.939 1573.66 582.588C1573.52 582.238 1573.32 581.933 1573.07 581.674C1572.82 581.414 1572.52 581.211 1572.18 581.064C1571.84 580.916 1571.49 580.845 1571.11 580.845C1570.73 580.845 1570.37 580.919 1570.03 581.064C1569.69 581.211 1569.39 581.414 1569.14 581.674C1568.89 581.933 1568.69 582.238 1568.55 582.588C1568.41 582.939 1568.34 583.307 1568.34 583.699V583.699Z" fill="#4285F4"/>
<path d="M1574.42 587.723C1574.42 588.65 1574.6 589.517 1574.96 590.319C1575.33 591.125 1575.83 591.824 1576.48 592.418C1577.12 593.013 1577.89 593.48 1578.78 593.821C1579.68 594.161 1580.65 594.334 1581.71 594.334C1582.76 594.334 1583.71 594.166 1584.61 593.833C1585.5 593.5 1586.27 593.035 1586.92 592.443C1587.58 591.849 1588.09 591.143 1588.45 590.322C1588.81 589.501 1588.99 588.594 1588.99 587.603C1588.99 586.613 1588.81 585.705 1588.44 584.885C1588.07 584.064 1587.56 583.355 1586.91 582.763C1586.27 582.169 1585.49 581.711 1584.58 581.386C1583.67 581.061 1582.69 580.898 1581.64 580.898C1580.58 580.898 1579.63 581.061 1578.75 581.386C1577.87 581.711 1577.11 582.174 1576.47 582.776C1575.83 583.378 1575.33 584.097 1574.96 584.936C1574.6 585.774 1574.42 586.704 1574.42 587.728V587.723ZM1578.94 587.675C1578.94 587.253 1579.01 586.867 1579.16 586.516C1579.31 586.165 1579.51 585.86 1579.75 585.601C1580 585.342 1580.29 585.139 1580.63 584.992C1580.97 584.844 1581.33 584.773 1581.71 584.773C1582.09 584.773 1582.44 584.847 1582.78 584.992C1583.12 585.139 1583.41 585.342 1583.66 585.601C1583.9 585.86 1584.1 586.165 1584.25 586.516C1584.4 586.867 1584.47 587.243 1584.47 587.649C1584.47 588.056 1584.4 588.409 1584.25 588.759C1584.1 589.11 1583.9 589.415 1583.66 589.674C1583.41 589.933 1583.12 590.136 1582.78 590.284C1582.44 590.431 1582.09 590.502 1581.71 590.502C1581.33 590.502 1580.97 590.429 1580.63 590.284C1580.29 590.136 1580 589.933 1579.75 589.674C1579.51 589.415 1579.31 589.113 1579.16 588.772C1579.01 588.432 1578.94 588.066 1578.94 587.675Z" fill="#4285F4"/>
<path d="M1584.83 587.723C1584.83 588.65 1585.01 589.517 1585.37 590.319C1585.74 591.125 1586.24 591.824 1586.89 592.418C1587.53 593.013 1588.3 593.48 1589.19 593.821C1590.09 594.161 1591.06 594.334 1592.12 594.334C1593.17 594.334 1594.12 594.166 1595.02 593.833C1595.91 593.5 1596.68 593.035 1597.33 592.443C1597.99 591.849 1598.5 591.143 1598.86 590.322C1599.22 589.501 1599.41 588.594 1599.41 587.603C1599.41 586.613 1599.22 585.705 1598.85 584.885C1598.48 584.064 1597.97 583.355 1597.32 582.763C1596.68 582.169 1595.9 581.711 1594.99 581.386C1594.08 581.061 1593.1 580.898 1592.05 580.898C1590.99 580.898 1590.04 581.061 1589.16 581.386C1588.28 581.711 1587.52 582.174 1586.88 582.776C1586.24 583.378 1585.74 584.097 1585.37 584.936C1585.01 585.774 1584.83 586.704 1584.83 587.728V587.723ZM1589.35 587.675C1589.35 587.253 1589.42 586.867 1589.57 586.516C1589.72 586.165 1589.92 585.86 1590.17 585.601C1590.41 585.342 1590.7 585.139 1591.04 584.992C1591.38 584.844 1591.74 584.773 1592.12 584.773C1592.5 584.773 1592.85 584.847 1593.19 584.992C1593.53 585.139 1593.83 585.342 1594.07 585.601C1594.31 585.86 1594.51 586.165 1594.66 586.516C1594.81 586.867 1594.88 587.243 1594.88 587.649C1594.88 588.056 1594.81 588.409 1594.66 588.759C1594.51 589.11 1594.31 589.415 1594.07 589.674C1593.83 589.933 1593.53 590.136 1593.19 590.284C1592.85 590.431 1592.5 590.502 1592.12 590.502C1591.74 590.502 1591.38 590.429 1591.04 590.284C1590.7 590.136 1590.41 589.933 1590.17 589.674C1589.92 589.415 1589.72 589.113 1589.57 588.772C1589.42 588.432 1589.35 588.066 1589.35 587.675Z" fill="#4285F4"/>
<path d="M1595.24 587.723C1595.24 588.65 1595.42 589.517 1595.78 590.319C1596.15 591.125 1596.65 591.824 1597.3 592.418C1597.94 593.013 1598.71 593.48 1599.61 593.821C1600.5 594.161 1601.47 594.334 1602.53 594.334C1603.59 594.334 1604.53 594.166 1605.43 593.833C1606.32 593.5 1607.09 593.035 1607.75 592.443C1608.4 591.849 1608.91 591.143 1609.27 590.322C1609.63 589.501 1609.82 588.594 1609.82 587.603C1609.82 586.613 1609.63 585.705 1609.26 584.885C1608.89 584.064 1608.38 583.355 1607.73 582.763C1607.09 582.169 1606.31 581.711 1605.4 581.386C1604.5 581.061 1603.51 580.898 1602.46 580.898C1601.4 580.898 1600.45 581.061 1599.57 581.386C1598.69 581.711 1597.93 582.174 1597.29 582.776C1596.65 583.378 1596.15 584.097 1595.78 584.936C1595.42 585.774 1595.24 586.704 1595.24 587.728V587.723ZM1599.76 587.675C1599.76 587.253 1599.83 586.867 1599.98 586.516C1600.14 586.165 1600.33 585.86 1600.58 585.601C1600.82 585.342 1601.11 585.139 1601.45 584.992C1601.79 584.844 1602.15 584.773 1602.53 584.773C1602.91 584.773 1603.27 584.847 1603.61 584.992C1603.95 585.139 1604.24 585.342 1604.48 585.601C1604.72 585.86 1604.92 586.165 1605.07 586.516C1605.22 586.867 1605.3 587.243 1605.3 587.649C1605.3 588.056 1605.22 588.409 1605.07 588.759C1604.92 589.11 1604.72 589.415 1604.48 589.674C1604.24 589.933 1603.94 590.136 1603.61 590.284C1603.27 590.431 1602.91 590.502 1602.53 590.502C1602.15 590.502 1601.79 590.429 1601.45 590.284C1601.11 590.136 1600.82 589.933 1600.58 589.674C1600.33 589.415 1600.14 589.113 1599.98 588.772C1599.83 588.432 1599.76 588.066 1599.76 587.675Z" fill="#4285F4"/>
<rect x="1014" y="94" width="240" height="240" rx="32" fill="#4285F4"/>
<g clip-path="url(#clip3_1136_699)">
<path d="M1047.95 200.161V236.147H1035.9V200.161H1026V190H1057.86V200.161H1047.95V200.161Z" fill="white"/>
<path d="M1077.47 204.751H1088.67V236.147H1077.47V232.66C1075.1 235.637 1071.87 237.129 1067.82 237.129C1065.52 237.129 1063.41 236.708 1061.48 235.873C1059.56 235.038 1057.88 233.865 1056.44 232.354C1055.01 230.843 1053.89 229.071 1053.09 227.031C1052.29 224.991 1051.89 222.766 1051.89 220.363C1051.89 218.119 1052.28 215.99 1053.06 213.969C1053.83 211.948 1054.92 210.183 1056.32 208.678C1057.71 207.167 1059.38 205.975 1061.3 205.095C1063.23 204.216 1065.37 203.782 1067.7 203.782C1071.63 203.782 1074.89 205.153 1077.47 207.881V204.758V204.751ZM1063.45 220.357C1063.45 221.377 1063.64 222.327 1064 223.2C1064.37 224.08 1064.87 224.845 1065.51 225.495C1066.14 226.145 1066.9 226.655 1067.78 227.025C1068.67 227.395 1069.61 227.573 1070.64 227.573C1071.66 227.573 1072.55 227.388 1073.44 227.025C1074.32 226.655 1075.08 226.145 1075.71 225.495C1076.35 224.845 1076.86 224.086 1077.25 223.232C1077.64 222.378 1077.83 221.46 1077.83 220.478C1077.83 219.496 1077.64 218.572 1077.25 217.692C1076.86 216.812 1076.35 216.047 1075.71 215.397C1075.08 214.747 1074.32 214.237 1073.44 213.867C1072.55 213.497 1071.62 213.319 1070.64 213.319C1069.65 213.319 1068.66 213.504 1067.78 213.867C1066.9 214.237 1066.14 214.747 1065.51 215.397C1064.87 216.047 1064.37 216.793 1064 217.628C1063.63 218.463 1063.45 219.375 1063.45 220.35V220.357Z" fill="white"/>
<path d="M1106.69 213.988V236.141H1095.55V213.988H1091.86V204.745H1095.55V195.323H1106.69V204.745H1113.02V213.988H1106.69V213.988Z" fill="white"/>
<path d="M1130.55 213.988V236.141H1119.42V213.988H1115.73V204.745H1119.42V195.323H1130.55V204.745H1136.89V213.988H1130.55V213.988Z" fill="white"/>
<path d="M1133.62 230.27C1133.62 229.288 1133.81 228.364 1134.18 227.484C1134.55 226.604 1135.06 225.839 1135.71 225.189C1136.37 224.539 1137.14 224.029 1138.02 223.659C1138.9 223.289 1139.83 223.111 1140.82 223.111C1141.81 223.111 1142.73 223.296 1143.62 223.659C1144.5 224.029 1145.27 224.539 1145.92 225.189C1146.58 225.839 1147.09 226.604 1147.46 227.484C1147.83 228.364 1148.01 229.288 1148.01 230.27C1148.01 231.251 1147.83 232.176 1147.46 233.056C1147.09 233.935 1146.58 234.7 1145.92 235.35C1145.27 236.001 1144.5 236.511 1143.62 236.88C1142.73 237.25 1141.81 237.429 1140.82 237.429C1139.83 237.429 1138.9 237.244 1138.02 236.88C1137.14 236.511 1136.37 236.001 1135.71 235.35C1135.06 234.7 1134.55 233.935 1134.18 233.056C1133.8 232.176 1133.62 231.251 1133.62 230.27V230.27Z" fill="white"/>
<path d="M1149.43 220.172C1149.43 217.845 1149.9 215.671 1150.84 213.657C1151.79 211.636 1153.1 209.883 1154.78 208.391C1156.46 206.9 1158.46 205.727 1160.77 204.872C1163.09 204.018 1165.62 203.585 1168.37 203.585C1171.12 203.585 1173.59 204.005 1175.91 204.841C1178.22 205.676 1180.23 206.842 1181.93 208.328C1183.64 209.819 1184.96 211.591 1185.9 213.651C1186.84 215.71 1187.32 217.985 1187.32 220.472C1187.32 222.958 1186.83 225.234 1185.87 227.293C1184.91 229.352 1183.58 231.13 1181.9 232.616C1180.22 234.107 1178.2 235.255 1175.84 236.071C1173.48 236.887 1170.93 237.295 1168.19 237.295C1165.44 237.295 1162.98 236.887 1160.68 236.071C1158.39 235.255 1156.41 234.095 1154.75 232.584C1153.09 231.073 1151.79 229.269 1150.84 227.165C1149.9 225.061 1149.43 222.728 1149.43 220.159V220.172ZM1161.18 220.293C1161.18 221.351 1161.37 222.32 1161.76 223.2C1162.15 224.08 1162.66 224.845 1163.3 225.495C1163.93 226.145 1164.69 226.655 1165.57 227.025C1166.46 227.395 1167.39 227.573 1168.37 227.573C1169.36 227.573 1170.29 227.388 1171.17 227.025C1172.06 226.655 1172.81 226.145 1173.45 225.495C1174.08 224.845 1174.59 224.08 1174.98 223.2C1175.37 222.32 1175.57 221.377 1175.57 220.357C1175.57 219.337 1175.37 218.451 1174.98 217.571C1174.59 216.691 1174.08 215.926 1173.45 215.276C1172.81 214.626 1172.05 214.116 1171.17 213.746C1170.29 213.376 1169.36 213.198 1168.37 213.198C1167.39 213.198 1166.46 213.383 1165.57 213.746C1164.69 214.116 1163.93 214.626 1163.3 215.276C1162.66 215.926 1162.15 216.685 1161.76 217.539C1161.37 218.393 1161.18 219.311 1161.18 220.293Z" fill="white"/>
<path d="M1176.49 220.172C1176.49 217.845 1176.96 215.671 1177.9 213.657C1178.85 211.636 1180.16 209.883 1181.84 208.391C1183.52 206.9 1185.51 205.727 1187.83 204.872C1190.15 204.018 1192.68 203.585 1195.43 203.585C1198.18 203.585 1200.65 204.005 1202.97 204.841C1205.28 205.676 1207.29 206.842 1208.99 208.328C1210.7 209.819 1212.02 211.591 1212.96 213.651C1213.9 215.71 1214.37 217.985 1214.37 220.472C1214.37 222.958 1213.89 225.234 1212.93 227.293C1211.97 229.352 1210.64 231.13 1208.96 232.616C1207.28 234.107 1205.26 235.255 1202.9 236.071C1200.54 236.887 1197.99 237.295 1195.25 237.295C1192.5 237.295 1190.04 236.887 1187.74 236.071C1185.45 235.255 1183.47 234.095 1181.81 232.584C1180.15 231.073 1178.85 229.269 1177.9 227.165C1176.96 225.061 1176.49 222.728 1176.49 220.159V220.172ZM1188.24 220.293C1188.24 221.351 1188.43 222.32 1188.82 223.2C1189.21 224.08 1189.72 224.845 1190.36 225.495C1190.99 226.145 1191.75 226.655 1192.63 227.025C1193.52 227.395 1194.44 227.573 1195.43 227.573C1196.42 227.573 1197.35 227.388 1198.23 227.025C1199.12 226.655 1199.87 226.145 1200.51 225.495C1201.14 224.845 1201.65 224.08 1202.04 223.2C1202.43 222.32 1202.63 221.377 1202.63 220.357C1202.63 219.337 1202.43 218.451 1202.04 217.571C1201.65 216.691 1201.14 215.926 1200.51 215.276C1199.87 214.626 1199.11 214.116 1198.23 213.746C1197.35 213.376 1196.42 213.198 1195.43 213.198C1194.44 213.198 1193.52 213.383 1192.63 213.746C1191.75 214.116 1190.99 214.626 1190.36 215.276C1189.72 215.926 1189.21 216.685 1188.82 217.539C1188.43 218.393 1188.24 219.311 1188.24 220.293Z" fill="white"/>
<path d="M1203.55 220.172C1203.55 217.845 1204.02 215.671 1204.96 213.657C1205.91 211.636 1207.22 209.883 1208.9 208.391C1210.58 206.9 1212.58 205.727 1214.89 204.872C1217.21 204.018 1219.74 203.585 1222.49 203.585C1225.24 203.585 1227.71 204.005 1230.03 204.841C1232.34 205.676 1234.35 206.842 1236.05 208.328C1237.76 209.819 1239.08 211.591 1240.02 213.651C1240.96 215.71 1241.44 217.985 1241.44 220.472C1241.44 222.958 1240.95 225.234 1239.99 227.293C1239.03 229.352 1237.7 231.13 1236.02 232.616C1234.34 234.107 1232.32 235.255 1229.96 236.071C1227.6 236.887 1225.05 237.295 1222.31 237.295C1219.56 237.295 1217.1 236.887 1214.8 236.071C1212.51 235.255 1210.53 234.095 1208.87 232.584C1207.21 231.073 1205.91 229.269 1204.96 227.165C1204.02 225.061 1203.55 222.728 1203.55 220.159V220.172ZM1215.3 220.293C1215.3 221.351 1215.49 222.32 1215.88 223.2C1216.27 224.08 1216.78 224.845 1217.42 225.495C1218.05 226.145 1218.81 226.655 1219.69 227.025C1220.58 227.395 1221.51 227.573 1222.49 227.573C1223.48 227.573 1224.41 227.388 1225.29 227.025C1226.18 226.655 1226.93 226.145 1227.57 225.495C1228.2 224.845 1228.71 224.08 1229.1 223.2C1229.49 222.32 1229.69 221.377 1229.69 220.357C1229.69 219.337 1229.49 218.451 1229.1 217.571C1228.71 216.691 1228.2 215.926 1227.57 215.276C1226.93 214.626 1226.17 214.116 1225.29 213.746C1224.41 213.376 1223.48 213.198 1222.49 213.198C1221.51 213.198 1220.58 213.383 1219.69 213.746C1218.81 214.116 1218.05 214.626 1217.42 215.276C1216.78 215.926 1216.27 216.685 1215.88 217.539C1215.49 218.393 1215.3 219.311 1215.3 220.293Z" fill="white"/>
</g>
<circle cx="1406" cy="214" r="120" fill="#4285F4"/>
<g clip-path="url(#clip4_1136_699)">
<path d="M1319.95 200.161V236.147H1307.9V200.161H1298V190H1329.86V200.161H1319.95V200.161Z" fill="white"/>
<path d="M1349.47 204.751H1360.67V236.147H1349.47V232.66C1347.1 235.637 1343.87 237.129 1339.82 237.129C1337.52 237.129 1335.41 236.708 1333.48 235.873C1331.56 235.038 1329.88 233.865 1328.44 232.354C1327.01 230.843 1325.89 229.071 1325.09 227.031C1324.29 224.991 1323.89 222.766 1323.89 220.363C1323.89 218.119 1324.28 215.99 1325.06 213.969C1325.83 211.948 1326.92 210.183 1328.32 208.678C1329.71 207.167 1331.38 205.975 1333.3 205.095C1335.23 204.216 1337.37 203.782 1339.7 203.782C1343.63 203.782 1346.89 205.153 1349.47 207.881V204.758V204.751ZM1335.45 220.357C1335.45 221.377 1335.64 222.327 1336 223.2C1336.37 224.08 1336.87 224.845 1337.51 225.495C1338.14 226.145 1338.9 226.655 1339.78 227.025C1340.67 227.395 1341.61 227.573 1342.64 227.573C1343.66 227.573 1344.55 227.388 1345.44 227.025C1346.32 226.655 1347.08 226.145 1347.71 225.495C1348.35 224.845 1348.86 224.086 1349.25 223.232C1349.64 222.378 1349.83 221.46 1349.83 220.478C1349.83 219.496 1349.64 218.572 1349.25 217.692C1348.86 216.812 1348.35 216.047 1347.71 215.397C1347.08 214.747 1346.32 214.237 1345.44 213.867C1344.55 213.497 1343.62 213.319 1342.64 213.319C1341.65 213.319 1340.66 213.504 1339.78 213.867C1338.9 214.237 1338.14 214.747 1337.51 215.397C1336.87 216.047 1336.37 216.793 1336 217.628C1335.63 218.463 1335.45 219.375 1335.45 220.35V220.357Z" fill="white"/>
<path d="M1378.69 213.988V236.141H1367.55V213.988H1363.86V204.745H1367.55V195.323H1378.69V204.745H1385.02V213.988H1378.69V213.988Z" fill="white"/>
<path d="M1402.55 213.988V236.141H1391.42V213.988H1387.73V204.745H1391.42V195.323H1402.55V204.745H1408.89V213.988H1402.55V213.988Z" fill="white"/>
<path d="M1405.62 230.27C1405.62 229.288 1405.81 228.364 1406.18 227.484C1406.55 226.604 1407.06 225.839 1407.71 225.189C1408.37 224.539 1409.14 224.029 1410.02 223.659C1410.9 223.289 1411.83 223.111 1412.82 223.111C1413.81 223.111 1414.73 223.296 1415.62 223.659C1416.5 224.029 1417.27 224.539 1417.92 225.189C1418.58 225.839 1419.09 226.604 1419.46 227.484C1419.83 228.364 1420.01 229.288 1420.01 230.27C1420.01 231.251 1419.83 232.176 1419.46 233.056C1419.09 233.935 1418.58 234.7 1417.92 235.35C1417.27 236.001 1416.5 236.511 1415.62 236.88C1414.73 237.25 1413.81 237.429 1412.82 237.429C1411.83 237.429 1410.9 237.244 1410.02 236.88C1409.14 236.511 1408.37 236.001 1407.71 235.35C1407.06 234.7 1406.55 233.935 1406.18 233.056C1405.8 232.176 1405.62 231.251 1405.62 230.27V230.27Z" fill="white"/>
<path d="M1421.43 220.172C1421.43 217.845 1421.9 215.671 1422.84 213.657C1423.79 211.636 1425.1 209.883 1426.78 208.391C1428.46 206.9 1430.46 205.727 1432.77 204.872C1435.09 204.018 1437.62 203.585 1440.37 203.585C1443.12 203.585 1445.59 204.005 1447.91 204.841C1450.22 205.676 1452.23 206.842 1453.93 208.328C1455.64 209.819 1456.96 211.591 1457.9 213.651C1458.84 215.71 1459.32 217.985 1459.32 220.472C1459.32 222.958 1458.83 225.234 1457.87 227.293C1456.91 229.352 1455.58 231.13 1453.9 232.616C1452.22 234.107 1450.2 235.255 1447.84 236.071C1445.48 236.887 1442.93 237.295 1440.19 237.295C1437.44 237.295 1434.98 236.887 1432.68 236.071C1430.39 235.255 1428.41 234.095 1426.75 232.584C1425.09 231.073 1423.79 229.269 1422.84 227.165C1421.9 225.061 1421.43 222.728 1421.43 220.159V220.172ZM1433.18 220.293C1433.18 221.351 1433.37 222.32 1433.76 223.2C1434.15 224.08 1434.66 224.845 1435.3 225.495C1435.93 226.145 1436.69 226.655 1437.57 227.025C1438.46 227.395 1439.39 227.573 1440.37 227.573C1441.36 227.573 1442.29 227.388 1443.17 227.025C1444.06 226.655 1444.81 226.145 1445.45 225.495C1446.08 224.845 1446.59 224.08 1446.98 223.2C1447.37 222.32 1447.57 221.377 1447.57 220.357C1447.57 219.337 1447.37 218.451 1446.98 217.571C1446.59 216.691 1446.08 215.926 1445.45 215.276C1444.81 214.626 1444.05 214.116 1443.17 213.746C1442.29 213.376 1441.36 213.198 1440.37 213.198C1439.39 213.198 1438.46 213.383 1437.57 213.746C1436.69 214.116 1435.93 214.626 1435.3 215.276C1434.66 215.926 1434.15 216.685 1433.76 217.539C1433.37 218.393 1433.18 219.311 1433.18 220.293Z" fill="white"/>
<path d="M1448.49 220.172C1448.49 217.845 1448.96 215.671 1449.9 213.657C1450.85 211.636 1452.16 209.883 1453.84 208.391C1455.52 206.9 1457.51 205.727 1459.83 204.872C1462.15 204.018 1464.68 203.585 1467.43 203.585C1470.18 203.585 1472.65 204.005 1474.97 204.841C1477.28 205.676 1479.29 206.842 1480.99 208.328C1482.7 209.819 1484.02 211.591 1484.96 213.651C1485.9 215.71 1486.37 217.985 1486.37 220.472C1486.37 222.958 1485.89 225.234 1484.93 227.293C1483.97 229.352 1482.64 231.13 1480.96 232.616C1479.28 234.107 1477.26 235.255 1474.9 236.071C1472.54 236.887 1469.99 237.295 1467.25 237.295C1464.5 237.295 1462.04 236.887 1459.74 236.071C1457.45 235.255 1455.47 234.095 1453.81 232.584C1452.15 231.073 1450.85 229.269 1449.9 227.165C1448.96 225.061 1448.49 222.728 1448.49 220.159V220.172ZM1460.24 220.293C1460.24 221.351 1460.43 222.32 1460.82 223.2C1461.21 224.08 1461.72 224.845 1462.36 225.495C1462.99 226.145 1463.75 226.655 1464.63 227.025C1465.52 227.395 1466.44 227.573 1467.43 227.573C1468.42 227.573 1469.35 227.388 1470.23 227.025C1471.12 226.655 1471.87 226.145 1472.51 225.495C1473.14 224.845 1473.65 224.08 1474.04 223.2C1474.43 222.32 1474.63 221.377 1474.63 220.357C1474.63 219.337 1474.43 218.451 1474.04 217.571C1473.65 216.691 1473.14 215.926 1472.51 215.276C1471.87 214.626 1471.11 214.116 1470.23 213.746C1469.35 213.376 1468.42 213.198 1467.43 213.198C1466.44 213.198 1465.52 213.383 1464.63 213.746C1463.75 214.116 1462.99 214.626 1462.36 215.276C1461.72 215.926 1461.21 216.685 1460.82 217.539C1460.43 218.393 1460.24 219.311 1460.24 220.293Z" fill="white"/>
<path d="M1475.55 220.172C1475.55 217.845 1476.02 215.671 1476.96 213.657C1477.91 211.636 1479.22 209.883 1480.9 208.391C1482.58 206.9 1484.58 205.727 1486.89 204.872C1489.21 204.018 1491.74 203.585 1494.49 203.585C1497.24 203.585 1499.71 204.005 1502.03 204.841C1504.34 205.676 1506.35 206.842 1508.05 208.328C1509.76 209.819 1511.08 211.591 1512.02 213.651C1512.96 215.71 1513.44 217.985 1513.44 220.472C1513.44 222.958 1512.95 225.234 1511.99 227.293C1511.03 229.352 1509.7 231.13 1508.02 232.616C1506.34 234.107 1504.32 235.255 1501.96 236.071C1499.6 236.887 1497.05 237.295 1494.31 237.295C1491.56 237.295 1489.1 236.887 1486.8 236.071C1484.51 235.255 1482.53 234.095 1480.87 232.584C1479.21 231.073 1477.91 229.269 1476.96 227.165C1476.02 225.061 1475.55 222.728 1475.55 220.159V220.172ZM1487.3 220.293C1487.3 221.351 1487.49 222.32 1487.88 223.2C1488.27 224.08 1488.78 224.845 1489.42 225.495C1490.05 226.145 1490.81 226.655 1491.69 227.025C1492.58 227.395 1493.51 227.573 1494.49 227.573C1495.48 227.573 1496.41 227.388 1497.29 227.025C1498.18 226.655 1498.93 226.145 1499.57 225.495C1500.2 224.845 1500.71 224.08 1501.1 223.2C1501.49 222.32 1501.69 221.377 1501.69 220.357C1501.69 219.337 1501.49 218.451 1501.1 217.571C1500.71 216.691 1500.2 215.926 1499.57 215.276C1498.93 214.626 1498.17 214.116 1497.29 213.746C1496.41 213.376 1495.48 213.198 1494.49 213.198C1493.51 213.198 1492.58 213.383 1491.69 213.746C1490.81 214.116 1490.05 214.626 1489.42 215.276C1488.78 215.926 1488.27 216.685 1487.88 217.539C1487.49 218.393 1487.3 219.311 1487.3 220.293Z" fill="white"/>
</g>
<circle cx="1590" cy="214" r="32" fill="#4285F4"/>
<path d="M1576.79 201.992V216.335H1572.15V201.992H1568.34V197.942H1580.6V201.992H1576.79V201.992Z" fill="white"/>
<path d="M1588.14 203.821H1592.45V216.334H1588.14V214.945C1587.23 216.131 1585.99 216.726 1584.43 216.726C1583.54 216.726 1582.73 216.558 1581.99 216.225C1581.25 215.892 1580.6 215.425 1580.05 214.823C1579.5 214.221 1579.07 213.514 1578.76 212.701C1578.45 211.888 1578.3 211.002 1578.3 210.044C1578.3 209.149 1578.45 208.301 1578.75 207.495C1579.05 206.69 1579.47 205.986 1580 205.387C1580.54 204.784 1581.18 204.309 1581.92 203.959C1582.66 203.608 1583.48 203.435 1584.38 203.435C1585.9 203.435 1587.15 203.982 1588.14 205.069V203.824V203.821ZM1582.75 210.041C1582.75 210.448 1582.82 210.826 1582.96 211.174C1583.1 211.525 1583.3 211.83 1583.54 212.089C1583.78 212.348 1584.07 212.551 1584.41 212.699C1584.75 212.846 1585.12 212.917 1585.51 212.917C1585.91 212.917 1586.25 212.844 1586.59 212.699C1586.93 212.551 1587.22 212.348 1587.47 212.089C1587.71 211.83 1587.91 211.527 1588.06 211.187C1588.21 210.847 1588.28 210.481 1588.28 210.089C1588.28 209.698 1588.21 209.33 1588.06 208.979C1587.91 208.629 1587.71 208.324 1587.47 208.064C1587.22 207.805 1586.93 207.602 1586.59 207.455C1586.25 207.307 1585.89 207.236 1585.51 207.236C1585.13 207.236 1584.75 207.31 1584.41 207.455C1584.07 207.602 1583.78 207.805 1583.54 208.064C1583.3 208.324 1583.1 208.621 1582.96 208.954C1582.82 209.287 1582.75 209.65 1582.75 210.039V210.041Z" fill="white"/>
<path d="M1599.38 207.503V216.332H1595.1V207.503H1593.68V203.819H1595.1V200.064H1599.38V203.819H1601.82V207.503H1599.38V207.503Z" fill="white"/>
<path d="M1608.56 207.503V216.332H1604.28V207.503H1602.86V203.819H1604.28V200.064H1608.56V203.819H1611V207.503H1608.56V207.503Z" fill="white"/>
<path d="M1568.34 219.699C1568.34 220.09 1568.41 220.458 1568.55 220.809C1568.69 221.159 1568.89 221.464 1569.14 221.723C1569.39 221.983 1569.69 222.186 1570.03 222.333C1570.37 222.481 1570.73 222.552 1571.11 222.552C1571.49 222.552 1571.84 222.478 1572.18 222.333C1572.52 222.186 1572.82 221.983 1573.07 221.723C1573.32 221.464 1573.52 221.159 1573.66 220.809C1573.81 220.458 1573.87 220.09 1573.87 219.699C1573.87 219.307 1573.8 218.939 1573.66 218.588C1573.52 218.238 1573.32 217.933 1573.07 217.674C1572.82 217.414 1572.52 217.211 1572.18 217.064C1571.84 216.916 1571.49 216.845 1571.11 216.845C1570.73 216.845 1570.37 216.919 1570.03 217.064C1569.69 217.211 1569.39 217.414 1569.14 217.674C1568.89 217.933 1568.69 218.238 1568.55 218.588C1568.41 218.939 1568.34 219.307 1568.34 219.699V219.699Z" fill="white"/>
<path d="M1574.42 223.723C1574.42 224.65 1574.6 225.517 1574.96 226.319C1575.33 227.125 1575.83 227.824 1576.48 228.418C1577.12 229.013 1577.89 229.48 1578.78 229.821C1579.68 230.161 1580.65 230.334 1581.71 230.334C1582.76 230.334 1583.71 230.166 1584.61 229.833C1585.5 229.5 1586.27 229.035 1586.92 228.443C1587.58 227.849 1588.09 227.143 1588.45 226.322C1588.81 225.501 1588.99 224.594 1588.99 223.603C1588.99 222.613 1588.81 221.705 1588.44 220.885C1588.07 220.064 1587.56 219.355 1586.91 218.763C1586.27 218.169 1585.49 217.711 1584.58 217.386C1583.67 217.061 1582.69 216.898 1581.64 216.898C1580.58 216.898 1579.63 217.061 1578.75 217.386C1577.87 217.711 1577.11 218.174 1576.47 218.776C1575.83 219.378 1575.33 220.097 1574.96 220.936C1574.6 221.774 1574.42 222.704 1574.42 223.728V223.723ZM1578.94 223.675C1578.94 223.253 1579.01 222.867 1579.16 222.516C1579.31 222.165 1579.51 221.86 1579.75 221.601C1580 221.342 1580.29 221.139 1580.63 220.992C1580.97 220.844 1581.33 220.773 1581.71 220.773C1582.09 220.773 1582.44 220.847 1582.78 220.992C1583.12 221.139 1583.41 221.342 1583.66 221.601C1583.9 221.86 1584.1 222.165 1584.25 222.516C1584.4 222.867 1584.47 223.243 1584.47 223.649C1584.47 224.056 1584.4 224.409 1584.25 224.759C1584.1 225.11 1583.9 225.415 1583.66 225.674C1583.41 225.933 1583.12 226.136 1582.78 226.284C1582.44 226.431 1582.09 226.502 1581.71 226.502C1581.33 226.502 1580.97 226.429 1580.63 226.284C1580.29 226.136 1580 225.933 1579.75 225.674C1579.51 225.415 1579.31 225.113 1579.16 224.772C1579.01 224.432 1578.94 224.066 1578.94 223.675Z" fill="white"/>
<path d="M1584.83 223.723C1584.83 224.65 1585.01 225.517 1585.37 226.319C1585.74 227.125 1586.24 227.824 1586.89 228.418C1587.53 229.013 1588.3 229.48 1589.19 229.821C1590.09 230.161 1591.06 230.334 1592.12 230.334C1593.17 230.334 1594.12 230.166 1595.02 229.833C1595.91 229.5 1596.68 229.035 1597.33 228.443C1597.99 227.849 1598.5 227.143 1598.86 226.322C1599.22 225.501 1599.41 224.594 1599.41 223.603C1599.41 222.613 1599.22 221.705 1598.85 220.885C1598.48 220.064 1597.97 219.355 1597.32 218.763C1596.68 218.169 1595.9 217.711 1594.99 217.386C1594.08 217.061 1593.1 216.898 1592.05 216.898C1590.99 216.898 1590.04 217.061 1589.16 217.386C1588.28 217.711 1587.52 218.174 1586.88 218.776C1586.24 219.378 1585.74 220.097 1585.37 220.936C1585.01 221.774 1584.83 222.704 1584.83 223.728V223.723ZM1589.35 223.675C1589.35 223.253 1589.42 222.867 1589.57 222.516C1589.72 222.165 1589.92 221.86 1590.17 221.601C1590.41 221.342 1590.7 221.139 1591.04 220.992C1591.38 220.844 1591.74 220.773 1592.12 220.773C1592.5 220.773 1592.85 220.847 1593.19 220.992C1593.53 221.139 1593.83 221.342 1594.07 221.601C1594.31 221.86 1594.51 222.165 1594.66 222.516C1594.81 222.867 1594.88 223.243 1594.88 223.649C1594.88 224.056 1594.81 224.409 1594.66 224.759C1594.51 225.11 1594.31 225.415 1594.07 225.674C1593.83 225.933 1593.53 226.136 1593.19 226.284C1592.85 226.431 1592.5 226.502 1592.12 226.502C1591.74 226.502 1591.38 226.429 1591.04 226.284C1590.7 226.136 1590.41 225.933 1590.17 225.674C1589.92 225.415 1589.72 225.113 1589.57 224.772C1589.42 224.432 1589.35 224.066 1589.35 223.675Z" fill="white"/>
<path d="M1595.24 223.723C1595.24 224.65 1595.42 225.517 1595.78 226.319C1596.15 227.125 1596.65 227.824 1597.3 228.418C1597.94 229.013 1598.71 229.48 1599.61 229.821C1600.5 230.161 1601.47 230.334 1602.53 230.334C1603.59 230.334 1604.53 230.166 1605.43 229.833C1606.32 229.5 1607.09 229.035 1607.75 228.443C1608.4 227.849 1608.91 227.143 1609.27 226.322C1609.63 225.501 1609.82 224.594 1609.82 223.603C1609.82 222.613 1609.63 221.705 1609.26 220.885C1608.89 220.064 1608.38 219.355 1607.73 218.763C1607.09 218.169 1606.31 217.711 1605.4 217.386C1604.5 217.061 1603.51 216.898 1602.46 216.898C1601.4 216.898 1600.45 217.061 1599.57 217.386C1598.69 217.711 1597.93 218.174 1597.29 218.776C1596.65 219.378 1596.15 220.097 1595.78 220.936C1595.42 221.774 1595.24 222.704 1595.24 223.728V223.723ZM1599.76 223.675C1599.76 223.253 1599.83 222.867 1599.98 222.516C1600.14 222.165 1600.33 221.86 1600.58 221.601C1600.82 221.342 1601.11 221.139 1601.45 220.992C1601.79 220.844 1602.15 220.773 1602.53 220.773C1602.91 220.773 1603.27 220.847 1603.61 220.992C1603.95 221.139 1604.24 221.342 1604.48 221.601C1604.72 221.86 1604.92 222.165 1605.07 222.516C1605.22 222.867 1605.3 223.243 1605.3 223.649C1605.3 224.056 1605.22 224.409 1605.07 224.759C1604.92 225.11 1604.72 225.415 1604.48 225.674C1604.24 225.933 1603.94 226.136 1603.61 226.284C1603.27 226.431 1602.91 226.502 1602.53 226.502C1602.15 226.502 1601.79 226.429 1601.45 226.284C1601.11 226.136 1600.82 225.933 1600.58 225.674C1600.33 225.415 1600.14 225.113 1599.98 224.772C1599.83 224.432 1599.76 224.066 1599.76 223.675Z" fill="white"/>
<defs>
<clipPath id="clip0_1136_699">
<rect width="741" height="164" fill="white" transform="translate(32 314)"/>
</clipPath>
<clipPath id="clip1_1136_699">
<rect width="215.429" height="47.4286" fill="white" transform="translate(1026 554)"/>
</clipPath>
<clipPath id="clip2_1136_699">
<rect width="215.429" height="47.4286" fill="white" transform="translate(1298 554)"/>
</clipPath>
<clipPath id="clip3_1136_699">
<rect width="215.429" height="47.4286" fill="white" transform="translate(1026 190)"/>
</clipPath>
<clipPath id="clip4_1136_699">
<rect width="215.429" height="47.4286" fill="white" transform="translate(1298 190)"/>
</clipPath>
</defs>
</svg>
