<?xml version="1.0" encoding="UTF-8"?><svg id="Layer_1" xmlns="http://www.w3.org/2000/svg" viewBox="0 0 184.68 216"><defs><style>.cls-1{fill:#000;stroke-width:0px;}</style></defs><rect class="cls-1" x="9.47" y="6.52" width="57.99" height="57.99" transform="translate(-7.88 11.17) rotate(-15)"/><rect class="cls-1" x="75.95" y="13.03" width="108.73" height="57.99"/><path class="cls-1" d="M75.95,149.23v42.4c0,6.65.85,10.94,5.45,13.24,5.04,2.51,12,2.38,12.3,3.03.4.82.13,7.02,0,7.44-.16.56-1.32.66-12.05.66s-15.33-1.24-34.7-1.24-23.96,1.24-34.69,1.24-11.89-.1-12.05-.66c-.13-.42-.4-6.62,0-7.44.3-.65,7.26-.52,12.3-3.03,4.6-2.3,5.45-6.59,5.45-13.24v-120.61h57.99v27.02h86.99v51.19h-86.99Z"/></svg>