<svg width="352" height="228" viewBox="0 0 352 228" fill="none" xmlns="http://www.w3.org/2000/svg">
<rect x="26.9672" y="22.5557" width="13.388" height="5.69399" rx="1" fill="#D9D9D9" stroke="#787878" stroke-width="2"/>
<rect x="26.9672" y="126.425" width="13.388" height="13.388" rx="6.69399" fill="#D9D9D9" stroke="#787878" stroke-width="2"/>
<rect x="26.9672" y="37.9438" width="13.388" height="5.69399" rx="1" fill="#D9D9D9" stroke="#787878" stroke-width="2"/>
<rect x="26.9672" y="149.506" width="13.388" height="13.388" rx="6.69399" fill="#D9D9D9" stroke="#787878" stroke-width="2"/>
<rect x="26.9672" y="70.6431" width="5.69399" height="5.69399" rx="2.84699" fill="#D9D9D9" stroke="#787878" stroke-width="2"/>
<rect x="26.9672" y="189.9" width="5.69399" height="5.69399" rx="2.84699" fill="#D9D9D9" stroke="#787878" stroke-width="2"/>
<rect x="26.9672" y="82.1841" width="5.69399" height="5.69399" rx="2.84699" fill="#D9D9D9" stroke="#787878" stroke-width="2"/>
<rect x="26.9672" y="201.441" width="5.69399" height="5.69399" rx="2.84699" fill="#D9D9D9" stroke="#787878" stroke-width="2"/>
<rect x="38.5082" y="70.6431" width="5.69399" height="5.69399" rx="2.84699" fill="#D9D9D9" stroke="#787878" stroke-width="2"/>
<rect x="38.5082" y="189.9" width="5.69399" height="5.69399" rx="2.84699" fill="#D9D9D9" stroke="#787878" stroke-width="2"/>
<rect x="38.5082" y="82.1841" width="5.69399" height="5.69399" rx="2.84699" fill="#D9D9D9" stroke="#787878" stroke-width="2"/>
<rect x="38.5082" y="201.441" width="5.69399" height="5.69399" rx="2.84699" fill="#D9D9D9" stroke="#787878" stroke-width="2"/>
<rect x="50.0492" y="70.6431" width="5.69399" height="5.69399" rx="2.84699" fill="#D9D9D9" stroke="#787878" stroke-width="2"/>
<rect x="50.0492" y="189.9" width="5.69399" height="5.69399" rx="2.84699" fill="#D9D9D9" stroke="#787878" stroke-width="2"/>
<rect x="50.0492" y="82.1841" width="5.69399" height="5.69399" rx="2.84699" fill="#D9D9D9" stroke="#787878" stroke-width="2"/>
<rect x="50.0492" y="201.441" width="5.69399" height="5.69399" rx="2.84699" fill="#D9D9D9" stroke="#787878" stroke-width="2"/>
<rect x="61.5902" y="70.6431" width="5.69399" height="5.69399" rx="2.84699" fill="#D9D9D9" stroke="#787878" stroke-width="2"/>
<rect x="61.5902" y="189.9" width="5.69399" height="5.69399" rx="2.84699" fill="#D9D9D9" stroke="#787878" stroke-width="2"/>
<rect x="73.1311" y="70.6431" width="5.69399" height="5.69399" rx="2.84699" fill="#D9D9D9" stroke="#787878" stroke-width="2"/>
<rect x="73.1311" y="189.9" width="5.69399" height="5.69399" rx="2.84699" fill="#D9D9D9" stroke="#787878" stroke-width="2"/>
<rect x="46.2021" y="37.9438" width="13.388" height="5.69399" rx="1" fill="#D9D9D9" stroke="#787878" stroke-width="2"/>
<rect x="46.2021" y="149.506" width="13.388" height="13.388" rx="6.69399" fill="#D9D9D9" stroke="#787878" stroke-width="2"/>
<rect x="65.4371" y="37.9438" width="13.388" height="5.69399" rx="1" fill="#D9D9D9" stroke="#787878" stroke-width="2"/>
<rect x="65.4371" y="149.506" width="13.388" height="13.388" rx="6.69399" fill="#D9D9D9" stroke="#787878" stroke-width="2"/>
<rect x="46.2021" y="22.5557" width="13.388" height="5.69399" rx="1" fill="#D9D9D9" stroke="#787878" stroke-width="2"/>
<rect x="46.2021" y="126.425" width="13.388" height="13.388" rx="6.69399" fill="#D9D9D9" stroke="#787878" stroke-width="2"/>
<rect x="65.4371" y="22.5557" width="13.388" height="5.69399" rx="1" fill="#D9D9D9" stroke="#787878" stroke-width="2"/>
<rect x="65.4371" y="126.425" width="13.388" height="13.388" rx="6.69399" fill="#D9D9D9" stroke="#787878" stroke-width="2"/>
<rect x="84.6721" y="22.5557" width="13.388" height="5.69399" rx="1" fill="#D9D9D9" stroke="#787878" stroke-width="2"/>
<rect x="84.6721" y="126.425" width="13.388" height="13.388" rx="6.69399" fill="#D9D9D9" stroke="#787878" stroke-width="2"/>
<rect x="21.1968" y="14.8618" width="82.6339" height="36.4699" rx="1" stroke="#505050" stroke-width="2" stroke-linecap="round" stroke-dasharray="2 8"/>
<rect x="21.1968" y="118.73" width="82.6339" height="51.8579" rx="1" stroke="#505050" stroke-width="2" stroke-linecap="round" stroke-dasharray="2 8"/>
<rect x="21.1968" y="64.8726" width="65.3224" height="28.776" rx="1" stroke="#505050" stroke-width="2" stroke-linecap="round" stroke-dasharray="2 8"/>
<rect x="21.1968" y="184.129" width="65.3224" height="28.776" rx="1" stroke="#505050" stroke-width="2" stroke-linecap="round" stroke-dasharray="2 8"/>
<rect x="131.798" y="14.8618" width="44.1639" height="90.3279" rx="3" fill="#D9D9D9" stroke="#787878" stroke-width="2"/>
<rect x="135.645" y="18.709" width="38" height="10" rx="1" fill="#D9D9D9" stroke="#787878" stroke-width="2"/>
<rect x="135.645" y="34.709" width="38" height="30" rx="1" fill="#D9D9D9" stroke="#787878" stroke-width="2"/>
<rect x="135.645" y="70.709" width="38" height="14" rx="1" fill="#D9D9D9" stroke="#787878" stroke-width="2"/>
<rect x="135.645" y="90.709" width="38" height="46" rx="1" fill="#D9D9D9" stroke="#787878" stroke-width="2"/>
<rect x="135.645" y="142.709" width="38" height="14" rx="1" fill="#D9D9D9" stroke="#787878" stroke-width="2"/>
<rect x="135.645" y="162.709" width="38" height="14" rx="1" fill="#D9D9D9" stroke="#787878" stroke-width="2"/>
<rect x="285.678" y="14.8618" width="44.1639" height="90.3279" rx="3" fill="#D9D9D9" stroke="#787878" stroke-width="2"/>
<rect x="289.525" y="18.709" width="38" height="10" rx="1" fill="#D9D9D9" stroke="#787878" stroke-width="2"/>
<rect x="289.525" y="34.709" width="38" height="30" rx="15" fill="#D9D9D9" stroke="#787878" stroke-width="2"/>
<rect x="289.525" y="70.709" width="38" height="30" rx="15" fill="#D9D9D9" stroke="#787878" stroke-width="2"/>
<rect x="289.525" y="106.709" width="38" height="30" rx="15" fill="#D9D9D9" stroke="#787878" stroke-width="2"/>
<rect x="289.525" y="142.709" width="38" height="14" rx="1" fill="#D9D9D9" stroke="#787878" stroke-width="2"/>
<rect x="289.525" y="162.709" width="38" height="14" rx="1" fill="#D9D9D9" stroke="#787878" stroke-width="2"/>
<rect x="289.525" y="182.709" width="38" height="14" rx="1" fill="#D9D9D9" stroke="#787878" stroke-width="2"/>
<rect x="208.738" y="14.8618" width="44.1639" height="90.3279" rx="3" fill="#D9D9D9" stroke="#787878" stroke-width="2"/>
<rect x="212.585" y="18.709" width="38" height="10" rx="1" fill="#D9D9D9" stroke="#787878" stroke-width="2"/>
<rect x="212.585" y="34.709" width="38" height="62" rx="1" fill="#787878" stroke="#787878" stroke-width="2"/>
<rect x="212.585" y="102.709" width="38" height="14" rx="1" fill="#D9D9D9" stroke="#787878" stroke-width="2"/>
<rect x="212.585" y="122.709" width="38" height="46" rx="1" fill="#D9D9D9" stroke="#787878" stroke-width="2"/>
<rect x="212.585" y="174.709" width="38" height="14" rx="1" fill="#D9D9D9" stroke="#787878" stroke-width="2"/>
<rect x="212.585" y="194.709" width="38" height="14" rx="1" fill="#D9D9D9" stroke="#787878" stroke-width="2"/>
<path d="M164.94 40.7334C164.112 40.7334 163.44 41.405 163.44 42.2334C163.44 43.0618 164.112 43.7334 164.94 43.7334V40.7334ZM221.683 71.5667L207.208 62.0551L206.208 79.3467L221.683 71.5667ZM164.94 43.7334C175.285 43.7334 180.685 45.231 183.65 47.2756C186.5 49.2407 187.323 51.8637 187.988 55.0705C188.634 58.1859 189.126 62.0684 191.814 65.319C194.551 68.6306 199.336 71.0873 208.001 72.2736L208.408 69.3013C200.083 68.1615 196.175 65.886 194.126 63.4076C192.027 60.8681 191.64 57.9029 190.926 54.4613C190.231 51.1111 189.214 47.4679 185.354 44.8059C181.609 42.2236 175.431 40.7334 164.94 40.7334V43.7334Z" fill="#505050"/>
<path d="M237.552 78.3564C236.723 78.3564 236.052 77.6849 236.052 76.8564C236.052 76.028 236.723 75.3564 237.552 75.3564V78.3564ZM294.295 47.5231L279.82 57.0347L278.82 39.7431L294.295 47.5231ZM237.552 75.3564C247.897 75.3564 253.297 73.8589 256.262 71.8142C259.112 69.8492 259.935 67.2261 260.6 64.0193C261.246 60.904 261.738 57.0214 264.425 53.7708C267.163 50.4592 271.948 48.0025 280.613 46.8163L281.02 49.7886C272.695 50.9283 268.786 53.2039 266.738 55.6823C264.638 58.2217 264.251 61.1869 263.538 64.6285C262.843 67.9788 261.826 71.6219 257.965 74.2839C254.221 76.8663 248.043 78.3564 237.552 78.3564V75.3564Z" fill="#505050"/>
</svg>
