<svg width="352" height="228" viewBox="0 0 352 228" fill="none" xmlns="http://www.w3.org/2000/svg">
<rect x="38.5082" y="29.8525" width="44.1639" height="44.1639" rx="11" fill="#373737" stroke="#373737" stroke-width="2" stroke-linecap="round"/>
<rect x="38.5082" y="91.4043" width="44.1639" height="44.1639" rx="19" fill="#373737" stroke="#373737" stroke-width="2" stroke-linecap="round"/>
<rect x="38.5082" y="152.956" width="44.1639" height="44.1639" rx="22.082" fill="#373737" stroke="#373737" stroke-width="2" stroke-linecap="round"/>
<rect x="115.448" y="29.8525" width="44.1639" height="44.1639" rx="11" fill="#505050" stroke="#373737" stroke-width="2" stroke-linecap="round"/>
<rect x="115.448" y="91.4043" width="44.1639" height="44.1639" rx="19" fill="#505050" stroke="#373737" stroke-width="2" stroke-linecap="round"/>
<rect x="115.448" y="152.956" width="44.1639" height="44.1639" rx="22.082" fill="#505050" stroke="#373737" stroke-width="2" stroke-linecap="round"/>
<rect x="192.388" y="29.8525" width="44.1639" height="44.1639" rx="11" fill="#787878" stroke="#373737" stroke-width="2" stroke-linecap="round"/>
<rect x="192.388" y="91.4043" width="44.1639" height="44.1639" rx="19" fill="#787878" stroke="#373737" stroke-width="2" stroke-linecap="round"/>
<rect x="192.388" y="152.956" width="44.1639" height="44.1639" rx="22.082" fill="#787878" stroke="#373737" stroke-width="2" stroke-linecap="round"/>
<rect x="269.328" y="29.8525" width="44.1639" height="44.1639" rx="11" fill="#DDDDDD" stroke="#373737" stroke-width="2" stroke-linecap="round"/>
<rect x="269.328" y="91.4043" width="44.1639" height="44.1639" rx="19" fill="#DDDDDD" stroke="#373737" stroke-width="2" stroke-linecap="round"/>
<rect x="269.328" y="152.956" width="44.1639" height="44.1639" rx="22.082" fill="white" stroke="#373737" stroke-width="2" stroke-linecap="round"/>
<rect x="288.563" y="150.071" width="5.69399" height="5.69399" rx="1" fill="#787878" stroke="#373737" stroke-width="2" stroke-linecap="round"/>
<rect x="288.563" y="194.312" width="5.69399" height="5.69399" rx="1" fill="#1E1E1E" stroke="#1E1E1E" stroke-width="2" stroke-linecap="round"/>
<rect x="266.443" y="177.885" width="5.69399" height="5.69399" rx="1" transform="rotate(-90 266.443 177.885)" fill="#787878" stroke="#373737" stroke-width="2" stroke-linecap="round"/>
<rect x="310.683" y="177.885" width="5.69399" height="5.69399" rx="1" transform="rotate(-90 310.683 177.885)" fill="#787878" stroke="#373737" stroke-width="2" stroke-linecap="round"/>
<line x1="306.798" y1="197.197" x2="276.022" y2="197.197" stroke="#1E1E1E" stroke-width="2"/>
<rect x="303.951" y="194.312" width="5.69399" height="5.69399" rx="2.84699" fill="#787878" stroke="#1E1E1E" stroke-width="2" stroke-linecap="round"/>
<rect x="273.175" y="194.312" width="5.69399" height="5.69399" rx="2.84699" fill="#787878" stroke="#1E1E1E" stroke-width="2" stroke-linecap="round"/>
</svg>
