<svg width="352" height="228" viewBox="0 0 352 228" fill="none" xmlns="http://www.w3.org/2000/svg">
<g clip-path="url(#clip0_479_4464)">
<rect x="53.4154" y="31.0138" width="28.776" height="28.776" rx="1" transform="rotate(-9.61043 53.4154 31.0138)" fill="#D9D9D9" stroke="#787878" stroke-width="2"/>
<rect x="93.1237" y="44.7598" width="28.776" height="28.776" rx="1" fill="#D9D9D9" stroke="#787878" stroke-width="2"/>
<rect x="50.8068" y="63.9946" width="28.776" height="28.776" rx="1" fill="#D9D9D9" stroke="#787878" stroke-width="2"/>
<rect x="86.3915" y="67.8413" width="28.776" height="28.776" rx="1" fill="#D9D9D9" stroke="#787878" stroke-width="2"/>
<rect x="128.708" y="52.4536" width="28.776" height="28.776" rx="1" fill="#D9D9D9" stroke="#787878" stroke-width="2"/>
<rect x="125.983" y="85.5335" width="28.776" height="28.776" rx="1" transform="rotate(11.1204 125.983 85.5335)" fill="#D9D9D9" stroke="#787878" stroke-width="2"/>
<rect x="76.7276" y="124.759" width="28.776" height="28.776" rx="1" transform="rotate(11.1204 76.7276 124.759)" fill="#D9D9D9" stroke="#787878" stroke-width="2"/>
<rect x="16.0368" y="75.0737" width="28.776" height="28.776" rx="1" transform="rotate(-8.98494 16.0368 75.0737)" fill="#D9D9D9" stroke="#787878" stroke-width="2"/>
<rect x="66.1948" y="103.426" width="28.776" height="28.776" rx="1" fill="#D9D9D9" stroke="#787878" stroke-width="2"/>
<rect x="107.55" y="123.623" width="28.776" height="28.776" rx="1" fill="#D9D9D9" stroke="#787878" stroke-width="2"/>
<rect x="213.756" y="44.4495" width="28.776" height="28.776" rx="1" transform="rotate(-7.86246 213.756 44.4495)" fill="#D9D9D9" stroke="#787878" stroke-width="2"/>
<rect x="258.867" y="37.5371" width="28.776" height="28.776" rx="1" fill="#D9D9D9" stroke="#787878" stroke-width="2"/>
<rect x="274.87" y="55.629" width="28.776" height="28.776" rx="1" transform="rotate(-9.95523 274.87 55.629)" fill="#D9D9D9" stroke="#787878" stroke-width="2"/>
<rect x="232.9" y="75.0454" width="28.776" height="28.776" rx="1" fill="#D9D9D9" stroke="#787878" stroke-width="2"/>
<rect x="272.208" y="85.0126" width="28.776" height="28.776" rx="1" transform="rotate(16.5188 272.208 85.0126)" fill="#D9D9D9" stroke="#787878" stroke-width="2"/>
<rect x="159.341" y="167.03" width="28.776" height="28.776" rx="1" transform="rotate(-9.36444 159.341 167.03)" fill="#D9D9D9" stroke="#787878" stroke-width="2"/>
<rect x="198.037" y="145.262" width="28.776" height="28.776" rx="1" fill="#D9D9D9" stroke="#787878" stroke-width="2"/>
<rect x="207.655" y="180.847" width="28.776" height="28.776" rx="1" fill="#D9D9D9" stroke="#787878" stroke-width="2"/>
<rect x="315.692" y="40.5885" width="28.776" height="28.776" rx="1" transform="rotate(7.51258 315.692 40.5885)" fill="#D9D9D9" stroke="#787878" stroke-width="2"/>
<path d="M95.009 6.73242C18.0691 6.73242 -55.0238 138.492 80.1107 168.306C215.249 198.121 225.335 -7.21293 86.843 26.9291" stroke="#505050" stroke-width="3" stroke-linecap="round"/>
<path d="M215.791 126.951C151.835 126.951 104.228 208.699 188.862 224.087C270.261 238.887 281.671 126.951 178.764 126.951" stroke="#505050" stroke-width="3" stroke-linecap="round"/>
<path d="M325.19 29.8044C265.081 -28.8623 135.986 9.47265 218.475 114.163C298.261 215.422 402.61 70.6791 320.266 15.8202" stroke="#505050" stroke-width="3" stroke-linecap="round"/>
</g>
<defs>
<clipPath id="clip0_479_4464">
<rect width="352" height="227.537" rx="4" fill="white"/>
</clipPath>
</defs>
</svg>
